{"glyphs":{"0":{"ha":1139,"x_min":69,"x_max":1069,"o":"m 569 903 q 464 880 515 903 q 373 807 413 857 q 309 678 333 757 q 285 486 285 599 q 309 294 285 374 q 373 165 333 215 q 464 92 413 115 q 569 69 515 69 q 675 92 624 69 q 766 165 726 115 q 830 294 806 215 q 854 486 854 374 q 830 678 854 599 q 766 807 806 757 q 675 880 726 857 q 569 903 624 903 m 569 1000 q 771 969 679 1000 q 929 874 863 938 q 1033 713 996 810 q 1069 486 1069 617 q 1033 259 1069 356 q 929 99 996 163 q 771 3 863 35 q 569 -28 679 -28 q 368 3 460 -28 q 210 99 276 35 q 106 259 143 163 q 69 486 69 356 q 106 713 69 617 q 210 874 143 810 q 368 969 276 938 q 569 1000 460 1000 z "},"1":{"ha":556,"x_min":14,"x_max":458,"o":"m 458 972 l 458 0 l 257 0 l 257 806 l 243 806 l 76 715 l 14 806 l 250 972 l 458 972 z "},"2":{"ha":958,"x_min":42,"x_max":917,"o":"m 556 493 q 648 581 608 529 q 688 701 688 633 q 631 843 688 790 q 458 896 574 896 q 269 867 354 896 q 104 771 183 839 l 42 854 q 228 961 121 922 q 472 1000 336 1000 q 663 979 582 1000 q 797 920 743 958 q 876 830 850 882 q 903 715 903 778 q 885 603 903 653 q 837 514 867 554 q 768 440 807 474 q 688 375 729 407 l 333 104 l 917 104 l 917 0 l 56 0 l 56 111 l 556 493 z "},"3":{"ha":1021,"x_min":28,"x_max":951,"o":"m 465 896 q 276 867 361 896 q 111 771 190 839 l 49 854 q 235 961 128 922 q 479 1000 343 1000 q 667 981 586 1000 q 801 926 747 961 q 883 844 856 892 q 910 743 910 797 q 867 597 910 654 q 729 507 824 539 q 892 419 833 481 q 951 257 951 357 q 924 145 951 197 q 837 55 896 93 q 688 -6 778 17 q 472 -28 597 -28 q 222 15 336 -28 q 28 132 107 58 l 97 215 q 265 109 176 142 q 458 76 354 76 q 670 132 604 76 q 736 271 736 188 q 683 399 736 354 q 521 444 631 444 l 236 444 l 236 549 l 493 549 q 694 729 694 549 q 635 849 694 803 q 465 896 575 896 z "},"4":{"ha":1056,"x_min":28,"x_max":1028,"o":"m 1028 222 l 910 222 l 910 0 l 708 0 l 708 222 l 28 222 l 28 332 l 660 972 l 910 972 l 910 319 l 1028 319 l 1028 222 m 708 319 l 708 792 l 694 792 l 229 319 l 708 319 z "},"5":{"ha":1007,"x_min":42,"x_max":951,"o":"m 493 625 q 840 538 728 625 q 951 299 951 450 q 838 60 951 147 q 479 -28 724 -28 q 235 15 349 -28 q 42 132 121 58 l 111 215 q 278 109 190 142 q 465 76 365 76 q 672 135 607 76 q 736 299 736 194 q 673 462 736 403 q 479 521 610 521 q 355 503 421 521 q 236 444 289 486 l 83 444 l 83 972 l 868 972 l 868 875 l 285 875 l 285 583 q 342 604 310 594 q 408 618 369 611 q 493 625 446 625 z "},"6":{"ha":1028,"x_min":69,"x_max":972,"o":"m 69 583 q 186 891 69 782 q 528 1000 303 1000 q 735 968 632 1000 q 917 868 838 936 l 854 785 q 773 840 815 818 q 690 874 731 861 q 610 891 649 886 q 542 896 572 896 q 353 820 422 896 q 285 583 285 744 q 354 618 314 603 q 437 642 388 631 q 549 653 486 653 q 729 628 650 653 q 863 558 808 603 q 944 451 917 514 q 972 313 972 388 q 944 174 972 238 q 858 67 915 111 q 717 -3 801 22 q 521 -28 633 -28 q 183 72 296 -28 q 69 354 69 171 l 69 583 m 535 556 q 426 541 472 556 q 347 510 379 526 q 285 465 311 490 l 285 340 q 351 140 285 210 q 521 69 417 69 q 616 87 572 69 q 691 136 660 104 q 740 213 722 168 q 757 313 757 258 q 740 412 757 367 q 692 489 722 457 q 622 538 663 521 q 535 556 582 556 z "},"7":{"ha":903,"x_min":14,"x_max":875,"o":"m 875 854 l 424 0 l 215 0 l 674 868 l 14 868 l 14 972 l 875 972 l 875 854 z "},"8":{"ha":1042,"x_min":56,"x_max":986,"o":"m 521 1000 q 713 980 633 1000 q 844 924 793 960 q 920 839 896 889 q 944 729 944 789 q 895 596 944 650 q 757 521 846 542 q 851 488 808 510 q 924 433 893 465 q 970 359 954 400 q 986 271 986 318 q 958 157 986 211 q 871 62 929 103 q 725 -3 813 21 q 521 -28 638 -28 q 317 -3 404 -28 q 171 62 229 21 q 84 157 113 103 q 56 271 56 211 q 72 359 56 318 q 118 433 88 400 q 190 488 149 465 q 285 521 232 510 q 147 596 196 542 q 97 729 97 650 q 122 839 97 789 q 197 924 146 889 q 328 980 249 960 q 521 1000 408 1000 m 521 69 q 709 126 647 69 q 771 271 771 182 q 708 410 771 354 q 521 465 646 465 q 333 410 396 465 q 271 271 271 354 q 333 126 271 182 q 521 69 394 69 m 521 563 q 677 609 625 563 q 729 729 729 656 q 677 856 729 808 q 521 903 625 903 q 365 856 417 903 q 313 729 313 808 q 365 609 313 656 q 521 563 417 563 z "},"9":{"ha":1028,"x_min":56,"x_max":958,"o":"m 958 389 q 842 81 958 190 q 500 -28 725 -28 q 293 4 396 -28 q 111 104 190 36 l 174 188 q 255 133 213 154 q 338 99 297 111 q 417 81 379 86 q 486 76 454 76 q 674 152 606 76 q 743 389 743 228 q 674 354 713 369 q 590 330 639 340 q 479 319 542 319 q 299 344 378 319 q 165 414 219 369 q 83 522 111 458 q 56 660 56 585 q 84 798 56 735 q 169 906 113 861 q 310 975 226 950 q 507 1000 394 1000 q 845 901 732 1000 q 958 618 958 801 l 958 389 m 493 417 q 602 431 556 417 q 681 461 649 444 q 743 507 717 481 l 743 632 q 677 833 743 763 q 507 903 611 903 q 411 885 454 903 q 337 836 368 868 q 288 759 306 804 q 271 660 271 714 q 288 560 271 606 q 335 483 306 515 q 406 434 365 451 q 493 417 446 417 z "}," ":{"ha":486,"x_min":0,"x_max":0,"o":""},"E":{"ha":986,"x_min":97,"x_max":944,"o":"m 299 868 l 299 549 l 806 549 l 806 444 l 299 444 l 299 104 l 944 104 l 944 0 l 97 0 l 97 972 l 944 972 l 944 868 l 299 868 z "},"F":{"ha":1000,"x_min":97,"x_max":972,"o":"m 299 868 l 299 535 l 806 535 l 806 431 l 299 431 l 299 0 l 97 0 l 97 972 l 972 972 l 972 868 l 299 868 z "},"G":{"ha":1139,"x_min":69,"x_max":1069,"o":"m 597 1000 q 836 957 724 1000 q 1028 840 949 914 l 958 757 q 792 863 879 831 q 611 896 706 896 q 481 872 540 896 q 377 797 421 847 q 309 670 333 747 q 285 486 285 593 q 310 298 285 376 q 379 169 335 219 q 487 94 424 118 q 625 69 550 69 q 733 81 688 69 q 808 107 778 92 q 868 146 844 124 l 868 410 l 688 410 l 688 500 l 1069 500 l 1069 118 q 950 44 1018 76 q 806 -6 892 17 q 611 -28 721 -28 q 386 6 486 -28 q 215 104 286 39 q 107 265 144 169 q 69 486 69 361 q 107 707 69 611 q 213 868 144 803 q 380 967 282 933 q 597 1000 478 1000 z "},"H":{"ha":1167,"x_min":97,"x_max":1069,"o":"m 1069 972 l 1069 0 l 868 0 l 868 424 l 299 424 l 299 0 l 97 0 l 97 972 l 299 972 l 299 528 l 868 528 l 868 972 l 1069 972 z "},"I":{"ha":396,"x_min":97,"x_max":299,"o":"m 299 0 l 97 0 l 97 972 l 299 972 l 299 0 z "},"J":{"ha":917,"x_min":14,"x_max":819,"o":"m 361 -28 q 262 -19 311 -28 q 167 4 213 -11 q 82 40 121 19 q 14 83 43 60 l 76 167 q 203 98 139 119 q 347 76 268 76 q 453 94 404 76 q 540 150 503 111 q 597 249 576 189 q 618 396 618 310 l 618 868 l 292 868 l 292 972 l 819 972 l 819 396 q 787 210 819 289 q 694 78 754 131 q 550 -1 635 25 q 361 -28 465 -28 z "},"K":{"ha":1104,"x_min":97,"x_max":1090,"o":"m 722 493 l 1090 0 l 861 0 l 542 431 l 299 431 l 299 0 l 97 0 l 97 972 l 299 972 l 299 535 l 528 535 l 847 972 l 1069 972 l 722 493 z "},"L":{"ha":924,"x_min":97,"x_max":896,"o":"m 896 104 l 896 0 l 97 0 l 97 972 l 299 972 l 299 104 l 896 104 z "},"M":{"ha":1528,"x_min":97,"x_max":1431,"o":"m 757 139 l 771 139 l 1132 972 l 1431 972 l 1431 0 l 1229 0 l 1229 778 l 1215 778 l 882 0 l 646 0 l 313 778 l 299 778 l 299 0 l 97 0 l 97 972 l 396 972 l 757 139 z "},"N":{"ha":1194,"x_min":97,"x_max":1097,"o":"m 1097 972 l 1097 0 l 833 0 l 313 792 l 299 792 l 299 0 l 97 0 l 97 972 l 361 972 l 882 181 l 896 181 l 896 972 l 1097 972 z "},"O":{"ha":1250,"x_min":69,"x_max":1181,"o":"m 625 903 q 492 878 554 903 q 385 801 431 853 q 312 672 339 750 q 285 486 285 593 q 312 301 285 379 q 385 171 339 222 q 492 94 431 119 q 625 69 554 69 q 758 94 696 69 q 865 171 819 119 q 938 301 911 222 q 965 486 965 379 q 938 672 965 593 q 865 801 911 750 q 758 878 819 853 q 625 903 696 903 m 625 1000 q 852 967 750 1000 q 1027 868 954 933 q 1140 707 1100 803 q 1181 486 1181 611 q 1140 265 1181 361 q 1027 104 1100 169 q 852 6 954 39 q 625 -28 750 -28 q 397 6 500 -28 q 222 104 294 39 q 109 265 149 169 q 69 486 69 361 q 109 707 69 611 q 222 868 149 803 q 397 967 294 933 q 625 1000 500 1000 z "},"P":{"ha":1097,"x_min":97,"x_max":1042,"o":"m 597 972 q 784 949 701 972 q 924 883 867 926 q 1011 776 981 839 q 1042 632 1042 713 q 1011 488 1042 551 q 924 381 981 425 q 784 315 867 338 q 597 292 701 292 l 299 292 l 299 0 l 97 0 l 97 972 l 597 972 m 299 868 l 299 396 l 597 396 q 767 453 707 396 q 828 632 828 511 q 767 810 828 753 q 597 868 707 868 l 299 868 z "},"Q":{"ha":1250,"x_min":69,"x_max":1181,"o":"m 625 1000 q 852 967 750 1000 q 1027 868 954 933 q 1140 707 1100 803 q 1181 486 1181 611 q 1117 215 1181 326 q 939 43 1053 104 l 1028 -56 l 931 -146 l 807 -7 q 625 -28 724 -28 q 397 6 500 -28 q 222 104 294 39 q 109 265 149 169 q 69 486 69 361 q 109 707 69 611 q 222 868 149 803 q 397 967 294 933 q 625 1000 500 1000 m 625 903 q 492 878 554 903 q 385 801 431 853 q 312 672 339 750 q 285 486 285 593 q 312 301 285 379 q 385 171 339 222 q 492 94 431 119 q 625 69 554 69 q 725 83 679 69 l 646 174 l 743 264 l 844 150 q 933 283 900 200 q 965 486 965 367 q 938 672 965 593 q 865 801 911 750 q 758 878 819 853 q 625 903 696 903 z "},"R":{"ha":1111,"x_min":97,"x_max":1056,"o":"m 597 972 q 784 949 701 972 q 924 883 867 926 q 1011 776 981 839 q 1042 632 1042 713 q 986 444 1042 521 q 826 328 931 368 l 1056 0 l 826 0 l 622 292 l 597 292 l 299 292 l 299 0 l 97 0 l 97 972 l 597 972 m 299 868 l 299 396 l 597 396 q 767 453 707 396 q 826 632 826 511 q 767 810 826 753 q 597 868 707 868 l 299 868 z "},"S":{"ha":1042,"x_min":42,"x_max":1000,"o":"m 1000 257 q 975 145 1000 197 q 894 55 950 93 q 748 -6 838 17 q 528 -28 658 -28 q 384 -17 454 -28 q 251 15 314 -6 q 134 66 188 36 q 42 132 81 96 l 111 215 q 296 112 190 147 q 528 76 401 76 q 726 115 668 76 q 785 222 785 154 q 739 311 785 275 q 583 382 693 347 l 319 465 q 122 572 189 507 q 56 736 56 636 q 80 835 56 788 q 156 920 104 883 q 287 978 207 957 q 479 1000 367 1000 q 615 989 547 1000 q 744 957 682 978 q 859 906 806 936 q 951 840 913 876 l 882 757 q 704 860 803 825 q 479 896 606 896 q 323 860 375 896 q 271 771 271 824 q 281 720 271 742 q 313 680 290 699 q 374 645 336 661 q 467 611 411 629 l 729 528 q 928 422 856 488 q 1000 257 1000 357 z "},"T":{"ha":979,"x_min":14,"x_max":965,"o":"m 965 868 l 590 868 l 590 0 l 389 0 l 389 868 l 14 868 l 14 972 l 965 972 l 965 868 z "},"U":{"ha":1194,"x_min":97,"x_max":1097,"o":"m 597 69 q 720 88 665 69 q 814 147 775 107 q 874 248 853 186 q 896 396 896 310 l 896 972 l 1097 972 l 1097 396 q 967 77 1097 182 q 597 -28 836 -28 q 227 77 357 -28 q 97 396 97 182 l 97 972 l 299 972 l 299 396 q 320 248 299 310 q 381 147 342 186 q 474 88 419 107 q 597 69 529 69 z "},"V":{"ha":1153,"x_min":14,"x_max":1139,"o":"m 569 118 l 583 118 l 932 972 l 1139 972 l 743 0 l 410 0 l 14 972 l 221 972 l 569 118 z "},"W":{"ha":1625,"x_min":28,"x_max":1597,"o":"m 931 903 l 1147 132 l 1161 132 l 1396 972 l 1597 972 l 1326 0 l 1028 0 l 819 743 l 806 743 l 597 0 l 299 0 l 28 972 l 229 972 l 464 132 l 478 132 l 694 903 l 931 903 z "},"X":{"ha":1063,"x_min":0,"x_max":1063,"o":"m 649 499 l 1063 0 l 826 0 l 531 356 l 236 0 l 0 0 l 413 499 l 21 972 l 257 972 l 531 640 l 806 972 l 1042 972 l 649 499 z "},"Y":{"ha":1104,"x_min":0,"x_max":1104,"o":"m 653 292 l 653 0 l 451 0 l 451 292 l 0 972 l 222 972 l 549 479 l 556 479 l 882 972 l 1104 972 l 653 292 z "},"Z":{"ha":1000,"x_min":49,"x_max":951,"o":"m 938 854 l 292 104 l 951 104 l 951 0 l 49 0 l 49 118 l 694 868 l 63 868 l 63 972 l 938 972 l 938 854 z "},"А":{"ha":1139,"x_min":14,"x_max":1125,"o":"m 354 340 l 785 340 l 576 854 l 563 854 l 354 340 m 729 972 l 1125 0 l 925 0 l 833 236 l 306 236 l 214 0 l 14 0 l 410 972 l 729 972 z "},"Б":{"ha":1090,"x_min":97,"x_max":1042,"o":"m 611 583 q 799 563 718 583 q 933 503 879 542 q 1015 410 988 464 q 1042 292 1042 357 q 1015 173 1042 226 q 933 81 988 119 q 799 21 879 42 q 611 0 718 0 l 97 0 l 97 972 l 931 972 l 931 868 l 299 868 l 299 583 l 611 583 m 299 479 l 299 104 l 611 104 q 769 153 711 104 q 826 292 826 203 q 769 430 826 381 q 611 479 711 479 l 299 479 z "},"В":{"ha":1111,"x_min":97,"x_max":1042,"o":"m 97 972 l 569 972 q 755 953 676 972 q 885 901 833 935 q 961 819 936 867 q 986 715 986 772 q 944 588 986 642 q 819 507 903 533 q 983 426 924 486 q 1042 271 1042 365 q 938 73 1042 146 q 611 0 835 0 l 97 0 l 97 972 m 299 444 l 299 104 l 611 104 q 771 146 715 104 q 826 271 826 188 q 771 402 826 360 q 611 444 715 444 l 299 444 m 569 549 q 771 715 771 549 q 720 828 771 789 q 569 868 669 868 l 299 868 l 299 549 l 569 549 z "},"Г":{"ha":917,"x_min":97,"x_max":903,"o":"m 299 868 l 299 0 l 97 0 l 97 972 l 903 972 l 903 868 l 299 868 z "},"Д":{"ha":1208,"x_min":14,"x_max":1153,"o":"m 83 104 q 160 143 125 104 q 201 250 196 182 l 257 972 l 1035 972 l 1035 104 l 1153 104 l 1153 -222 l 986 -222 l 958 0 l 208 0 l 181 -222 l 14 -222 l 14 104 l 83 104 m 396 250 q 378 186 393 214 q 344 140 363 158 q 299 104 324 118 l 833 104 l 833 868 l 444 868 l 396 250 z "},"Е":{"ha":986,"x_min":97,"x_max":944,"o":"m 299 868 l 299 549 l 806 549 l 806 444 l 299 444 l 299 104 l 944 104 l 944 0 l 97 0 l 97 972 l 944 972 l 944 868 l 299 868 z "},"Ё":{"ha":986,"x_min":97,"x_max":944,"o":"m 299 868 l 299 549 l 806 549 l 806 444 l 299 444 l 299 104 l 944 104 l 944 0 l 97 0 l 97 972 l 944 972 l 944 868 l 299 868 m 465 1174 q 437 1101 465 1132 q 361 1069 408 1069 q 285 1101 314 1069 q 257 1174 257 1132 q 285 1247 257 1215 q 361 1278 314 1278 q 436 1247 407 1278 q 465 1174 465 1215 m 785 1174 q 756 1101 785 1132 q 681 1069 728 1069 q 605 1101 633 1069 q 576 1174 576 1132 q 605 1247 576 1215 q 681 1278 633 1278 q 756 1247 726 1278 q 785 1174 785 1215 z "},"Ж":{"ha":1590,"x_min":14,"x_max":1576,"o":"m 694 972 l 896 972 l 896 535 l 1083 535 l 1333 972 l 1556 972 l 1278 493 l 1576 0 l 1347 0 l 1090 431 l 896 431 l 896 0 l 694 0 l 694 431 l 500 431 l 243 0 l 14 0 l 313 493 l 35 972 l 257 972 l 507 535 l 694 535 l 694 972 z "},"З":{"ha":1035,"x_min":28,"x_max":972,"o":"m 486 896 q 299 867 386 896 q 133 771 213 839 l 71 854 q 260 961 150 922 q 500 1000 369 1000 q 688 981 607 1000 q 822 926 768 961 q 903 844 876 892 q 931 743 931 797 q 888 597 931 654 q 750 507 844 539 q 913 419 854 481 q 972 257 972 357 q 944 145 972 197 q 855 55 915 93 q 700 -6 794 17 q 472 -28 606 -28 q 222 15 336 -28 q 28 132 107 58 l 97 215 q 265 109 176 142 q 458 76 354 76 q 596 91 539 76 q 688 132 653 106 q 740 194 724 158 q 757 271 757 229 q 704 399 757 354 q 542 444 651 444 l 250 444 l 250 549 l 514 549 q 715 729 715 549 q 656 849 715 803 q 486 896 596 896 z "},"И":{"ha":1194,"x_min":97,"x_max":1097,"o":"m 896 0 l 896 792 l 882 792 l 361 0 l 97 0 l 97 972 l 299 972 l 299 181 l 313 181 l 833 972 l 1097 972 l 1097 0 l 896 0 z "},"Й":{"ha":1194,"x_min":97,"x_max":1097,"o":"m 896 0 l 896 792 l 882 792 l 361 0 l 97 0 l 97 972 l 299 972 l 299 181 l 313 181 l 833 972 l 1097 972 l 1097 0 l 896 0 m 583 1049 q 375 1111 438 1049 q 313 1278 313 1174 l 472 1278 q 504 1188 472 1215 q 583 1160 536 1160 q 663 1188 631 1160 q 694 1278 694 1215 l 854 1278 q 792 1111 854 1174 q 583 1049 729 1049 z "},"К":{"ha":1104,"x_min":97,"x_max":1090,"o":"m 722 493 l 1090 0 l 861 0 l 542 431 l 299 431 l 299 0 l 97 0 l 97 972 l 299 972 l 299 535 l 528 535 l 847 972 l 1069 972 l 722 493 z "},"Л":{"ha":1153,"x_min":28,"x_max":1056,"o":"m 28 83 l 69 83 q 143 118 111 83 q 181 236 175 153 l 229 972 l 1056 972 l 1056 0 l 854 0 l 854 868 l 417 868 l 375 236 q 299 40 365 100 q 118 -21 233 -21 q 54 -14 82 -21 q 28 -7 39 -11 l 28 83 z "},"М":{"ha":1528,"x_min":97,"x_max":1431,"o":"m 757 139 l 771 139 l 1132 972 l 1431 972 l 1431 0 l 1229 0 l 1229 778 l 1215 778 l 882 0 l 646 0 l 313 778 l 299 778 l 299 0 l 97 0 l 97 972 l 396 972 l 757 139 z "},"Н":{"ha":1167,"x_min":97,"x_max":1069,"o":"m 1069 972 l 1069 0 l 868 0 l 868 424 l 299 424 l 299 0 l 97 0 l 97 972 l 299 972 l 299 528 l 868 528 l 868 972 l 1069 972 z "},"О":{"ha":1250,"x_min":69,"x_max":1181,"o":"m 625 903 q 492 878 554 903 q 385 801 431 853 q 312 672 339 750 q 285 486 285 593 q 312 301 285 379 q 385 171 339 222 q 492 94 431 119 q 625 69 554 69 q 758 94 696 69 q 865 171 819 119 q 938 301 911 222 q 965 486 965 379 q 938 672 965 593 q 865 801 911 750 q 758 878 819 853 q 625 903 696 903 m 625 1000 q 852 967 750 1000 q 1027 868 954 933 q 1140 707 1100 803 q 1181 486 1181 611 q 1140 265 1181 361 q 1027 104 1100 169 q 852 6 954 39 q 625 -28 750 -28 q 397 6 500 -28 q 222 104 294 39 q 109 265 149 169 q 69 486 69 361 q 109 707 69 611 q 222 868 149 803 q 397 967 294 933 q 625 1000 500 1000 z "},"П":{"ha":1167,"x_min":97,"x_max":1069,"o":"m 1069 972 l 1069 0 l 868 0 l 868 868 l 299 868 l 299 0 l 97 0 l 97 972 l 1069 972 z "},"Р":{"ha":1097,"x_min":97,"x_max":1042,"o":"m 597 972 q 784 949 701 972 q 924 883 867 926 q 1011 776 981 839 q 1042 632 1042 713 q 1011 488 1042 551 q 924 381 981 425 q 784 315 867 338 q 597 292 701 292 l 299 292 l 299 0 l 97 0 l 97 972 l 597 972 m 299 868 l 299 396 l 597 396 q 767 453 707 396 q 828 632 828 511 q 767 810 828 753 q 597 868 707 868 l 299 868 z "},"С":{"ha":1097,"x_min":69,"x_max":1069,"o":"m 653 76 q 834 109 747 76 q 1000 215 921 142 l 1069 132 q 878 15 990 58 q 639 -28 765 -28 q 403 6 508 -28 q 224 104 299 39 q 110 265 150 169 q 69 486 69 361 q 109 707 69 611 q 222 868 149 803 q 397 967 294 933 q 625 1000 500 1000 q 864 957 751 1000 q 1056 840 976 914 l 986 757 q 820 863 907 831 q 639 896 733 896 q 499 872 564 896 q 386 797 433 847 q 312 670 339 747 q 285 486 285 593 q 312 302 285 379 q 388 175 339 225 q 505 101 438 125 q 653 76 572 76 z "},"У":{"ha":1104,"x_min":0,"x_max":1090,"o":"m 1090 972 l 569 0 l 354 0 l 507 285 l 396 285 l 0 972 l 229 972 l 556 403 l 569 403 l 875 972 l 1090 972 z "},"Х":{"ha":1063,"x_min":0,"x_max":1063,"o":"m 649 499 l 1063 0 l 826 0 l 531 356 l 236 0 l 0 0 l 413 499 l 21 972 l 257 972 l 531 640 l 806 972 l 1042 972 l 649 499 z "},"Ф":{"ha":1382,"x_min":56,"x_max":1326,"o":"m 792 -56 l 590 -56 l 590 56 l 549 56 q 345 84 436 56 q 190 167 254 113 q 90 301 125 221 q 56 486 56 382 q 90 671 56 590 q 190 806 125 751 q 345 888 254 860 q 549 917 436 917 l 590 917 l 590 1028 l 792 1028 l 792 917 l 833 917 q 1037 888 946 917 q 1192 806 1128 860 q 1292 671 1257 751 q 1326 486 1326 590 q 1292 301 1326 382 q 1192 167 1257 221 q 1037 84 1128 113 q 833 56 946 56 l 792 56 l 792 -56 m 792 160 l 833 160 q 941 178 890 160 q 1029 235 992 196 q 1089 335 1067 274 q 1111 486 1111 397 q 1089 637 1111 575 q 1029 738 1067 699 q 941 794 992 776 q 833 813 890 813 l 792 813 l 792 160 m 590 813 l 549 813 q 441 794 492 813 q 353 738 390 776 q 293 637 315 699 q 271 486 271 575 q 293 335 271 397 q 353 235 315 274 q 441 178 390 196 q 549 160 492 160 l 590 160 l 590 813 z "},"Ч":{"ha":1090,"x_min":69,"x_max":993,"o":"m 528 319 q 319 339 406 319 q 176 396 232 358 q 95 489 121 433 q 69 618 69 544 l 69 972 l 271 972 l 271 618 q 329 472 271 519 q 528 424 388 424 l 792 424 l 792 972 l 993 972 l 993 0 l 792 0 l 792 319 l 528 319 z "},"Ш":{"ha":1521,"x_min":97,"x_max":1424,"o":"m 97 0 l 97 972 l 299 972 l 299 104 l 660 104 l 660 972 l 861 972 l 861 104 l 1222 104 l 1222 972 l 1424 972 l 1424 0 l 97 0 z "},"Щ":{"ha":1597,"x_min":97,"x_max":1542,"o":"m 1542 104 l 1542 -222 l 1375 -222 l 1347 0 l 97 0 l 97 972 l 299 972 l 299 104 l 660 104 l 660 972 l 861 972 l 861 104 l 1222 104 l 1222 972 l 1424 972 l 1424 104 l 1542 104 z "},"Ы":{"ha":1451,"x_min":97,"x_max":1354,"o":"m 1354 0 l 1153 0 l 1153 972 l 1354 972 l 1354 0 m 583 611 q 906 528 797 611 q 1014 306 1014 446 q 906 83 1014 165 q 583 0 797 0 l 97 0 l 97 972 l 299 972 l 299 611 l 583 611 m 299 507 l 299 104 l 583 104 q 741 155 683 104 q 799 306 799 206 q 741 456 799 406 q 583 507 683 507 l 299 507 z "},"Э":{"ha":1097,"x_min":28,"x_max":1028,"o":"m 444 76 q 585 98 521 76 q 697 163 649 119 q 774 275 744 207 q 810 438 803 343 l 286 438 l 286 542 l 810 542 q 774 700 803 633 q 698 810 744 767 q 590 875 651 854 q 458 896 529 896 q 277 863 364 896 q 111 757 190 831 l 42 840 q 233 957 121 914 q 472 1000 346 1000 q 699 967 597 1000 q 874 868 801 933 q 988 707 947 803 q 1028 486 1028 611 q 988 265 1028 361 q 873 104 947 169 q 694 6 799 39 q 458 -28 589 -28 q 219 15 332 -28 q 28 132 107 58 l 97 215 q 263 109 176 142 q 444 76 350 76 z "},"Ю":{"ha":1604,"x_min":97,"x_max":1535,"o":"m 1000 -28 q 797 1 890 -28 q 634 88 704 31 q 521 230 564 146 q 468 424 478 314 l 299 424 l 299 0 l 97 0 l 97 972 l 299 972 l 299 528 l 467 528 q 515 730 474 642 q 627 878 557 818 q 792 969 697 939 q 1000 1000 888 1000 q 1215 967 1117 1000 q 1385 868 1314 933 q 1495 707 1456 803 q 1535 486 1535 611 q 1495 265 1535 361 q 1385 104 1456 169 q 1215 6 1314 39 q 1000 -28 1117 -28 m 1000 903 q 880 878 938 903 q 778 801 822 853 q 707 672 733 750 q 681 486 681 593 q 707 301 681 379 q 778 171 733 222 q 880 94 822 119 q 1000 69 938 69 q 1120 94 1063 69 q 1222 171 1178 119 q 1293 301 1267 222 q 1319 486 1319 379 q 1293 672 1319 593 q 1222 801 1267 750 q 1120 878 1178 853 q 1000 903 1063 903 z "},"Я":{"ha":1111,"x_min":56,"x_max":1014,"o":"m 56 0 l 285 328 q 125 444 181 368 q 69 632 69 521 q 100 776 69 713 q 188 883 131 839 q 327 949 244 926 q 514 972 410 972 l 1014 972 l 1014 0 l 813 0 l 813 292 l 514 292 l 489 292 l 285 0 l 56 0 m 514 868 q 344 810 404 868 q 285 632 285 753 q 344 453 285 511 q 514 396 404 396 l 813 396 l 813 868 l 514 868 z "},"Ц":{"ha":1215,"x_min":97,"x_max":1160,"o":"m 1160 104 l 1160 -222 l 993 -222 l 965 0 l 97 0 l 97 972 l 299 972 l 299 104 l 840 104 l 840 972 l 1042 972 l 1042 104 l 1160 104 z "},"*":{"ha":694,"x_min":56,"x_max":639,"o":"m 56 806 l 118 917 l 285 819 l 285 1000 l 410 1000 l 410 819 l 576 917 l 639 806 l 475 713 l 639 618 l 576 507 l 410 604 l 410 424 l 285 424 l 285 604 l 118 507 l 56 618 l 215 713 l 56 806 z "},"+":{"ha":750,"x_min":42,"x_max":708,"o":"m 708 389 l 444 389 l 444 125 l 306 125 l 306 389 l 42 389 l 42 514 l 306 514 l 306 778 l 444 778 l 444 514 l 708 514 l 708 389 z "},"-":{"ha":750,"x_min":56,"x_max":694,"o":"m 694 389 l 56 389 l 56 514 l 694 514 l 694 389 z "},"–":{"ha":875,"x_min":28,"x_max":847,"o":"m 847 389 l 28 389 l 28 514 l 847 514 l 847 389 z "},"—":{"ha":1208,"x_min":28,"x_max":1181,"o":"m 1181 389 l 28 389 l 28 514 l 1181 514 l 1181 389 z "},"/":{"ha":514,"x_min":0,"x_max":514,"o":"m 514 972 l 181 0 l 0 0 l 333 972 l 514 972 z "},"\\":{"ha":569,"x_min":28,"x_max":542,"o":"m 208 972 l 542 0 l 361 0 l 28 972 l 208 972 z "},"<":{"ha":590,"x_min":42,"x_max":514,"o":"m 201 361 l 514 160 l 514 -14 l 42 292 l 42 431 l 514 736 l 514 563 l 201 361 z "},"=":{"ha":778,"x_min":69,"x_max":708,"o":"m 708 521 l 69 521 l 69 646 l 708 646 l 708 521 m 708 257 l 69 257 l 69 382 l 708 382 l 708 257 z "},">":{"ha":590,"x_min":76,"x_max":549,"o":"m 76 563 l 76 736 l 549 431 l 549 292 l 76 -14 l 76 160 l 389 361 l 76 563 z "},"?":{"ha":903,"x_min":14,"x_max":861,"o":"m 403 882 q 242 853 329 882 q 76 757 156 825 l 14 840 q 197 947 93 908 q 417 986 301 986 q 613 962 529 986 q 751 895 696 938 q 833 796 806 853 q 861 674 861 739 q 763 463 861 543 q 493 361 665 382 l 493 278 l 313 278 l 313 465 q 471 481 406 465 q 576 525 536 497 q 635 591 617 553 q 653 674 653 629 q 636 756 653 718 q 588 822 619 794 q 509 866 556 850 q 403 882 463 882 m 507 90 q 478 17 507 49 q 403 -14 450 -14 q 327 17 356 -14 q 299 90 299 49 q 327 163 299 132 q 403 194 356 194 q 478 163 449 194 q 507 90 507 132 z "},"@":{"ha":1431,"x_min":69,"x_max":1361,"o":"m 729 90 q 465 168 563 90 q 368 403 368 246 q 465 637 368 558 q 729 715 563 715 l 1021 715 l 1021 188 q 1097 201 1063 188 q 1156 246 1132 215 q 1194 325 1181 276 q 1208 444 1208 374 q 1174 628 1208 546 q 1076 768 1140 710 q 921 858 1013 826 q 715 889 829 889 q 509 857 600 889 q 354 765 418 825 q 256 617 290 704 q 222 417 222 529 q 256 217 222 304 q 354 69 290 129 q 509 -24 418 8 q 715 -56 600 -56 q 810 -49 764 -56 q 890 -35 856 -43 q 965 -14 931 -26 l 993 -125 q 914 -146 958 -137 q 826 -160 876 -154 q 715 -167 775 -167 q 450 -124 569 -167 q 247 -3 331 -81 q 116 182 163 75 q 69 417 69 289 q 116 651 69 544 q 247 836 163 758 q 450 957 331 914 q 715 1000 569 1000 q 981 957 861 1000 q 1184 839 1100 914 q 1315 663 1268 764 q 1361 444 1361 561 q 1335 290 1361 356 q 1264 179 1310 224 q 1156 113 1218 135 q 1021 90 1093 90 l 729 90 m 826 188 l 826 618 l 729 618 q 673 606 700 618 q 624 567 646 593 q 590 501 603 542 q 576 403 576 460 q 590 305 576 346 q 624 238 603 264 q 673 199 646 211 q 729 188 700 188 l 826 188 z "},"[":{"ha":486,"x_min":97,"x_max":458,"o":"m 292 944 l 292 -111 l 458 -111 l 458 -215 l 97 -215 l 97 1049 l 458 1049 l 458 944 l 292 944 z "},"]":{"ha":486,"x_min":28,"x_max":389,"o":"m 28 944 l 28 1049 l 389 1049 l 389 -215 l 28 -215 l 28 -111 l 194 -111 l 194 944 l 28 944 z "},"{":{"ha":528,"x_min":28,"x_max":514,"o":"m 194 417 q 250 399 221 411 q 304 365 279 388 q 345 310 329 343 q 361 229 361 276 l 361 28 q 399 -73 361 -35 q 500 -111 438 -111 l 514 -111 l 514 -215 l 500 -215 q 249 -151 332 -215 q 167 28 167 -87 l 167 229 q 128 330 167 292 q 28 368 90 368 l 28 465 q 128 503 90 465 q 167 604 167 542 l 167 806 q 249 985 167 921 q 500 1049 332 1049 l 514 1049 l 514 944 l 500 944 q 399 906 438 944 q 361 806 361 868 l 361 604 q 345 524 361 557 q 304 468 329 490 q 250 434 279 446 q 194 417 221 422 z "},"}":{"ha":528,"x_min":14,"x_max":500,"o":"m 333 417 q 278 434 307 422 q 224 468 249 446 q 183 524 199 490 q 167 604 167 557 l 167 806 q 128 906 167 868 q 28 944 90 944 l 14 944 l 14 1049 l 28 1049 q 278 985 196 1049 q 361 806 361 921 l 361 604 q 399 503 361 542 q 500 465 438 465 l 500 368 q 399 330 438 368 q 361 229 361 292 l 361 28 q 278 -151 361 -87 q 28 -215 196 -215 l 14 -215 l 14 -111 l 28 -111 q 128 -73 90 -111 q 167 28 167 -35 l 167 229 q 183 310 167 276 q 224 365 199 343 q 278 399 249 388 q 333 417 307 411 z "},"^":{"ha":708,"x_min":14,"x_max":694,"o":"m 188 625 l 14 625 l 278 1000 l 431 1000 l 694 625 l 521 625 l 354 861 l 188 625 z "},"_":{"ha":639,"x_min":0,"x_max":639,"o":"m 639 -125 l 0 -125 l 0 0 l 639 0 l 639 -125 z "},"а":{"ha":896,"x_min":49,"x_max":806,"o":"m 257 229 q 417 97 257 97 l 611 97 l 611 361 l 417 361 q 257 229 257 361 m 611 458 q 559 606 611 558 q 424 653 507 653 q 301 634 361 653 q 194 583 242 615 l 146 667 q 213 703 176 688 q 289 728 250 718 q 366 744 328 739 q 438 750 404 750 q 594 729 526 750 q 710 669 663 708 q 781 577 757 631 q 806 458 806 524 l 806 0 l 417 0 q 138 57 228 0 q 49 229 49 114 q 138 401 49 344 q 417 458 228 458 l 611 458 z "},"б":{"ha":944,"x_min":63,"x_max":896,"o":"m 479 569 q 400 553 438 569 q 333 506 363 538 q 288 428 304 475 q 271 319 271 382 q 288 206 271 254 q 333 126 304 158 q 400 78 363 94 q 479 63 438 63 q 558 78 521 63 q 625 126 596 94 q 671 206 654 158 q 688 319 688 254 q 671 428 688 382 q 625 506 654 475 q 558 553 596 538 q 479 569 521 569 m 493 667 q 653 642 579 667 q 781 571 726 617 q 865 461 835 525 q 896 319 896 397 q 865 178 896 242 q 778 68 833 114 q 647 -3 724 22 q 479 -28 571 -28 q 311 -2 388 -28 q 180 72 235 24 q 94 189 125 119 q 63 347 63 258 l 63 507 q 167 836 63 725 q 458 965 271 947 l 819 1000 l 819 840 l 472 806 q 181 507 181 776 l 194 507 q 310 626 236 586 q 493 667 383 667 z "},"в":{"ha":903,"x_min":97,"x_max":847,"o":"m 806 521 q 767 431 806 468 q 646 382 729 393 q 797 319 746 367 q 847 208 847 271 q 827 126 847 164 q 765 60 807 88 q 660 16 724 32 q 507 0 596 0 l 97 0 l 97 722 l 465 722 q 618 706 554 722 q 724 663 682 690 q 785 599 765 636 q 806 521 806 563 m 507 97 q 604 129 569 97 q 639 208 639 161 q 604 288 639 256 q 507 319 569 319 l 292 319 l 292 97 l 507 97 m 465 417 q 563 448 528 417 q 597 521 597 479 q 563 594 597 563 q 465 625 528 625 l 292 625 l 292 417 l 465 417 z "},"г":{"ha":694,"x_min":97,"x_max":681,"o":"m 681 625 l 292 625 l 292 0 l 97 0 l 97 722 l 681 722 l 681 625 z "},"д":{"ha":1014,"x_min":14,"x_max":965,"o":"m 14 97 l 69 97 q 146 130 117 97 q 181 236 175 163 l 215 722 l 854 722 l 854 97 l 965 97 l 965 -208 l 806 -208 l 778 0 l 201 0 l 174 -208 l 14 -208 l 14 97 m 368 236 q 352 176 365 201 q 324 133 339 150 q 294 108 308 117 q 278 97 281 99 l 660 97 l 660 625 l 396 625 l 368 236 z "},"е":{"ha":931,"x_min":63,"x_max":868,"o":"m 514 69 q 641 93 582 69 q 757 160 700 117 l 813 76 q 751 33 786 53 q 674 1 715 14 q 589 -20 633 -12 q 500 -28 544 -28 q 320 -2 401 -28 q 182 73 239 24 q 94 194 125 122 q 63 361 63 267 q 92 527 63 454 q 176 649 122 600 q 303 724 229 699 q 465 750 376 750 q 622 725 549 750 q 750 652 696 700 q 836 536 804 604 q 868 382 868 468 l 868 285 l 275 285 q 355 119 292 169 q 514 69 418 69 m 465 660 q 390 644 425 660 q 330 596 356 629 q 288 510 304 563 q 271 382 272 457 l 660 382 q 643 507 660 454 q 599 594 626 560 q 537 644 572 628 q 465 660 501 660 z "},"ё":{"ha":931,"x_min":63,"x_max":868,"o":"m 514 69 q 641 93 582 69 q 757 160 700 117 l 813 76 q 751 33 786 53 q 674 1 715 14 q 589 -20 633 -12 q 500 -28 544 -28 q 320 -2 401 -28 q 182 73 239 24 q 94 194 125 122 q 63 361 63 267 q 92 527 63 454 q 176 649 122 600 q 303 724 229 699 q 465 750 376 750 q 622 725 549 750 q 750 652 696 700 q 836 536 804 604 q 868 382 868 468 l 868 285 l 275 285 q 355 119 292 169 q 514 69 418 69 m 465 660 q 390 644 425 660 q 330 596 356 629 q 288 510 304 563 q 271 382 272 457 l 660 382 q 643 507 660 454 q 599 594 626 560 q 537 644 572 628 q 465 660 501 660 m 410 910 q 381 837 410 868 q 306 806 353 806 q 230 837 258 806 q 201 910 201 868 q 230 983 201 951 q 306 1014 258 1014 q 381 983 351 1014 q 410 910 410 951 m 729 910 q 701 837 729 868 q 625 806 672 806 q 549 837 578 806 q 521 910 521 868 q 549 983 521 951 q 625 1014 578 1014 q 700 983 671 1014 q 729 910 729 951 z "},"ж":{"ha":1361,"x_min":28,"x_max":1333,"o":"m 250 0 l 28 0 l 285 368 l 42 722 l 250 722 l 465 410 l 583 410 l 583 722 l 778 722 l 778 410 l 896 410 l 1111 722 l 1319 722 l 1076 368 l 1333 0 l 1111 0 l 896 313 l 778 313 l 778 0 l 583 0 l 583 313 l 465 313 l 250 0 z "},"з":{"ha":833,"x_min":21,"x_max":771,"o":"m 743 549 q 569 382 743 413 q 720 317 669 367 q 771 194 771 268 q 749 107 771 147 q 681 37 728 67 q 560 -10 633 7 q 382 -28 486 -28 q 173 3 267 -28 q 21 76 79 35 l 76 160 q 204 97 135 124 q 368 69 274 69 q 520 105 478 69 q 563 208 563 140 q 528 288 563 256 q 431 319 493 319 l 188 319 l 188 417 l 403 417 q 500 449 465 417 q 535 535 535 482 q 498 620 535 588 q 382 653 461 653 q 224 626 293 653 q 97 563 156 599 l 42 646 q 193 719 100 688 q 396 750 286 750 q 550 733 485 750 q 658 688 615 717 q 722 624 701 660 q 743 549 743 588 z "},"и":{"ha":972,"x_min":97,"x_max":875,"o":"m 875 722 l 875 0 l 681 0 l 681 542 l 667 542 l 347 0 l 97 0 l 97 722 l 292 722 l 292 181 l 306 181 l 625 722 l 875 722 z "},"й":{"ha":972,"x_min":97,"x_max":875,"o":"m 472 806 q 275 866 342 806 q 208 1021 208 926 l 368 1021 q 399 935 368 968 q 472 903 431 903 q 545 935 514 903 q 576 1021 576 968 l 736 1021 q 669 866 736 926 q 472 806 603 806 m 875 722 l 875 0 l 681 0 l 681 542 l 667 542 l 347 0 l 97 0 l 97 722 l 292 722 l 292 181 l 306 181 l 625 722 l 875 722 z "},"к":{"ha":903,"x_min":97,"x_max":875,"o":"m 438 313 l 292 313 l 292 0 l 97 0 l 97 722 l 292 722 l 292 410 l 438 410 l 653 722 l 861 722 l 618 368 l 875 0 l 653 0 l 438 313 z "},"л":{"ha":944,"x_min":21,"x_max":847,"o":"m 21 76 l 63 76 q 96 84 81 76 q 123 110 111 92 q 142 158 135 128 q 153 236 150 189 l 181 722 l 847 722 l 847 0 l 653 0 l 653 625 l 361 625 l 340 236 q 274 38 333 96 q 111 -21 215 -21 q 50 -14 78 -21 q 21 -7 35 -11 l 21 76 z "},"м":{"ha":1236,"x_min":97,"x_max":1139,"o":"m 625 125 l 854 722 l 1139 722 l 1139 0 l 944 0 l 944 528 l 931 528 l 729 0 l 508 0 l 306 528 l 292 528 l 292 0 l 97 0 l 97 722 l 382 722 l 611 125 l 625 125 z "},"н":{"ha":958,"x_min":97,"x_max":861,"o":"m 861 722 l 861 0 l 667 0 l 667 319 l 292 319 l 292 0 l 97 0 l 97 722 l 292 722 l 292 417 l 667 417 l 667 722 l 861 722 z "},"о":{"ha":972,"x_min":63,"x_max":910,"o":"m 486 63 q 569 79 531 63 q 638 131 608 96 q 684 224 667 167 q 701 361 701 281 q 684 499 701 442 q 638 591 667 556 q 569 643 608 626 q 486 660 531 660 q 403 643 442 660 q 335 591 364 626 q 288 499 306 556 q 271 361 271 442 q 288 224 271 281 q 335 131 306 167 q 403 79 364 96 q 486 63 442 63 m 486 750 q 658 724 579 750 q 792 649 736 699 q 878 527 847 600 q 910 361 910 454 q 878 194 910 267 q 792 73 847 122 q 658 -2 736 24 q 486 -28 579 -28 q 314 -2 392 -28 q 181 73 236 24 q 94 194 125 122 q 63 361 63 267 q 94 527 63 454 q 181 649 125 600 q 314 724 236 699 q 486 750 392 750 z "},"п":{"ha":958,"x_min":97,"x_max":861,"o":"m 861 722 l 861 0 l 667 0 l 667 625 l 292 625 l 292 0 l 97 0 l 97 722 l 861 722 z "},"р":{"ha":951,"x_min":97,"x_max":889,"o":"m 292 625 l 292 97 l 465 97 q 552 112 513 97 q 620 158 592 126 q 665 240 649 190 q 681 361 681 290 q 665 482 681 432 q 620 564 649 532 q 552 610 592 596 q 465 625 513 625 l 292 625 m 465 722 q 640 697 561 722 q 774 625 718 672 q 859 511 829 578 q 889 361 889 444 q 859 211 889 278 q 774 97 829 144 q 640 25 718 50 q 465 0 561 0 l 292 0 l 292 -250 l 97 -250 l 97 722 l 465 722 z "},"с":{"ha":861,"x_min":63,"x_max":813,"o":"m 486 750 q 575 742 531 750 q 660 722 619 735 q 737 689 701 708 q 799 646 772 669 l 743 563 q 627 629 686 606 q 500 653 568 653 q 408 637 450 653 q 336 585 367 621 q 288 494 306 550 q 271 361 271 439 q 288 228 271 283 q 338 137 306 172 q 415 85 369 101 q 514 69 460 69 q 641 93 582 69 q 757 160 700 117 l 813 76 q 751 33 786 53 q 674 1 715 14 q 589 -20 633 -12 q 500 -28 544 -28 q 320 -2 401 -28 q 182 73 239 24 q 94 194 125 122 q 63 361 63 267 q 94 527 63 454 q 181 649 125 600 q 314 724 236 699 q 486 750 392 750 z "},"т":{"ha":806,"x_min":14,"x_max":792,"o":"m 792 625 l 500 625 l 500 0 l 306 0 l 306 625 l 14 625 l 14 722 l 792 722 l 792 625 z "},"у":{"ha":903,"x_min":14,"x_max":889,"o":"m 521 -250 l 326 -250 l 424 0 l 306 0 l 14 722 l 208 722 l 451 118 l 465 118 l 694 722 l 889 722 l 521 -250 z "},"ф":{"ha":1181,"x_min":63,"x_max":1118,"o":"m 493 -250 l 493 0 l 472 0 q 306 25 381 0 q 176 97 231 50 q 92 211 122 144 q 63 361 63 278 q 92 511 63 444 q 176 625 122 578 q 306 697 231 672 q 472 722 381 722 l 493 722 l 493 972 l 688 972 l 688 722 l 708 722 q 875 697 800 722 q 1004 625 950 672 q 1088 511 1058 578 q 1118 361 1118 444 q 1088 211 1118 278 q 1004 97 1058 144 q 875 25 950 50 q 708 0 800 0 l 688 0 l 688 -250 l 493 -250 m 493 97 l 493 625 l 472 625 q 394 610 431 625 q 330 564 357 596 q 287 482 303 532 q 271 361 271 432 q 287 240 271 290 q 330 158 303 190 q 394 112 357 126 q 472 97 431 97 l 493 97 m 688 625 l 688 97 l 708 97 q 787 112 750 97 q 851 158 824 126 q 894 240 878 190 q 910 361 910 290 q 894 482 910 432 q 851 564 878 532 q 787 610 824 596 q 708 625 750 625 l 688 625 z "},"х":{"ha":861,"x_min":14,"x_max":847,"o":"m 542 365 l 847 0 l 625 0 l 431 232 l 236 0 l 14 0 l 319 365 l 21 722 l 243 722 l 431 497 l 618 722 l 840 722 l 542 365 z "},"ц":{"ha":1000,"x_min":97,"x_max":951,"o":"m 97 0 l 97 722 l 292 722 l 292 97 l 639 97 l 639 722 l 833 722 l 833 97 l 951 97 l 951 -208 l 792 -208 l 764 0 l 97 0 z "},"ч":{"ha":910,"x_min":76,"x_max":813,"o":"m 76 722 l 271 722 l 271 472 q 310 369 271 404 q 438 333 349 333 l 618 333 l 618 722 l 813 722 l 813 0 l 618 0 l 618 236 l 438 236 q 273 253 342 236 q 160 300 204 269 q 97 374 117 331 q 76 472 76 418 l 76 722 z "},"ш":{"ha":1278,"x_min":97,"x_max":1181,"o":"m 97 0 l 97 722 l 292 722 l 292 97 l 542 97 l 542 722 l 736 722 l 736 97 l 986 97 l 986 722 l 1181 722 l 1181 0 l 97 0 z "},"щ":{"ha":1347,"x_min":97,"x_max":1299,"o":"m 97 0 l 97 722 l 292 722 l 292 97 l 542 97 l 542 722 l 736 722 l 736 97 l 986 97 l 986 722 l 1181 722 l 1181 97 l 1299 97 l 1299 -208 l 1139 -208 l 1111 0 l 97 0 z "},"ъ":{"ha":1000,"x_min":14,"x_max":951,"o":"m 611 472 q 870 409 789 472 q 951 236 951 346 q 870 63 951 126 q 611 0 789 0 l 208 0 l 208 611 l 14 611 l 14 722 l 403 722 l 403 472 l 611 472 m 403 375 l 403 97 l 611 97 q 708 133 674 97 q 743 236 743 168 q 708 340 743 304 q 611 375 674 375 l 403 375 z "},"ы":{"ha":1208,"x_min":97,"x_max":1111,"o":"m 917 0 l 917 722 l 1111 722 l 1111 0 l 917 0 m 472 472 q 731 409 650 472 q 813 236 813 346 q 731 63 813 126 q 472 0 650 0 l 97 0 l 97 722 l 292 722 l 292 472 l 472 472 m 292 375 l 292 97 l 472 97 q 569 133 535 97 q 604 236 604 168 q 569 340 604 304 q 472 375 535 375 l 292 375 z "},"ь":{"ha":889,"x_min":97,"x_max":840,"o":"m 500 472 q 759 409 678 472 q 840 236 840 346 q 759 63 840 126 q 500 0 678 0 l 97 0 l 97 722 l 292 722 l 292 472 l 500 472 m 292 375 l 292 97 l 500 97 q 597 133 563 97 q 632 236 632 168 q 597 340 632 304 q 500 375 563 375 l 292 375 z "},"э":{"ha":861,"x_min":49,"x_max":799,"o":"m 375 750 q 547 724 468 750 q 681 649 625 699 q 767 527 736 600 q 799 361 799 454 q 767 194 799 267 q 678 73 736 122 q 540 -2 621 24 q 361 -28 460 -28 q 272 -20 317 -28 q 187 1 228 -12 q 110 33 146 14 q 49 76 75 53 l 104 160 q 220 93 161 117 q 347 69 279 69 q 514 128 449 69 q 589 319 579 186 l 229 319 l 229 417 l 588 417 q 562 524 581 479 q 513 598 543 569 q 444 640 483 626 q 361 653 406 653 q 234 629 293 653 q 118 563 175 606 l 63 646 q 124 689 89 669 q 201 722 160 708 q 286 742 242 735 q 375 750 331 750 z "},"ю":{"ha":1292,"x_min":97,"x_max":1229,"o":"m 826 750 q 986 724 913 750 q 1114 649 1060 699 q 1199 527 1168 600 q 1229 361 1229 454 q 1199 194 1229 267 q 1114 73 1168 122 q 986 -2 1060 24 q 826 -28 913 -28 q 674 -5 744 -28 q 551 62 604 18 q 465 171 499 106 q 425 319 432 236 l 292 319 l 292 0 l 97 0 l 97 722 l 292 722 l 292 417 l 426 417 q 469 559 435 497 q 556 663 503 621 q 678 728 608 706 q 826 750 747 750 m 826 63 q 898 79 863 63 q 960 131 933 96 q 1004 224 988 167 q 1021 361 1021 281 q 1004 499 1021 442 q 960 591 988 556 q 898 643 933 626 q 826 660 863 660 q 755 643 790 660 q 692 591 719 626 q 649 499 665 556 q 632 361 632 442 q 649 224 632 281 q 692 131 665 167 q 755 79 719 96 q 826 63 790 63 z "},"я":{"ha":903,"x_min":56,"x_max":806,"o":"m 56 0 l 242 268 q 106 349 149 293 q 63 486 63 406 q 144 659 63 596 q 403 722 225 722 l 806 722 l 806 0 l 611 0 l 611 250 l 453 250 l 278 0 l 56 0 m 611 347 l 611 625 l 403 625 q 306 590 340 625 q 271 486 271 554 q 306 383 271 418 q 403 347 340 347 l 611 347 z "},"a":{"ha":896,"x_min":49,"x_max":806,"o":"m 257 229 q 417 97 257 97 l 611 97 l 611 361 l 417 361 q 257 229 257 361 m 611 458 q 559 606 611 558 q 424 653 507 653 q 301 634 361 653 q 194 583 242 615 l 146 667 q 213 703 176 688 q 289 728 250 718 q 366 744 328 739 q 438 750 404 750 q 594 729 526 750 q 710 669 663 708 q 781 577 757 631 q 806 458 806 524 l 806 0 l 417 0 q 138 57 228 0 q 49 229 49 114 q 138 401 49 344 q 417 458 228 458 l 611 458 z "},"b":{"ha":951,"x_min":97,"x_max":889,"o":"m 465 97 q 552 112 513 97 q 620 158 592 126 q 665 240 649 190 q 681 361 681 290 q 665 482 681 432 q 620 564 649 532 q 552 610 592 596 q 465 625 513 625 l 292 625 l 292 97 l 465 97 m 97 0 l 97 972 l 292 972 l 292 722 l 465 722 q 640 697 561 722 q 774 625 718 672 q 859 511 829 578 q 889 361 889 444 q 859 211 889 278 q 774 97 829 144 q 640 25 718 50 q 465 0 561 0 l 97 0 z "},"c":{"ha":854,"x_min":63,"x_max":813,"o":"m 486 750 q 575 742 531 750 q 660 722 619 735 q 737 689 701 708 q 799 646 772 669 l 743 563 q 627 629 686 606 q 500 653 568 653 q 408 637 450 653 q 336 585 367 621 q 288 494 306 550 q 271 361 271 439 q 288 228 271 283 q 338 137 306 172 q 415 85 369 101 q 514 69 460 69 q 641 93 582 69 q 757 160 700 117 l 813 76 q 751 33 786 53 q 674 1 715 14 q 589 -20 633 -12 q 500 -28 544 -28 q 320 -2 401 -28 q 182 73 239 24 q 94 194 125 122 q 63 361 63 267 q 94 527 63 454 q 181 649 125 600 q 314 724 236 699 q 486 750 392 750 z "},"d":{"ha":951,"x_min":63,"x_max":854,"o":"m 660 97 l 660 625 l 486 625 q 399 610 439 625 q 331 564 360 596 q 287 482 303 532 q 271 361 271 432 q 287 240 271 290 q 331 158 303 190 q 399 112 360 126 q 486 97 439 97 l 660 97 m 486 0 q 312 25 390 0 q 178 97 233 50 q 92 211 122 144 q 63 361 63 278 q 92 511 63 444 q 178 625 122 578 q 312 697 233 672 q 486 722 390 722 l 660 722 l 660 972 l 854 972 l 854 0 l 486 0 z "},"e":{"ha":931,"x_min":63,"x_max":868,"o":"m 514 69 q 641 93 582 69 q 757 160 700 117 l 813 76 q 751 33 786 53 q 674 1 715 14 q 589 -20 633 -12 q 500 -28 544 -28 q 320 -2 401 -28 q 182 73 239 24 q 94 194 125 122 q 63 361 63 267 q 92 527 63 454 q 176 649 122 600 q 303 724 229 699 q 465 750 376 750 q 622 725 549 750 q 750 652 696 700 q 836 536 804 604 q 868 382 868 468 l 868 285 l 275 285 q 355 119 292 169 q 514 69 418 69 m 465 660 q 390 644 425 660 q 330 596 356 629 q 288 510 304 563 q 271 382 272 457 l 660 382 q 643 507 660 454 q 599 594 626 560 q 537 644 572 628 q 465 660 501 660 z "},"f":{"ha":625,"x_min":28,"x_max":688,"o":"m 160 708 q 244 922 160 844 q 486 1000 329 1000 q 592 986 539 1000 q 688 951 646 972 l 646 861 q 581 890 619 876 q 500 903 542 903 q 444 892 471 903 q 398 858 418 881 q 366 797 378 835 q 354 708 354 760 l 354 694 l 569 694 l 569 597 l 354 597 l 354 0 l 160 0 l 160 597 l 28 597 l 28 694 l 160 694 l 160 708 z "},"g":{"ha":951,"x_min":63,"x_max":854,"o":"m 486 625 q 328 563 386 625 q 271 375 271 501 q 328 187 271 249 q 486 125 386 125 l 660 125 l 660 625 l 486 625 m 854 14 q 829 -105 854 -51 q 755 -197 804 -158 q 631 -257 706 -236 q 458 -278 557 -278 q 387 -273 425 -278 q 310 -258 349 -268 q 234 -231 271 -247 q 167 -194 197 -215 l 215 -111 q 322 -162 263 -143 q 444 -181 382 -181 q 604 -133 549 -181 q 660 14 660 -86 l 660 28 l 486 28 q 312 53 390 28 q 178 124 233 78 q 92 233 122 169 q 63 375 63 297 q 92 517 63 453 q 178 626 122 581 q 312 697 233 672 q 486 722 390 722 l 854 722 l 854 14 z "},"h":{"ha":951,"x_min":97,"x_max":861,"o":"m 861 0 l 667 0 l 667 438 q 617 581 667 538 q 472 625 567 625 l 292 625 l 292 0 l 97 0 l 97 972 l 292 972 l 292 722 l 472 722 q 766 651 671 722 q 861 438 861 579 l 861 0 z "},"i":{"ha":403,"x_min":97,"x_max":306,"o":"m 299 0 l 104 0 l 104 708 l 299 708 l 299 0 m 306 896 q 277 823 306 854 q 201 792 249 792 q 126 823 154 792 q 97 896 97 854 q 126 969 97 938 q 201 1000 154 1000 q 276 969 247 1000 q 306 896 306 938 z "},"j":{"ha":417,"x_min":-139,"x_max":319,"o":"m 313 0 q 293 -110 313 -60 q 237 -199 274 -161 q 146 -257 200 -236 q 21 -278 92 -278 q -56 -271 -15 -278 q -139 -243 -97 -264 l -111 -153 q -62 -172 -90 -164 q -7 -181 -33 -181 q 42 -171 19 -181 q 82 -140 65 -161 q 108 -84 99 -118 q 118 0 118 -50 l 118 708 l 313 708 l 313 0 m 319 896 q 291 823 319 854 q 215 792 263 792 q 140 823 168 792 q 111 896 111 854 q 140 969 111 938 q 215 1000 168 1000 q 290 969 261 1000 q 319 896 319 938 z "},"k":{"ha":889,"x_min":97,"x_max":875,"o":"m 438 319 l 292 319 l 292 0 l 97 0 l 97 972 l 292 972 l 292 417 l 438 417 l 653 722 l 861 722 l 618 375 l 875 0 l 653 0 l 438 319 z "},"l":{"ha":389,"x_min":97,"x_max":292,"o":"m 292 0 l 97 0 l 97 972 l 292 972 l 292 0 z "},"m":{"ha":1299,"x_min":97,"x_max":1208,"o":"m 97 722 l 819 722 q 1113 651 1018 722 q 1208 438 1208 579 l 1208 0 l 1014 0 l 1014 438 q 964 581 1014 538 q 819 625 914 625 l 750 625 l 750 0 l 556 0 l 556 625 l 292 625 l 292 0 l 97 0 l 97 722 z "},"n":{"ha":951,"x_min":97,"x_max":861,"o":"m 861 0 l 667 0 l 667 438 q 617 581 667 538 q 472 625 567 625 l 292 625 l 292 0 l 97 0 l 97 722 l 472 722 q 766 651 671 722 q 861 438 861 579 l 861 0 z "},"o":{"ha":972,"x_min":63,"x_max":910,"o":"m 486 63 q 569 79 531 63 q 638 131 608 96 q 684 224 667 167 q 701 361 701 281 q 684 499 701 442 q 638 591 667 556 q 569 643 608 626 q 486 660 531 660 q 403 643 442 660 q 335 591 364 626 q 288 499 306 556 q 271 361 271 442 q 288 224 271 281 q 335 131 306 167 q 403 79 364 96 q 486 63 442 63 m 486 750 q 658 724 579 750 q 792 649 736 699 q 878 527 847 600 q 910 361 910 454 q 878 194 910 267 q 792 73 847 122 q 658 -2 736 24 q 486 -28 579 -28 q 314 -2 392 -28 q 181 73 236 24 q 94 194 125 122 q 63 361 63 267 q 94 527 63 454 q 181 649 125 600 q 314 724 236 699 q 486 750 392 750 z "},"p":{"ha":951,"x_min":97,"x_max":889,"o":"m 292 625 l 292 97 l 465 97 q 552 112 513 97 q 620 158 592 126 q 665 240 649 190 q 681 361 681 290 q 665 482 681 432 q 620 564 649 532 q 552 610 592 596 q 465 625 513 625 l 292 625 m 465 722 q 640 697 561 722 q 774 625 718 672 q 859 511 829 578 q 889 361 889 444 q 859 211 889 278 q 774 97 829 144 q 640 25 718 50 q 465 0 561 0 l 292 0 l 292 -250 l 97 -250 l 97 722 l 465 722 z "},"q":{"ha":951,"x_min":63,"x_max":854,"o":"m 486 625 q 399 610 439 625 q 331 564 360 596 q 287 482 303 532 q 271 361 271 432 q 287 240 271 290 q 331 158 303 190 q 399 112 360 126 q 486 97 439 97 l 660 97 l 660 625 l 486 625 m 854 722 l 854 -250 l 660 -250 l 660 0 l 486 0 q 312 25 390 0 q 178 97 233 50 q 92 211 122 144 q 63 361 63 278 q 92 511 63 444 q 178 625 122 578 q 312 697 233 672 q 486 722 390 722 l 854 722 z "},"r":{"ha":660,"x_min":90,"x_max":646,"o":"m 646 625 l 479 625 q 335 574 385 625 q 285 424 285 524 l 285 0 l 90 0 l 90 424 q 180 644 90 565 q 438 722 269 722 l 646 722 l 646 625 z "},"s":{"ha":854,"x_min":42,"x_max":813,"o":"m 264 569 q 292 511 264 538 q 389 465 321 485 l 604 403 q 758 324 704 374 q 813 194 813 274 q 792 103 813 144 q 724 33 771 63 q 601 -12 676 4 q 417 -28 526 -28 q 305 -19 360 -28 q 201 3 250 -11 q 111 37 151 18 q 42 76 71 56 l 97 160 q 234 97 156 124 q 417 69 313 69 q 563 97 521 69 q 604 167 604 125 q 575 224 604 199 q 472 271 546 250 l 257 333 q 112 409 168 360 q 56 542 56 458 q 76 624 56 586 q 139 690 96 663 q 249 734 182 718 q 410 750 315 750 q 619 719 525 750 q 771 646 713 688 l 715 563 q 586 626 658 599 q 410 653 514 653 q 300 629 336 653 q 264 569 264 606 z "},"t":{"ha":701,"x_min":28,"x_max":688,"o":"m 160 625 l 28 625 l 28 722 l 160 722 l 160 944 l 354 944 l 354 722 l 569 722 l 569 625 l 354 625 l 354 264 q 366 174 354 211 q 398 115 378 138 q 444 81 418 92 q 500 69 471 69 q 581 83 542 69 q 646 111 619 96 l 688 21 q 592 -14 646 0 q 486 -28 539 -28 q 244 50 329 -28 q 160 264 160 128 l 160 625 z "},"u":{"ha":958,"x_min":97,"x_max":861,"o":"m 97 722 l 292 722 l 292 285 q 342 141 292 185 q 486 97 392 97 l 667 97 l 667 722 l 861 722 l 861 0 l 486 0 q 192 72 288 0 q 97 285 97 143 l 97 722 z "},"v":{"ha":889,"x_min":14,"x_max":875,"o":"m 597 0 l 292 0 l 14 722 l 208 722 l 438 118 l 451 118 l 681 722 l 875 722 l 597 0 z "},"w":{"ha":1306,"x_min":28,"x_max":1278,"o":"m 903 132 l 917 132 l 1076 722 l 1278 722 l 1083 0 l 792 0 l 660 500 l 646 500 l 514 0 l 222 0 l 28 722 l 229 722 l 389 132 l 403 132 l 542 653 l 764 653 l 903 132 z "},"x":{"ha":833,"x_min":0,"x_max":833,"o":"m 528 365 l 833 0 l 611 0 l 417 232 l 222 0 l 0 0 l 306 365 l 7 722 l 229 722 l 417 497 l 604 722 l 826 722 l 528 365 z "},"y":{"ha":958,"x_min":97,"x_max":861,"o":"m 667 28 l 486 28 q 192 99 288 28 q 97 313 97 171 l 97 722 l 292 722 l 292 313 q 342 169 292 213 q 486 125 392 125 l 667 125 l 667 722 l 861 722 l 861 14 q 836 -105 861 -51 q 762 -197 811 -158 q 638 -257 713 -236 q 465 -278 564 -278 q 394 -273 432 -278 q 317 -258 356 -268 q 241 -231 278 -247 q 174 -194 204 -215 l 229 -111 q 335 -162 276 -143 q 451 -181 393 -181 q 611 -133 556 -181 q 667 14 667 -86 l 667 28 z "},"z":{"ha":819,"x_min":49,"x_max":771,"o":"m 771 97 l 771 0 l 49 0 l 49 111 l 528 625 l 63 625 l 63 722 l 757 722 l 757 611 l 278 97 l 771 97 z "},"Æ":{"ha":1646,"x_min":0,"x_max":1604,"o":"m 986 868 l 986 549 l 1465 549 l 1465 444 l 986 444 l 986 104 l 1604 104 l 1604 0 l 785 0 l 785 236 l 304 236 l 201 0 l 0 0 l 424 972 l 1604 972 l 1604 868 l 986 868 m 347 340 l 785 340 l 785 868 l 576 868 l 347 340 z "},"§":{"ha":951,"x_min":83,"x_max":868,"o":"m 97 764 q 119 853 97 811 q 188 928 142 896 q 302 981 233 961 q 465 1000 371 1000 q 687 969 592 1000 q 840 896 782 938 l 785 813 q 724 847 756 831 q 653 876 692 864 q 569 896 615 889 q 465 903 522 903 q 349 871 392 903 q 306 792 306 839 q 339 714 306 744 q 451 660 372 683 l 653 597 q 810 508 753 565 q 868 368 868 451 q 833 249 868 301 q 729 160 797 196 q 868 -28 868 96 q 845 -126 868 -81 q 774 -205 822 -171 q 651 -258 726 -239 q 472 -278 576 -278 q 244 -247 346 -278 q 83 -174 142 -215 l 139 -90 q 277 -153 197 -126 q 472 -181 357 -181 q 613 -145 567 -181 q 660 -62 660 -110 q 624 10 660 -21 q 500 69 589 42 l 299 132 q 141 222 199 164 q 83 368 83 279 q 116 484 83 431 q 222 569 149 538 q 128 651 160 601 q 97 764 97 701 m 292 403 q 324 317 292 350 q 424 264 356 285 l 583 215 q 640 260 619 231 q 660 325 660 289 q 628 411 660 378 q 528 465 596 444 l 368 514 q 312 472 332 499 q 292 403 292 444 z "},"¬":{"ha":750,"x_min":56,"x_max":694,"o":"m 694 257 l 556 257 l 556 424 l 56 424 l 56 549 l 694 549 l 694 257 z "},"±":{"ha":778,"x_min":56,"x_max":722,"o":"m 458 250 l 319 250 l 319 444 l 56 444 l 56 569 l 319 569 l 319 819 l 458 819 l 458 569 l 722 569 l 722 444 l 458 444 l 458 250 m 708 83 l 69 83 l 69 208 l 708 208 l 708 83 z "},"ª":{"ha":701,"x_min":69,"x_max":632,"o":"m 347 403 q 138 450 206 403 q 69 576 69 497 q 138 703 69 656 q 347 750 206 750 l 479 750 q 447 868 479 833 q 347 903 415 903 q 253 886 306 903 q 153 833 200 869 l 111 903 q 228 965 169 944 q 354 986 286 986 q 564 926 496 986 q 632 750 632 865 l 632 403 l 347 403 m 479 486 l 479 667 l 347 667 q 265 642 294 667 q 236 576 236 618 q 265 510 236 535 q 347 486 294 486 l 479 486 z "},"º":{"ha":722,"x_min":69,"x_max":653,"o":"m 361 903 q 272 855 308 903 q 236 688 236 807 q 272 520 236 568 q 361 472 308 472 q 410 483 388 472 q 450 520 433 494 q 476 587 467 546 q 486 688 486 628 q 476 788 486 747 q 450 855 467 829 q 410 892 433 881 q 361 903 388 903 m 361 986 q 575 913 497 986 q 653 688 653 839 q 575 463 653 536 q 361 389 497 389 q 147 463 225 389 q 69 688 69 536 q 147 913 69 839 q 361 986 225 986 z "},"¹":{"ha":389,"x_min":14,"x_max":319,"o":"m 319 972 l 319 403 l 167 403 l 167 861 l 56 806 l 14 875 l 181 972 l 319 972 z "},"²":{"ha":653,"x_min":56,"x_max":583,"o":"m 576 486 l 576 403 l 69 403 l 69 493 l 340 688 q 397 742 376 714 q 417 806 417 769 q 389 875 417 847 q 299 903 361 903 q 198 886 251 903 q 97 833 144 869 l 56 903 q 173 965 114 944 q 306 986 232 986 q 517 934 451 986 q 583 799 583 882 q 572 739 583 765 q 542 690 561 713 q 495 647 522 668 q 438 604 468 626 l 271 486 l 576 486 z "},"³":{"ha":688,"x_min":56,"x_max":618,"o":"m 424 813 q 396 876 424 849 q 306 903 368 903 q 206 886 258 903 q 106 833 153 869 l 63 903 q 180 965 121 944 q 313 986 239 986 q 435 973 383 986 q 522 938 488 960 q 573 886 556 915 q 590 826 590 857 q 558 737 590 768 q 472 694 525 706 q 576 645 535 679 q 618 549 618 611 q 601 488 618 517 q 549 438 585 460 q 457 402 514 415 q 319 389 400 389 q 177 410 240 389 q 56 472 114 431 l 97 542 q 199 489 144 506 q 313 472 254 472 q 421 499 390 472 q 451 563 451 526 q 425 620 451 594 q 340 646 399 646 l 194 646 l 194 729 l 326 729 q 401 753 379 729 q 424 813 424 776 z "},"⁴":{"ha":706,"x_min":42,"x_max":650,"o":"m 431 611 l 431 833 l 424 833 l 196 611 l 431 611 m 650 611 l 650 528 l 583 528 l 583 403 l 431 403 l 431 528 l 42 528 l 42 617 l 403 972 l 583 972 l 583 611 l 650 611 z "},"¸":{"ha":438,"x_min":61,"x_max":382,"o":"m 215 -333 q 153 -327 181 -333 q 104 -312 125 -321 q 61 -292 79 -304 l 89 -222 q 119 -236 104 -231 q 151 -246 133 -242 q 188 -250 168 -250 q 253 -236 235 -250 q 271 -201 271 -222 q 253 -167 271 -181 q 188 -153 235 -153 l 125 -153 l 125 0 l 236 0 l 236 -69 q 343 -107 304 -75 q 382 -201 382 -139 q 338 -299 382 -264 q 215 -333 294 -333 z "},"µ":{"ha":958,"x_min":97,"x_max":861,"o":"m 292 396 q 314 267 292 322 q 371 174 336 211 q 447 117 406 136 q 528 97 489 97 l 667 97 l 667 722 l 861 722 l 861 0 l 500 0 q 412 11 450 0 q 346 38 374 22 q 292 76 314 54 l 292 -250 l 97 -250 l 97 722 l 292 722 l 292 396 z "},"·":{"ha":500,"x_min":146,"x_max":354,"o":"m 354 486 q 326 413 354 444 q 250 382 297 382 q 174 413 203 382 q 146 486 146 444 q 174 559 146 528 q 250 590 203 590 q 325 559 296 590 q 354 486 354 528 z "},"¶":{"ha":972,"x_min":42,"x_max":944,"o":"m 944 972 l 944 875 l 840 875 l 840 -250 l 674 -250 l 674 875 l 576 875 l 576 -250 l 410 -250 l 410 333 q 267 354 335 333 q 150 415 200 375 q 71 515 100 456 q 42 653 42 575 q 71 790 42 731 q 150 890 100 850 q 267 951 200 931 q 410 972 335 972 l 944 972 z "},"¿":{"ha":903,"x_min":42,"x_max":889,"o":"m 500 -160 q 660 -131 574 -160 q 826 -35 747 -103 l 889 -118 q 706 -225 810 -186 q 486 -264 601 -264 q 290 -240 374 -264 q 152 -173 207 -215 q 69 -74 97 -131 q 42 49 42 -17 q 140 260 42 179 q 410 361 238 340 l 410 444 l 590 444 l 590 257 q 431 241 496 257 q 326 197 367 225 q 268 131 286 169 q 250 49 250 93 q 267 -34 250 4 q 315 -100 283 -72 q 394 -144 347 -128 q 500 -160 440 -160 m 396 632 q 424 705 396 674 q 500 736 453 736 q 576 705 547 736 q 604 632 604 674 q 576 559 604 590 q 500 528 547 528 q 425 559 454 528 q 396 632 396 590 z "},"¼":{"ha":1289,"x_min":56,"x_max":1233,"o":"m 1049 972 l 354 0 l 181 0 l 875 972 l 1049 972 m 361 972 l 361 403 l 208 403 l 208 861 l 97 806 l 56 875 l 222 972 l 361 972 m 1014 208 l 1014 431 l 1007 431 l 779 208 l 1014 208 m 1233 208 l 1233 125 l 1167 125 l 1167 0 l 1014 0 l 1014 125 l 625 125 l 625 214 l 986 569 l 1167 569 l 1167 208 l 1233 208 z "},"¾":{"ha":1406,"x_min":56,"x_max":1350,"o":"m 1207 972 l 513 0 l 339 0 l 1033 972 l 1207 972 m 424 813 q 396 876 424 849 q 306 903 368 903 q 206 886 258 903 q 106 833 153 869 l 63 903 q 180 965 121 944 q 313 986 239 986 q 435 973 383 986 q 522 938 488 960 q 573 886 556 915 q 590 826 590 857 q 558 737 590 768 q 472 694 525 706 q 576 645 535 679 q 618 549 618 611 q 601 488 618 517 q 549 438 585 460 q 457 402 514 415 q 319 389 400 389 q 177 410 240 389 q 56 472 114 431 l 97 542 q 199 489 144 506 q 313 472 254 472 q 421 499 390 472 q 451 563 451 526 q 425 620 451 594 q 340 646 399 646 l 194 646 l 194 729 l 326 729 q 401 753 379 729 q 424 813 424 776 m 1131 208 l 1131 431 l 1124 431 l 896 208 l 1131 208 m 1350 208 l 1350 125 l 1283 125 l 1283 0 l 1131 0 l 1131 125 l 742 125 l 742 214 l 1103 569 l 1283 569 l 1283 208 l 1350 208 z "},"½":{"ha":1368,"x_min":56,"x_max":1313,"o":"m 1049 972 l 354 0 l 181 0 l 875 972 l 1049 972 m 361 972 l 361 403 l 208 403 l 208 861 l 97 806 l 56 875 l 222 972 l 361 972 m 1306 83 l 1306 0 l 799 0 l 799 90 l 1069 285 q 1126 339 1106 311 q 1146 403 1146 367 q 1118 472 1146 444 q 1028 500 1090 500 q 927 483 981 500 q 826 431 874 467 l 785 500 q 902 563 843 542 q 1035 583 961 583 q 1247 531 1181 583 q 1313 396 1313 479 q 1301 336 1313 363 q 1271 288 1290 310 q 1224 244 1251 265 q 1167 201 1197 224 l 1000 83 l 1306 83 z "},"×":{"ha":750,"x_min":69,"x_max":681,"o":"m 681 243 l 576 139 l 375 340 l 174 139 l 69 243 l 278 451 l 69 660 l 174 764 l 375 563 l 576 764 l 681 660 l 472 451 l 681 243 z "},"Ð":{"ha":1208,"x_min":28,"x_max":1153,"o":"m 597 972 q 824 941 722 972 q 999 849 926 910 q 1113 697 1072 788 q 1153 486 1153 606 q 1113 276 1153 367 q 999 124 1072 185 q 824 31 926 63 q 597 0 722 0 l 139 0 l 139 431 l 28 431 l 28 556 l 139 556 l 139 972 l 597 972 m 569 431 l 340 431 l 340 104 l 597 104 q 730 126 668 104 q 838 194 792 147 q 910 313 883 240 q 938 486 938 385 q 910 660 938 588 q 838 778 883 732 q 730 847 792 825 q 597 868 668 868 l 340 868 l 340 556 l 569 556 l 569 431 z "},"Œ":{"ha":1688,"x_min":56,"x_max":1646,"o":"m 1646 972 l 1646 868 l 1028 868 l 1028 549 l 1507 549 l 1507 444 l 1028 444 l 1028 104 l 1646 104 l 1646 0 l 611 0 q 383 31 486 0 q 208 124 281 63 q 95 276 135 185 q 56 486 56 367 q 95 697 56 606 q 208 849 135 788 q 383 941 281 910 q 611 972 486 972 l 1646 972 m 611 868 q 478 847 540 868 q 371 778 417 825 q 298 660 325 732 q 271 486 271 588 q 298 313 271 385 q 371 194 325 240 q 478 126 417 147 q 611 104 540 104 l 826 104 l 826 868 l 611 868 z "},"Ø":{"ha":1250,"x_min":69,"x_max":1181,"o":"m 1056 944 l 1008 883 q 1136 719 1092 818 q 1181 486 1181 619 q 1140 265 1181 361 q 1027 104 1100 169 q 852 6 954 39 q 625 -28 750 -28 q 474 -14 544 -28 q 344 26 404 0 l 292 -42 l 194 28 l 240 88 q 114 253 158 154 q 69 486 69 351 q 109 707 69 611 q 222 868 149 803 q 397 967 294 933 q 625 1000 500 1000 q 774 986 704 1000 q 906 946 844 972 l 958 1014 l 1056 944 m 965 486 q 949 635 965 569 q 903 749 932 700 l 426 132 q 625 69 510 69 q 758 94 696 69 q 865 171 819 119 q 938 301 911 222 q 965 486 965 379 m 625 903 q 492 878 554 903 q 385 801 431 853 q 312 672 339 750 q 285 486 285 593 q 301 338 285 403 q 346 224 317 272 l 824 839 q 625 903 739 903 z "},"þ":{"ha":951,"x_min":97,"x_max":889,"o":"m 465 722 q 640 697 561 722 q 774 625 718 672 q 859 511 829 578 q 889 361 889 444 q 859 211 889 278 q 774 97 829 144 q 640 25 718 50 q 465 0 561 0 l 292 0 l 292 -250 l 97 -250 l 97 972 l 292 972 l 292 722 l 465 722 m 292 625 l 292 97 l 465 97 q 552 112 513 97 q 620 158 592 126 q 665 240 649 190 q 681 361 681 290 q 665 482 681 432 q 620 564 649 532 q 552 610 592 596 q 465 625 513 625 l 292 625 z "},"Þ":{"ha":1125,"x_min":97,"x_max":1069,"o":"m 576 875 q 780 847 689 875 q 935 769 871 819 q 1035 647 1000 718 q 1069 486 1069 575 q 1035 326 1069 397 q 935 203 1000 254 q 780 125 871 153 q 576 97 689 97 l 299 97 l 299 -14 l 97 -14 l 97 986 l 299 986 l 299 875 l 576 875 m 299 771 l 299 201 l 576 201 q 684 219 633 201 q 772 271 735 236 q 832 359 810 306 q 854 486 854 413 q 832 613 854 558 q 772 701 810 667 q 684 753 735 736 q 576 771 633 771 l 299 771 z "},"æ":{"ha":1479,"x_min":49,"x_max":1417,"o":"m 1063 69 q 1190 93 1131 69 q 1306 160 1249 117 l 1361 76 q 1299 33 1335 53 q 1223 1 1264 14 q 1138 -20 1182 -12 q 1049 -28 1093 -28 q 854 6 933 -28 q 722 97 775 39 q 596 6 675 39 q 417 -28 517 -28 q 144 29 239 -28 q 49 201 49 86 q 144 374 49 317 q 417 431 239 431 l 611 431 q 559 601 611 550 q 424 653 507 653 q 301 634 361 653 q 194 583 242 615 l 146 667 q 213 703 176 688 q 289 728 250 718 q 366 744 328 739 q 438 750 404 750 q 609 717 538 750 q 722 632 681 685 q 840 717 769 685 q 1014 750 910 750 q 1176 725 1103 750 q 1303 654 1250 700 q 1387 544 1357 608 q 1417 403 1417 481 l 1417 306 l 822 306 q 846 195 826 240 q 897 122 865 150 q 971 82 929 94 q 1063 69 1013 69 m 1014 660 q 941 644 975 660 q 881 596 907 628 q 838 516 854 564 q 821 403 822 468 l 1208 403 q 1153 597 1208 533 q 1014 660 1097 660 m 611 333 l 417 333 q 303 301 349 333 q 257 200 257 269 q 269 142 257 167 q 301 101 281 118 q 347 77 321 85 q 403 69 374 69 q 485 85 447 69 q 551 128 524 100 q 595 198 579 157 q 611 292 611 239 l 611 333 z "},"÷":{"ha":750,"x_min":42,"x_max":708,"o":"m 708 389 l 42 389 l 42 514 l 708 514 l 708 389 m 271 701 q 299 774 271 743 q 375 806 328 806 q 451 774 422 806 q 479 701 479 743 q 451 628 479 660 q 375 597 422 597 q 300 628 329 597 q 271 701 271 660 m 271 201 q 299 274 271 243 q 375 306 328 306 q 451 274 422 306 q 479 201 479 243 q 451 128 479 160 q 375 97 422 97 q 300 128 329 97 q 271 201 271 160 z "},"ß":{"ha":965,"x_min":97,"x_max":910,"o":"m 701 208 q 683 267 701 243 q 636 312 664 292 q 576 350 608 332 q 517 390 544 368 q 470 439 489 411 q 451 507 451 467 q 470 581 451 551 q 510 640 489 611 q 551 699 532 668 q 569 778 569 731 q 533 869 569 836 q 444 903 497 903 q 388 891 415 903 q 340 855 361 879 q 305 794 318 831 q 292 708 292 758 l 292 0 l 97 0 l 97 708 q 123 827 97 774 q 195 919 149 881 q 306 979 242 958 q 444 1000 369 1000 q 578 983 517 1000 q 684 934 640 965 q 753 859 728 903 q 778 764 778 815 q 755 672 778 707 q 705 614 732 638 q 655 570 678 590 q 632 521 632 550 q 653 482 632 499 q 704 449 674 465 q 771 415 735 433 q 838 372 807 397 q 889 310 868 346 q 910 222 910 274 q 890 127 910 172 q 833 48 871 82 q 737 -7 794 14 q 604 -28 679 -28 q 527 -21 568 -28 q 444 7 486 -14 l 472 97 q 522 78 493 86 q 576 69 550 69 q 665 105 629 69 q 701 208 701 140 z "},"ø":{"ha":972,"x_min":63,"x_max":910,"o":"m 847 688 l 804 638 q 882 519 854 589 q 910 361 910 450 q 878 194 910 267 q 792 73 847 122 q 658 -2 736 24 q 486 -28 579 -28 q 265 17 361 -28 l 215 -42 l 125 35 l 168 85 q 90 203 117 133 q 63 361 63 272 q 94 527 63 454 q 181 649 125 600 q 314 724 236 699 q 486 750 392 750 q 706 704 611 750 l 757 764 l 847 688 m 486 63 q 569 79 531 63 q 638 131 608 96 q 684 224 667 167 q 701 361 701 281 q 697 436 701 401 q 683 499 692 471 l 350 114 q 413 74 378 86 q 486 63 447 63 m 271 361 q 288 222 271 281 l 622 608 q 486 660 567 660 q 403 643 442 660 q 335 591 364 626 q 288 499 306 556 q 271 361 271 442 z "},"ð":{"ha":958,"x_min":63,"x_max":896,"o":"m 563 1069 l 528 947 q 695 871 625 915 q 810 767 765 826 q 875 633 854 708 q 896 465 896 558 l 896 347 q 865 189 896 258 q 778 72 833 119 q 647 -2 724 24 q 479 -28 571 -28 q 311 -3 388 -28 q 180 68 235 22 q 94 178 125 114 q 63 319 63 242 q 93 461 63 397 q 178 571 124 525 q 306 642 232 617 q 465 667 379 667 q 649 626 575 667 q 764 507 722 586 q 736 621 756 571 q 684 708 717 671 q 604 773 651 746 q 493 819 557 800 l 458 694 l 340 722 l 375 847 l 222 875 l 250 1014 l 382 986 q 397 982 389 983 q 411 979 404 981 l 444 1097 l 563 1069 m 479 569 q 400 553 438 569 q 333 506 363 538 q 288 428 304 475 q 271 319 271 382 q 288 206 271 254 q 333 126 304 158 q 400 78 363 94 q 479 63 438 63 q 558 78 521 63 q 625 126 596 94 q 671 206 654 158 q 688 319 688 254 q 671 428 688 382 q 625 506 654 475 q 558 553 596 538 q 479 569 521 569 z "},"`":{"ha":342,"x_min":28,"x_max":314,"o":"m 224 1000 l 314 722 l 182 722 l 28 1000 l 224 1000 z "},"|":{"ha":396,"x_min":97,"x_max":299,"o":"m 97 972 l 299 972 l 299 -250 l 97 -250 l 97 972 z "},"~":{"ha":701,"x_min":28,"x_max":674,"o":"m 28 363 q 44 444 31 406 q 83 513 58 483 q 143 559 108 542 q 222 576 178 576 q 301 561 267 576 q 363 528 335 546 q 417 494 392 510 q 472 479 443 479 q 542 507 519 479 q 576 576 565 535 l 674 540 q 657 457 671 496 q 618 389 643 418 q 558 343 593 360 q 479 326 524 326 q 401 342 435 326 q 338 375 367 357 q 284 408 310 393 q 229 424 258 424 q 159 396 182 424 q 125 326 136 368 l 28 363 z "},"˜":{"ha":569,"x_min":56,"x_max":514,"o":"m 56 828 q 65 898 56 864 q 91 958 74 932 q 135 999 108 983 q 194 1015 161 1015 q 249 1002 225 1015 q 291 974 272 989 q 326 945 310 958 q 361 932 343 932 q 399 957 388 932 q 417 1008 411 982 l 514 994 q 505 924 514 958 q 478 864 496 890 q 435 822 461 838 q 375 807 408 807 q 320 820 343 807 q 278 849 297 833 q 243 877 260 864 q 208 890 226 890 q 170 865 182 890 q 153 814 158 840 l 56 828 z "},"ĳ":{"ha":792,"x_min":97,"x_max":694,"o":"m 688 0 q 668 -110 688 -60 q 612 -199 649 -161 q 521 -257 575 -236 q 396 -278 467 -278 q 319 -271 360 -278 q 236 -243 278 -264 l 264 -153 q 313 -172 285 -164 q 368 -181 342 -181 q 417 -171 394 -181 q 457 -140 440 -161 q 483 -84 474 -118 q 493 0 493 -50 l 493 611 l 299 611 l 299 0 l 104 0 l 104 708 l 688 708 l 688 0 m 694 896 q 666 823 694 854 q 590 792 638 792 q 515 823 543 792 q 486 896 486 854 q 515 969 486 938 q 590 1000 543 1000 q 665 969 636 1000 q 694 896 694 938 m 306 896 q 277 823 306 854 q 201 792 249 792 q 126 823 154 792 q 97 896 97 854 q 126 969 97 938 q 201 1000 154 1000 q 276 969 247 1000 q 306 896 306 938 z "},"ˆ":{"ha":613,"x_min":56,"x_max":557,"o":"m 382 1028 l 557 806 l 411 806 l 306 931 l 201 806 l 56 806 l 229 1028 l 382 1028 z "},".":{"ha":347,"x_min":69,"x_max":278,"o":"m 278 90 q 249 17 278 49 q 174 -14 221 -14 q 98 17 126 -14 q 69 90 69 49 q 98 163 69 132 q 174 194 126 194 q 249 163 219 194 q 278 90 278 132 z "},",":{"ha":354,"x_min":69,"x_max":285,"o":"m 285 63 q 268 -31 285 8 q 225 -97 251 -71 q 165 -134 199 -122 q 97 -146 131 -146 l 97 -97 q 165 -73 133 -97 q 201 -7 196 -49 q 192 -11 197 -10 q 167 -14 181 -14 q 97 17 125 -14 q 69 90 69 49 q 98 163 69 132 q 174 194 126 194 q 256 155 226 194 q 285 63 285 115 z "},";":{"ha":354,"x_min":69,"x_max":285,"o":"m 285 63 q 268 -31 285 8 q 225 -97 251 -71 q 165 -134 199 -122 q 97 -146 131 -146 l 97 -97 q 165 -73 133 -97 q 201 -7 196 -49 q 192 -11 197 -10 q 167 -14 181 -14 q 97 17 125 -14 q 69 90 69 49 q 98 163 69 132 q 174 194 126 194 q 256 155 226 194 q 285 63 285 115 m 278 632 q 249 559 278 590 q 174 528 221 528 q 98 559 126 528 q 69 632 69 590 q 98 705 69 674 q 174 736 126 736 q 249 705 219 736 q 278 632 278 674 z "},":":{"ha":347,"x_min":69,"x_max":278,"o":"m 278 90 q 249 17 278 49 q 174 -14 221 -14 q 98 17 126 -14 q 69 90 69 49 q 98 163 69 132 q 174 194 126 194 q 249 163 219 194 q 278 90 278 132 m 278 632 q 249 559 278 590 q 174 528 221 528 q 98 559 126 528 q 69 632 69 590 q 98 705 69 674 q 174 736 126 736 q 249 705 219 736 q 278 632 278 674 z "},"!":{"ha":389,"x_min":83,"x_max":306,"o":"m 104 278 l 83 972 l 306 972 l 286 278 l 104 278 m 299 90 q 270 17 299 49 q 194 -14 242 -14 q 119 17 147 -14 q 90 90 90 49 q 119 163 90 132 q 194 194 147 194 q 269 163 240 194 q 299 90 299 132 z "},"”":{"ha":632,"x_min":69,"x_max":563,"o":"m 285 854 q 268 760 285 800 q 225 695 251 721 q 165 658 199 669 q 97 646 131 646 l 97 694 q 165 719 133 694 q 201 785 196 743 q 192 781 197 782 q 167 778 181 778 q 97 809 125 778 q 69 882 69 840 q 98 955 69 924 q 174 986 126 986 q 256 947 226 986 q 285 854 285 907 m 563 854 q 546 760 563 800 q 503 695 529 721 q 442 658 476 669 q 375 646 408 646 l 375 694 q 442 719 411 694 q 479 785 474 743 q 469 781 475 782 q 444 778 458 778 q 375 809 403 778 q 347 882 347 840 q 376 955 347 924 q 451 986 404 986 q 533 947 504 986 q 563 854 563 907 z "},"“":{"ha":632,"x_min":69,"x_max":563,"o":"m 347 778 q 364 872 347 832 q 407 937 381 911 q 467 974 433 963 q 535 986 501 986 l 535 938 q 467 913 499 938 q 431 847 436 889 q 440 850 435 849 q 451 853 444 851 q 465 854 457 854 q 535 823 507 854 q 563 750 563 792 q 534 677 563 708 q 458 646 506 646 q 376 685 406 646 q 347 778 347 725 m 69 778 q 86 872 69 832 q 129 937 103 911 q 190 974 156 963 q 257 986 224 986 l 257 938 q 190 913 221 938 q 153 847 158 889 q 163 850 157 849 q 173 853 167 851 q 188 854 179 854 q 257 823 229 854 q 285 750 285 792 q 256 677 285 708 q 181 646 228 646 q 99 685 128 646 q 69 778 69 725 z "},"„":{"ha":632,"x_min":69,"x_max":563,"o":"m 285 63 q 268 -31 285 8 q 225 -97 251 -71 q 165 -134 199 -122 q 97 -146 131 -146 l 97 -97 q 165 -73 133 -97 q 201 -7 196 -49 q 192 -11 197 -10 q 167 -14 181 -14 q 97 17 125 -14 q 69 90 69 49 q 98 163 69 132 q 174 194 126 194 q 256 155 226 194 q 285 63 285 115 m 563 63 q 546 -31 563 8 q 503 -97 529 -71 q 442 -134 476 -122 q 375 -146 408 -146 l 375 -97 q 442 -73 411 -97 q 479 -7 474 -49 q 469 -11 475 -10 q 444 -14 458 -14 q 375 17 403 -14 q 347 90 347 49 q 376 163 347 132 q 451 194 404 194 q 533 155 504 194 q 563 63 563 115 z "},"#":{"ha":1111,"x_min":28,"x_max":1083,"o":"m 408 340 l 674 340 l 704 604 l 439 604 l 408 340 m 717 708 l 749 972 l 942 972 l 911 708 l 1083 708 l 1071 604 l 899 604 l 868 340 l 1040 340 l 1028 236 l 856 236 l 828 0 l 633 0 l 661 236 l 396 236 l 368 0 l 174 0 l 201 236 l 28 236 l 40 340 l 214 340 l 244 604 l 71 604 l 83 708 l 257 708 l 288 972 l 482 972 l 451 708 l 717 708 z "},"$":{"ha":1042,"x_min":42,"x_max":1000,"o":"m 1000 257 q 978 152 1000 201 q 909 65 957 103 q 784 4 861 28 q 597 -25 707 -19 l 597 -139 l 444 -139 l 444 -24 q 215 28 321 -12 q 42 132 108 69 l 111 215 q 296 112 190 147 q 528 76 401 76 q 726 115 668 76 q 785 215 785 153 q 739 310 785 272 q 583 382 693 347 l 319 465 q 122 572 189 507 q 56 736 56 636 q 78 832 56 786 q 147 914 100 878 q 268 973 194 950 q 444 999 342 996 l 444 1111 l 597 1111 l 597 992 q 796 938 703 976 q 951 840 889 899 l 882 757 q 704 860 803 825 q 479 896 606 896 q 323 860 375 896 q 271 778 271 825 q 281 723 271 746 q 313 681 290 700 q 374 646 336 663 q 467 611 411 629 l 729 528 q 928 422 856 488 q 1000 257 1000 357 z "},"%":{"ha":1174,"x_min":42,"x_max":1132,"o":"m 1035 972 l 340 0 l 139 0 l 833 972 l 1035 972 m 889 431 q 985 416 940 431 q 1063 373 1031 401 q 1113 301 1094 344 q 1132 201 1132 258 q 1113 101 1132 144 q 1063 30 1094 58 q 985 -13 1031 1 q 889 -28 940 -28 q 792 -13 836 -28 q 715 30 747 1 q 665 101 683 58 q 646 201 646 144 q 665 301 646 258 q 715 373 683 344 q 792 416 747 401 q 889 431 836 431 m 889 49 q 952 83 925 49 q 979 201 979 118 q 952 319 979 285 q 889 354 925 354 q 826 319 853 354 q 799 201 799 285 q 826 83 799 118 q 889 49 853 49 m 285 1000 q 381 985 336 1000 q 458 942 426 971 q 509 871 490 914 q 528 771 528 828 q 509 671 528 714 q 458 599 490 628 q 381 556 426 571 q 285 542 336 542 q 188 556 232 542 q 111 599 143 571 q 60 671 79 628 q 42 771 42 714 q 60 871 42 828 q 111 942 79 914 q 188 985 143 971 q 285 1000 232 1000 m 285 618 q 348 653 321 618 q 375 771 375 688 q 348 889 375 854 q 285 924 321 924 q 222 889 249 924 q 194 771 194 854 q 222 653 194 688 q 285 618 249 618 z "},"&":{"ha":1049,"x_min":42,"x_max":1035,"o":"m 111 764 q 132 857 111 814 q 196 932 153 900 q 304 982 239 964 q 458 1000 369 1000 q 613 982 547 1000 q 721 932 678 964 q 785 857 764 900 q 806 764 806 814 q 786 672 806 714 q 734 595 767 631 q 659 531 701 560 q 569 479 617 503 l 806 285 q 840 378 826 326 q 854 486 854 431 l 993 486 q 972 331 993 403 q 910 201 951 260 l 1035 97 l 938 -28 l 799 83 q 639 1 731 31 q 438 -28 547 -28 q 262 -6 336 -28 q 138 51 188 15 q 65 131 89 86 q 42 222 42 175 q 61 319 42 276 q 114 394 81 361 q 191 453 147 428 q 285 500 235 479 q 219 554 251 526 q 164 614 188 582 q 126 683 140 646 q 111 764 111 719 m 465 69 q 600 94 539 69 q 708 158 661 118 l 403 410 q 299 329 340 378 q 257 222 257 281 q 271 166 257 193 q 312 117 285 139 q 377 83 339 96 q 465 69 415 69 m 458 576 q 559 662 521 613 q 597 764 597 711 q 559 871 597 832 q 458 910 521 910 q 358 871 396 910 q 319 764 319 832 q 358 662 319 711 q 458 576 396 613 z "},"(":{"ha":438,"x_min":69,"x_max":438,"o":"m 271 417 q 313 87 271 229 q 438 -181 354 -56 l 382 -229 q 150 70 231 -99 q 69 417 69 239 q 150 763 69 594 q 382 1063 231 932 l 438 1014 q 313 747 354 889 q 271 417 271 604 z "},")":{"ha":438,"x_min":0,"x_max":368,"o":"m 167 417 q 125 747 167 604 q 0 1014 83 889 l 56 1063 q 288 763 207 932 q 368 417 368 594 q 288 70 368 239 q 56 -229 207 -99 l 0 -181 q 125 87 83 -56 q 167 417 167 229 z "},"‹":{"ha":542,"x_min":42,"x_max":528,"o":"m 528 111 l 424 0 l 42 361 l 424 722 l 528 611 l 264 361 l 528 111 z "},"›":{"ha":542,"x_min":42,"x_max":528,"o":"m 306 361 l 42 611 l 146 722 l 528 361 l 146 0 l 42 111 l 306 361 z "},"«":{"ha":826,"x_min":14,"x_max":785,"o":"m 486 111 l 382 0 l 14 361 l 382 722 l 486 611 l 229 361 l 486 111 m 785 160 l 681 49 l 361 361 l 681 674 l 785 563 l 576 361 l 785 160 z "},"»":{"ha":833,"x_min":42,"x_max":813,"o":"m 597 361 l 340 611 l 444 722 l 813 361 l 444 0 l 340 111 l 597 361 m 250 361 l 42 563 l 146 674 l 465 361 l 146 49 l 42 160 l 250 361 z "},"ŀ":{"ha":653,"x_min":97,"x_max":597,"o":"m 292 0 l 97 0 l 97 972 l 292 972 l 292 0 m 597 486 q 569 413 597 444 q 493 382 540 382 q 417 413 446 382 q 389 486 389 444 q 417 559 389 528 q 493 590 446 590 q 568 559 539 590 q 597 486 597 528 z "},"Ł":{"ha":972,"x_min":28,"x_max":944,"o":"m 146 544 l 146 972 l 347 972 l 347 619 l 507 681 l 507 542 l 347 481 l 347 104 l 944 104 l 944 0 l 146 0 l 146 406 l 28 361 l 28 500 l 146 544 z "},"ł":{"ha":535,"x_min":28,"x_max":507,"o":"m 354 622 l 507 681 l 507 542 l 354 483 l 354 0 l 160 0 l 160 411 l 28 361 l 28 500 l 160 550 l 160 972 l 354 972 l 354 622 z "},"´":{"ha":363,"x_min":56,"x_max":335,"o":"m 335 1014 l 188 806 l 56 806 l 139 1014 l 335 1014 z "},"•":{"ha":528,"x_min":97,"x_max":431,"o":"m 431 417 q 384 297 431 343 q 264 250 338 250 q 144 297 190 250 q 97 417 97 343 q 144 537 97 490 q 264 583 190 583 q 384 537 338 583 q 431 417 431 490 z "},"œ":{"ha":1569,"x_min":63,"x_max":1507,"o":"m 1153 69 q 1280 93 1221 69 q 1396 160 1339 117 l 1451 76 q 1390 33 1425 53 q 1313 1 1354 14 q 1228 -20 1272 -12 q 1139 -28 1183 -28 q 941 7 1024 -28 q 806 104 858 42 q 674 7 753 42 q 486 -28 594 -28 q 314 -2 392 -28 q 181 73 236 24 q 94 194 125 122 q 63 361 63 267 q 94 527 63 454 q 181 649 125 600 q 314 724 236 699 q 486 750 392 750 q 672 715 590 750 q 806 618 753 681 q 928 715 853 681 q 1104 750 1004 750 q 1261 725 1188 750 q 1389 652 1335 700 q 1475 536 1443 604 q 1507 382 1507 468 l 1507 285 l 914 285 q 994 119 931 169 q 1153 69 1057 69 m 486 63 q 569 79 531 63 q 638 131 608 96 q 684 224 667 167 q 701 361 701 281 q 684 499 701 442 q 638 591 667 556 q 569 643 608 626 q 486 660 531 660 q 403 643 442 660 q 335 591 364 626 q 288 499 306 556 q 271 361 271 442 q 288 224 271 281 q 335 131 306 167 q 403 79 364 96 q 486 63 442 63 m 1104 660 q 1029 644 1064 660 q 969 596 994 629 q 927 510 943 563 q 910 382 911 457 l 1299 382 q 1282 507 1299 454 q 1238 594 1265 560 q 1176 644 1211 628 q 1104 660 1140 660 z "},"ˇ":{"ha":613,"x_min":56,"x_max":557,"o":"m 229 806 l 56 1028 l 201 1028 l 306 903 l 411 1028 l 557 1028 l 382 806 l 229 806 z "},"¢":{"ha":854,"x_min":63,"x_max":813,"o":"m 542 747 q 685 713 617 739 q 799 646 754 686 l 743 563 q 627 629 686 606 q 500 653 568 653 q 408 637 450 653 q 336 585 367 621 q 288 494 306 550 q 271 361 271 439 q 288 228 271 283 q 338 137 306 172 q 415 85 369 101 q 514 69 460 69 q 641 93 582 69 q 757 160 700 117 l 813 76 q 694 8 767 35 q 542 -25 621 -18 l 542 -139 l 389 -139 l 389 -18 q 150 103 238 7 q 63 361 63 200 q 85 507 63 442 q 151 620 108 572 q 255 699 194 668 q 389 742 315 729 l 389 861 l 542 861 l 542 747 z "},"£":{"ha":958,"x_min":56,"x_max":917,"o":"m 917 104 l 917 0 l 56 0 l 56 104 l 90 104 q 160 135 132 104 q 188 229 188 167 l 188 438 l 56 438 l 56 542 l 188 542 l 188 646 q 216 792 188 726 q 296 903 244 857 q 419 975 347 950 q 576 1000 490 1000 q 760 972 681 1000 q 903 903 840 944 l 847 813 q 734 872 794 849 q 590 896 674 896 q 515 883 551 896 q 451 842 479 871 q 406 765 422 813 q 389 646 389 717 l 389 542 l 729 542 l 729 438 l 389 438 l 389 229 q 381 172 389 196 q 362 134 372 149 q 343 112 351 119 q 333 104 335 104 l 917 104 z "},"¤":{"ha":917,"x_min":56,"x_max":861,"o":"m 757 632 q 787 569 775 606 q 799 486 799 533 q 785 403 799 439 q 757 340 772 367 l 861 236 l 750 125 l 646 229 q 560 188 610 203 q 458 174 511 174 q 356 188 406 174 q 271 229 307 203 l 167 125 l 56 236 l 160 340 q 131 403 144 367 q 118 486 118 439 q 130 569 118 533 q 160 632 142 606 l 56 736 l 167 847 l 271 743 q 356 784 307 769 q 458 799 406 799 q 560 784 511 799 q 646 743 610 769 l 750 847 l 861 736 l 757 632 m 611 486 q 566 642 611 590 q 458 694 521 694 q 351 642 396 694 q 306 486 306 590 q 351 330 306 382 q 458 278 396 278 q 566 330 521 278 q 611 486 611 382 z "},"¥":{"ha":1104,"x_min":0,"x_max":1104,"o":"m 875 139 l 653 139 l 653 0 l 451 0 l 451 139 l 229 139 l 229 236 l 451 236 l 451 292 l 432 319 l 229 319 l 229 417 l 368 417 l 0 972 l 222 972 l 549 479 l 556 479 l 882 972 l 1104 972 l 736 417 l 875 417 l 875 319 l 671 319 l 653 292 l 653 236 l 875 236 l 875 139 z "},"¦":{"ha":396,"x_min":97,"x_max":299,"o":"m 97 222 l 299 222 l 299 -250 l 97 -250 l 97 222 m 299 500 l 97 500 l 97 972 l 299 972 l 299 500 z "},"¨":{"ha":639,"x_min":56,"x_max":583,"o":"m 264 910 q 235 837 264 868 q 160 806 207 806 q 84 837 113 806 q 56 910 56 868 q 84 983 56 951 q 160 1014 113 1014 q 235 983 206 1014 q 264 910 264 951 m 583 910 q 555 837 583 868 q 479 806 526 806 q 403 837 432 806 q 375 910 375 868 q 403 983 375 951 q 479 1014 432 1014 q 554 983 525 1014 q 583 910 583 951 z "},"˚":{"ha":444,"x_min":56,"x_max":389,"o":"m 389 958 q 376 897 389 925 q 340 848 363 868 q 286 817 317 828 q 222 806 256 806 q 158 817 189 806 q 105 848 128 828 q 69 897 82 868 q 56 958 56 925 q 69 1020 56 992 q 105 1069 82 1049 q 158 1100 128 1089 q 222 1111 189 1111 q 286 1100 256 1111 q 340 1069 317 1089 q 376 1020 363 1049 q 389 958 389 992 m 285 958 q 267 1009 285 990 q 222 1028 249 1028 q 178 1009 196 1028 q 160 958 160 990 q 178 908 160 926 q 222 889 196 889 q 267 908 249 889 q 285 958 285 926 z "},"©":{"ha":1292,"x_min":69,"x_max":1222,"o":"m 222 486 q 255 313 222 390 q 345 182 288 236 q 480 99 403 128 q 646 69 557 69 q 812 99 735 69 q 946 182 889 128 q 1036 313 1003 236 q 1069 486 1069 390 q 1036 659 1069 582 q 946 790 1003 736 q 812 874 889 844 q 646 903 735 903 q 480 874 557 903 q 345 790 403 844 q 255 659 288 736 q 222 486 222 582 m 1222 486 q 1179 272 1222 369 q 1059 105 1136 175 q 876 -3 982 35 q 646 -42 771 -42 q 415 -3 521 -42 q 233 105 310 35 q 113 272 156 175 q 69 486 69 369 q 113 700 69 603 q 233 867 156 797 q 415 976 310 938 q 646 1014 521 1014 q 876 976 771 1014 q 1059 867 982 938 q 1179 700 1136 797 q 1222 486 1222 603 m 667 181 q 530 201 592 181 q 424 260 468 221 q 357 356 381 300 q 333 486 333 413 q 357 615 333 558 q 423 712 381 672 q 524 772 465 751 q 653 792 582 792 q 799 766 736 792 q 903 708 861 740 l 854 639 q 771 690 813 671 q 665 708 729 708 q 602 696 632 708 q 549 657 572 683 q 513 588 526 631 q 500 486 500 546 q 551 315 500 367 q 679 264 601 264 q 785 283 743 264 q 868 333 826 301 l 917 264 q 813 206 875 232 q 667 181 750 181 z "},"®":{"ha":1292,"x_min":69,"x_max":1222,"o":"m 1222 486 q 1179 272 1222 369 q 1059 105 1136 175 q 876 -3 982 35 q 646 -42 771 -42 q 415 -3 521 -42 q 233 105 310 35 q 113 272 156 175 q 69 486 69 369 q 113 700 69 603 q 233 867 156 797 q 415 976 310 938 q 646 1014 521 1014 q 876 976 771 1014 q 1059 867 982 938 q 1179 700 1136 797 q 1222 486 1222 603 m 222 486 q 255 313 222 390 q 345 182 288 236 q 480 99 403 128 q 646 69 557 69 q 812 99 735 69 q 946 182 889 128 q 1036 313 1003 236 q 1069 486 1069 390 q 1036 659 1069 582 q 946 790 1003 736 q 812 874 889 844 q 646 903 735 903 q 480 874 557 903 q 345 790 403 844 q 255 659 288 736 q 222 486 222 582 m 931 569 q 899 458 931 504 q 808 388 867 413 l 944 194 l 771 194 l 654 361 l 653 361 l 556 361 l 556 194 l 403 194 l 403 778 l 653 778 q 857 724 783 778 q 931 569 931 669 m 764 569 q 729 666 764 638 q 653 694 694 694 l 556 694 l 556 444 l 653 444 q 729 473 694 444 q 764 569 764 501 z "},"D":{"ha":1167,"x_min":97,"x_max":1111,"o":"m 556 972 q 783 941 681 972 q 958 849 885 910 q 1071 697 1031 788 q 1111 486 1111 606 q 1071 276 1111 367 q 958 124 1031 185 q 783 31 885 63 q 556 0 681 0 l 97 0 l 97 972 l 556 972 m 299 868 l 299 104 l 556 104 q 688 126 626 104 q 796 194 750 147 q 869 313 842 240 q 896 486 896 385 q 869 660 896 588 q 796 778 842 732 q 688 847 750 825 q 556 868 626 868 l 299 868 z "},"Ъ":{"ha":1222,"x_min":14,"x_max":1167,"o":"m 736 611 q 1058 528 950 611 q 1167 306 1167 446 q 1058 83 1167 165 q 736 0 950 0 l 222 0 l 222 854 l 14 854 l 14 972 l 425 972 l 424 971 l 424 611 l 736 611 m 424 507 l 424 104 l 736 104 q 894 155 836 104 q 951 306 951 206 q 894 456 951 406 q 736 507 836 507 l 424 507 z "},"Ь":{"ha":1097,"x_min":97,"x_max":1042,"o":"m 611 611 q 933 528 825 611 q 1042 306 1042 446 q 933 83 1042 165 q 611 0 825 0 l 97 0 l 97 972 l 299 972 l 299 611 l 611 611 m 299 507 l 299 104 l 611 104 q 769 155 711 104 q 826 306 826 206 q 769 456 826 406 q 611 507 711 507 l 299 507 z "},"Т":{"ha":979,"x_min":14,"x_max":965,"o":"m 965 868 l 590 868 l 590 0 l 389 0 l 389 868 l 14 868 l 14 972 l 965 972 l 965 868 z "},"‘":{"ha":354,"x_min":69,"x_max":285,"o":"m 69 778 q 86 872 69 832 q 129 937 103 911 q 190 974 156 963 q 257 986 224 986 l 257 938 q 190 913 221 938 q 153 847 158 889 q 163 850 157 849 q 173 853 167 851 q 188 854 179 854 q 257 823 229 854 q 285 750 285 792 q 256 677 285 708 q 181 646 228 646 q 99 685 128 646 q 69 778 69 725 z "},"’":{"ha":354,"x_min":69,"x_max":285,"o":"m 285 854 q 268 760 285 800 q 225 695 251 721 q 165 658 199 669 q 97 646 131 646 l 97 694 q 165 719 133 694 q 201 785 196 743 q 192 781 197 782 q 167 778 181 778 q 97 809 125 778 q 69 882 69 840 q 98 955 69 924 q 174 986 126 986 q 256 947 226 986 q 285 854 285 907 z "},"'":{"ha":250,"x_min":28,"x_max":222,"o":"m 69 653 l 28 972 l 222 972 l 181 653 l 69 653 z "},"\"":{"ha":514,"x_min":28,"x_max":486,"o":"m 69 653 l 28 972 l 222 972 l 181 653 l 69 653 m 333 653 l 292 972 l 486 972 l 444 653 l 333 653 z "},"…":{"ha":903,"x_min":69,"x_max":833,"o":"m 278 90 q 249 17 278 49 q 174 -14 221 -14 q 98 17 126 -14 q 69 90 69 49 q 98 163 69 132 q 174 194 126 194 q 249 163 219 194 q 278 90 278 132 m 556 90 q 527 17 556 49 q 451 -14 499 -14 q 376 17 404 -14 q 347 90 347 49 q 376 163 347 132 q 451 194 404 194 q 526 163 497 194 q 556 90 556 132 m 833 90 q 805 17 833 49 q 729 -14 776 -14 q 653 17 682 -14 q 625 90 625 49 q 653 163 625 132 q 729 194 682 194 q 804 163 775 194 q 833 90 833 132 z "},"†":{"ha":833,"x_min":42,"x_max":792,"o":"m 792 549 l 514 549 l 514 -250 l 319 -250 l 319 549 l 42 549 l 42 653 l 319 653 l 319 972 l 514 972 l 514 653 l 792 653 l 792 549 z "},"‡":{"ha":833,"x_min":42,"x_max":792,"o":"m 792 69 l 514 69 l 514 -250 l 319 -250 l 319 69 l 42 69 l 42 174 l 319 174 l 319 549 l 42 549 l 42 653 l 319 653 l 319 972 l 514 972 l 514 653 l 792 653 l 792 549 l 514 549 l 514 174 l 792 174 l 792 69 z "},"‚":{"ha":354,"x_min":69,"x_max":285,"o":"m 285 63 q 268 -31 285 8 q 225 -97 251 -71 q 165 -134 199 -122 q 97 -146 131 -146 l 97 -97 q 165 -73 133 -97 q 201 -7 196 -49 q 192 -11 197 -10 q 167 -14 181 -14 q 97 17 125 -14 q 69 90 69 49 q 98 163 69 132 q 174 194 126 194 q 256 155 226 194 q 285 63 285 115 z "},"‰":{"ha":1701,"x_min":42,"x_max":1660,"o":"m 1035 972 l 340 0 l 139 0 l 833 972 l 1035 972 m 889 431 q 985 416 940 431 q 1063 373 1031 401 q 1113 301 1094 344 q 1132 201 1132 258 q 1113 101 1132 144 q 1063 30 1094 58 q 985 -13 1031 1 q 889 -28 940 -28 q 792 -13 836 -28 q 715 30 747 1 q 665 101 683 58 q 646 201 646 144 q 665 301 646 258 q 715 373 683 344 q 792 416 747 401 q 889 431 836 431 m 889 49 q 952 83 925 49 q 979 201 979 118 q 952 319 979 285 q 889 354 925 354 q 826 319 853 354 q 799 201 799 285 q 826 83 799 118 q 889 49 853 49 m 285 1000 q 381 985 336 1000 q 458 942 426 971 q 509 871 490 914 q 528 771 528 828 q 509 671 528 714 q 458 599 490 628 q 381 556 426 571 q 285 542 336 542 q 188 556 232 542 q 111 599 143 571 q 60 671 79 628 q 42 771 42 714 q 60 871 42 828 q 111 942 79 914 q 188 985 143 971 q 285 1000 232 1000 m 285 618 q 348 653 321 618 q 375 771 375 688 q 348 889 375 854 q 285 924 321 924 q 222 889 249 924 q 194 771 194 854 q 222 653 194 688 q 285 618 249 618 m 1417 431 q 1513 416 1468 431 q 1590 373 1558 401 q 1641 301 1622 344 q 1660 201 1660 258 q 1641 101 1660 144 q 1590 30 1622 58 q 1513 -13 1558 1 q 1417 -28 1468 -28 q 1319 -13 1364 -28 q 1243 30 1275 1 q 1192 101 1211 58 q 1174 201 1174 144 q 1192 301 1174 258 q 1243 373 1211 344 q 1319 416 1275 401 q 1417 431 1364 431 m 1417 49 q 1480 83 1453 49 q 1507 201 1507 118 q 1480 319 1507 285 q 1417 354 1453 354 q 1353 319 1381 354 q 1326 201 1326 285 q 1353 83 1326 118 q 1417 49 1381 49 z "},"€":{"ha":1167,"x_min":14,"x_max":1139,"o":"m 764 333 l 371 333 q 499 138 406 200 q 722 76 593 76 q 903 109 817 76 q 1069 215 990 142 l 1139 132 q 947 15 1060 58 q 708 -28 835 -28 q 345 64 489 -28 q 157 333 201 156 l 14 333 l 28 431 l 140 431 q 139 458 139 444 q 139 486 139 471 q 139 515 139 501 q 140 542 139 528 l 28 542 l 42 639 l 157 639 q 226 794 179 726 q 343 907 274 861 q 501 976 413 953 q 694 1000 590 1000 q 933 957 821 1000 q 1125 840 1046 914 l 1056 757 q 890 863 976 831 q 708 896 803 896 q 497 833 588 896 q 371 639 406 771 l 806 639 l 792 542 l 356 542 q 354 515 354 528 q 354 486 354 501 q 354 458 354 471 q 356 431 354 444 l 778 431 l 764 333 z "},"Ђ":{"ha":1215,"x_min":14,"x_max":1146,"o":"m 688 868 l 424 868 l 424 639 l 688 639 q 897 619 810 639 q 1039 563 983 600 q 1120 469 1094 525 q 1146 340 1146 413 l 1146 236 q 1079 40 1146 100 q 882 -21 1013 -21 q 811 -14 843 -21 q 778 -7 794 -11 l 778 83 l 833 83 q 913 118 881 83 q 944 236 944 153 l 944 340 q 886 487 944 439 q 688 535 828 535 l 424 535 l 424 0 l 222 0 l 222 868 l 14 868 l 14 972 l 688 972 l 688 868 z "},"Ћ":{"ha":1229,"x_min":14,"x_max":1146,"o":"m 688 868 l 424 868 l 424 639 l 688 639 q 897 619 810 639 q 1039 563 983 600 q 1120 469 1094 525 q 1146 340 1146 413 l 1146 0 l 944 0 l 944 340 q 886 487 944 439 q 688 535 828 535 l 424 535 l 424 0 l 222 0 l 222 868 l 14 868 l 14 972 l 688 972 l 688 868 z "},"Ѓ":{"ha":917,"x_min":97,"x_max":903,"o":"m 299 868 l 299 0 l 97 0 l 97 972 l 903 972 l 903 868 l 299 868 m 696 1264 l 549 1056 l 417 1056 l 500 1264 l 696 1264 z "},"ѓ":{"ha":694,"x_min":97,"x_max":681,"o":"m 681 625 l 292 625 l 292 0 l 97 0 l 97 722 l 681 722 l 681 625 m 592 1014 l 444 806 l 313 806 l 396 1014 l 592 1014 z "},"ћ":{"ha":1000,"x_min":28,"x_max":917,"o":"m 569 764 l 347 764 l 347 653 l 528 653 q 822 581 726 653 q 917 368 917 510 l 917 0 l 722 0 l 722 368 q 672 512 722 468 q 528 556 622 556 l 347 556 l 347 0 l 153 0 l 153 764 l 28 764 l 28 861 l 153 861 l 153 972 l 347 972 l 347 861 l 569 861 l 569 764 z "},"ђ":{"ha":979,"x_min":28,"x_max":917,"o":"m 722 368 q 672 512 722 468 q 528 556 622 556 l 347 556 l 347 0 l 153 0 l 153 764 l 28 764 l 28 861 l 153 861 l 153 972 l 347 972 l 347 861 l 569 861 l 569 764 l 347 764 l 347 653 l 528 653 q 822 581 726 653 q 917 368 917 510 l 917 236 q 856 38 917 96 q 681 -21 794 -21 q 607 -14 639 -21 q 576 -7 590 -11 l 576 76 l 632 76 q 669 84 653 76 q 698 110 686 92 q 716 158 710 128 q 722 236 722 189 l 722 368 z "},"Ќ":{"ha":1104,"x_min":97,"x_max":1090,"o":"m 722 493 l 1090 0 l 861 0 l 542 431 l 299 431 l 299 0 l 97 0 l 97 972 l 299 972 l 299 535 l 528 535 l 847 972 l 1069 972 l 722 493 m 738 1236 l 590 1028 l 458 1028 l 542 1236 l 738 1236 z "},"ќ":{"ha":903,"x_min":97,"x_max":875,"o":"m 438 313 l 292 313 l 292 0 l 97 0 l 97 722 l 292 722 l 292 410 l 438 410 l 653 722 l 861 722 l 618 368 l 875 0 l 653 0 l 438 313 m 661 986 l 514 778 l 382 778 l 465 986 l 661 986 z "},"Ў":{"ha":1104,"x_min":0,"x_max":1090,"o":"m 1090 972 l 569 0 l 354 0 l 507 285 l 396 285 l 0 972 l 229 972 l 556 403 l 569 403 l 875 972 l 1090 972 m 556 1021 q 347 1083 410 1021 q 285 1250 285 1146 l 444 1250 q 476 1160 444 1188 q 556 1132 508 1132 q 635 1160 603 1132 q 667 1250 667 1188 l 826 1250 q 764 1083 826 1146 q 556 1021 701 1021 z "},"ў":{"ha":903,"x_min":14,"x_max":889,"o":"m 521 -250 l 326 -250 l 424 0 l 306 0 l 14 722 l 208 722 l 451 118 l 465 118 l 694 722 l 889 722 l 521 -250 m 451 778 q 254 838 321 778 q 188 993 188 899 l 347 993 q 378 908 347 940 q 451 875 410 875 q 524 908 493 875 q 556 993 556 940 l 715 993 q 649 838 715 899 q 451 778 582 778 z "},"Є":{"ha":1097,"x_min":69,"x_max":1069,"o":"m 653 76 q 834 109 747 76 q 1000 215 921 142 l 1069 132 q 878 15 990 58 q 639 -28 765 -28 q 403 6 508 -28 q 224 104 299 39 q 110 265 150 169 q 69 486 69 361 q 109 707 69 611 q 222 868 149 803 q 397 967 294 933 q 625 1000 500 1000 q 864 957 751 1000 q 1056 840 976 914 l 986 757 q 820 863 907 831 q 639 896 733 896 q 507 875 568 896 q 399 810 446 854 q 323 700 353 767 q 286 542 293 633 l 811 542 l 811 438 l 286 438 q 322 275 292 343 q 399 163 351 207 q 512 98 447 119 q 653 76 576 76 z "},"є":{"ha":854,"x_min":63,"x_max":813,"o":"m 486 750 q 575 742 531 750 q 660 722 619 735 q 737 689 701 708 q 799 646 772 669 l 743 563 q 627 629 686 606 q 500 653 568 653 q 417 640 456 653 q 348 598 378 626 q 299 524 318 569 q 274 417 279 479 l 632 417 l 632 319 l 272 319 q 347 128 282 186 q 514 69 411 69 q 641 93 582 69 q 757 160 700 117 l 813 76 q 751 33 786 53 q 674 1 715 14 q 589 -20 633 -12 q 500 -28 544 -28 q 320 -2 401 -28 q 182 73 239 24 q 94 194 125 122 q 63 361 63 267 q 94 527 63 454 q 181 649 125 600 q 314 724 236 699 q 486 750 392 750 z "},"™":{"ha":1493,"x_min":28,"x_max":1424,"o":"m 597 889 l 389 889 l 389 403 l 236 403 l 236 889 l 28 889 l 28 972 l 597 972 l 597 889 m 944 403 l 799 819 l 792 819 l 792 403 l 639 403 l 639 972 l 861 972 l 1028 500 l 1035 500 l 1201 972 l 1424 972 l 1424 403 l 1271 403 l 1271 819 l 1264 819 l 1118 403 l 944 403 z "},"ѕ":{"ha":854,"x_min":42,"x_max":813,"o":"m 264 569 q 292 511 264 538 q 389 465 321 485 l 604 403 q 758 324 704 374 q 813 194 813 274 q 792 103 813 144 q 724 33 771 63 q 601 -12 676 4 q 417 -28 526 -28 q 305 -19 360 -28 q 201 3 250 -11 q 111 37 151 18 q 42 76 71 56 l 97 160 q 234 97 156 124 q 417 69 313 69 q 563 97 521 69 q 604 167 604 125 q 575 224 604 199 q 472 271 546 250 l 257 333 q 112 409 168 360 q 56 542 56 458 q 76 624 56 586 q 139 690 96 663 q 249 734 182 718 q 410 750 315 750 q 619 719 525 750 q 771 646 713 688 l 715 563 q 586 626 658 599 q 410 653 514 653 q 300 629 336 653 q 264 569 264 606 z "},"Ѕ":{"ha":1042,"x_min":42,"x_max":1000,"o":"m 1000 257 q 975 145 1000 197 q 894 55 950 93 q 748 -6 838 17 q 528 -28 658 -28 q 384 -17 454 -28 q 251 15 314 -6 q 134 66 188 36 q 42 132 81 96 l 111 215 q 296 112 190 147 q 528 76 401 76 q 726 115 668 76 q 785 222 785 154 q 739 311 785 275 q 583 382 693 347 l 319 465 q 122 572 189 507 q 56 736 56 636 q 80 835 56 788 q 156 920 104 883 q 287 978 207 957 q 479 1000 367 1000 q 615 989 547 1000 q 744 957 682 978 q 859 906 806 936 q 951 840 913 876 l 882 757 q 704 860 803 825 q 479 896 606 896 q 323 860 375 896 q 271 771 271 824 q 281 720 271 742 q 313 680 290 699 q 374 645 336 661 q 467 611 411 629 l 729 528 q 928 422 856 488 q 1000 257 1000 357 z "},"ј":{"ha":417,"x_min":-139,"x_max":319,"o":"m 313 0 q 293 -110 313 -60 q 237 -199 274 -161 q 146 -257 200 -236 q 21 -278 92 -278 q -56 -271 -15 -278 q -139 -243 -97 -264 l -111 -153 q -62 -172 -90 -164 q -7 -181 -33 -181 q 42 -171 19 -181 q 82 -140 65 -161 q 108 -84 99 -118 q 118 0 118 -50 l 118 708 l 313 708 l 313 0 m 319 896 q 291 823 319 854 q 215 792 263 792 q 140 823 168 792 q 111 896 111 854 q 140 969 111 938 q 215 1000 168 1000 q 290 969 261 1000 q 319 896 319 938 z "},"І":{"ha":396,"x_min":97,"x_max":299,"o":"m 299 0 l 97 0 l 97 972 l 299 972 l 299 0 z "},"і":{"ha":389,"x_min":90,"x_max":299,"o":"m 292 0 l 97 0 l 97 708 l 292 708 l 292 0 m 299 896 q 270 823 299 854 q 194 792 242 792 q 119 823 147 792 q 90 896 90 854 q 119 969 90 938 q 194 1000 147 1000 q 269 969 240 1000 q 299 896 299 938 z "},"Ј":{"ha":917,"x_min":14,"x_max":819,"o":"m 361 -28 q 262 -19 311 -28 q 167 4 213 -11 q 82 40 121 19 q 14 83 43 60 l 76 167 q 203 98 139 119 q 347 76 268 76 q 453 94 404 76 q 540 150 503 111 q 597 249 576 189 q 618 396 618 310 l 618 868 l 292 868 l 292 972 l 819 972 l 819 396 q 787 210 819 289 q 694 78 754 131 q 550 -1 635 25 q 361 -28 465 -28 z "},"№":{"ha":1694,"x_min":97,"x_max":1653,"o":"m 1097 972 l 1097 0 l 833 0 l 313 792 l 299 792 l 299 0 l 97 0 l 97 972 l 361 972 l 882 181 l 896 181 l 896 972 l 1097 972 m 1410 1000 q 1506 985 1461 1000 q 1583 942 1551 971 q 1634 871 1615 914 q 1653 771 1653 828 q 1634 671 1653 714 q 1583 599 1615 628 q 1506 556 1551 571 q 1410 542 1461 542 q 1313 556 1357 542 q 1236 599 1268 571 q 1185 671 1204 628 q 1167 771 1167 714 q 1185 871 1167 828 q 1236 942 1204 914 q 1313 985 1268 971 q 1410 1000 1357 1000 m 1410 618 q 1473 653 1446 618 q 1500 771 1500 688 q 1473 889 1500 854 q 1410 924 1446 924 q 1347 889 1374 924 q 1319 771 1319 854 q 1347 653 1319 688 q 1410 618 1374 618 m 1625 361 l 1194 361 l 1194 472 l 1625 472 l 1625 361 z "},"ї":{"ha":417,"x_min":-42,"x_max":458,"o":"m 306 0 l 111 0 l 111 708 l 306 708 l 306 0 m 167 896 q 138 823 167 854 q 63 792 110 792 q -13 823 15 792 q -42 896 -42 854 q -13 969 -42 938 q 63 1000 15 1000 q 138 969 108 1000 q 167 896 167 938 m 458 896 q 430 823 458 854 q 354 792 401 792 q 278 823 307 792 q 250 896 250 854 q 278 969 250 938 q 354 1000 307 1000 q 429 969 400 1000 q 458 896 458 938 z "},"Ї":{"ha":417,"x_min":-42,"x_max":458,"o":"m 313 0 l 111 0 l 111 972 l 313 972 l 313 0 m 167 1174 q 138 1101 167 1132 q 63 1069 110 1069 q -13 1101 15 1069 q -42 1174 -42 1132 q -13 1247 -42 1215 q 63 1278 15 1278 q 138 1247 108 1278 q 167 1174 167 1215 m 458 1174 q 430 1101 458 1132 q 354 1069 401 1069 q 278 1101 307 1069 q 250 1174 250 1132 q 278 1247 250 1215 q 354 1278 307 1278 q 429 1247 400 1278 q 458 1174 458 1215 z "},"­":{"ha":750,"x_min":56,"x_max":694,"o":"m 694 389 l 56 389 l 56 514 l 694 514 l 694 389 z "},"Џ":{"ha":1167,"x_min":97,"x_max":1069,"o":"m 97 0 l 97 972 l 299 972 l 299 104 l 868 104 l 868 972 l 1069 972 l 1069 0 l 97 0 m 688 0 l 660 -222 l 507 -222 l 479 0 l 688 0 z "},"џ":{"ha":958,"x_min":97,"x_max":861,"o":"m 97 0 l 97 722 l 292 722 l 292 97 l 667 97 l 667 722 l 861 722 l 861 0 l 576 0 l 549 -208 l 410 -208 l 382 0 l 97 0 z "},"љ":{"ha":1431,"x_min":21,"x_max":1382,"o":"m 1042 472 q 1301 409 1219 472 q 1382 236 1382 346 q 1301 63 1382 126 q 1042 0 1219 0 l 639 0 l 639 625 l 361 625 l 340 236 q 274 38 333 96 q 111 -21 215 -21 q 50 -14 78 -21 q 21 -7 35 -11 l 21 76 l 63 76 q 96 84 81 76 q 123 110 111 92 q 142 158 135 128 q 153 236 150 189 l 181 722 l 833 722 l 833 472 l 1042 472 m 833 375 l 833 97 l 1042 97 q 1139 133 1104 97 q 1174 236 1174 168 q 1139 340 1174 304 q 1042 375 1104 375 l 833 375 z "},"њ":{"ha":1431,"x_min":97,"x_max":1382,"o":"m 1042 444 q 1194 428 1131 444 q 1300 383 1258 413 q 1362 313 1342 354 q 1382 222 1382 272 q 1362 131 1382 172 q 1300 61 1342 90 q 1194 16 1258 32 q 1042 0 1131 0 l 639 0 l 639 333 l 292 333 l 292 0 l 97 0 l 97 722 l 292 722 l 292 431 l 639 431 l 639 722 l 833 722 l 833 444 l 1042 444 m 833 347 l 833 97 l 1042 97 q 1139 131 1104 97 q 1174 222 1174 164 q 1139 314 1174 281 q 1042 347 1104 347 l 833 347 z "},"Љ":{"ha":1840,"x_min":28,"x_max":1785,"o":"m 1354 611 q 1676 528 1568 611 q 1785 306 1785 446 q 1676 83 1785 165 q 1354 0 1568 0 l 840 0 l 840 868 l 417 868 l 375 236 q 299 40 365 100 q 118 -21 233 -21 q 54 -14 82 -21 q 28 -7 39 -11 l 28 83 l 69 83 q 143 118 111 83 q 181 236 175 153 l 229 972 l 1042 972 l 1042 611 l 1354 611 m 1042 507 l 1042 104 l 1354 104 q 1512 155 1454 104 q 1569 306 1569 206 q 1512 456 1569 406 q 1354 507 1454 507 l 1042 507 z "},"Њ":{"ha":1840,"x_min":97,"x_max":1785,"o":"m 1354 583 q 1542 563 1461 583 q 1676 503 1622 542 q 1758 410 1731 464 q 1785 292 1785 357 q 1758 173 1785 226 q 1676 81 1731 119 q 1542 21 1622 42 q 1354 0 1461 0 l 840 0 l 840 465 l 299 465 l 299 0 l 97 0 l 97 972 l 299 972 l 299 569 l 840 569 l 840 972 l 1042 972 l 1042 583 l 1354 583 m 1042 479 l 1042 104 l 1354 104 q 1512 153 1454 104 q 1569 292 1569 203 q 1512 430 1569 381 q 1354 479 1454 479 l 1042 479 z "},"Ґ":{"ha":917,"x_min":97,"x_max":903,"o":"m 299 868 l 299 0 l 97 0 l 97 972 l 722 972 l 750 1139 l 903 1139 l 903 868 l 299 868 z "},"ґ":{"ha":694,"x_min":97,"x_max":681,"o":"m 535 882 l 681 882 l 681 625 l 292 625 l 292 0 l 97 0 l 97 722 l 507 722 l 535 882 z "},"°":{"ha":569,"x_min":42,"x_max":528,"o":"m 285 1000 q 381 985 336 1000 q 458 942 426 971 q 509 871 490 914 q 528 771 528 828 q 509 671 528 714 q 458 599 490 628 q 381 556 426 571 q 285 542 336 542 q 188 556 232 542 q 111 599 143 571 q 60 671 79 628 q 42 771 42 714 q 60 871 42 828 q 111 942 79 914 q 188 985 143 971 q 285 1000 232 1000 m 285 618 q 348 653 321 618 q 375 771 375 688 q 348 889 375 854 q 285 924 321 924 q 222 889 249 924 q 194 771 194 854 q 222 653 194 688 q 285 618 249 618 z "},"A":{"ha":1139,"x_min":14,"x_max":1125,"o":"m 354 340 l 785 340 l 576 854 l 563 854 l 354 340 m 729 972 l 1125 0 l 925 0 l 833 236 l 306 236 l 214 0 l 14 0 l 410 972 l 729 972 z "},"Š":{"ha":1042,"x_min":42,"x_max":1000,"o":"m 1000 257 q 975 145 1000 197 q 894 55 950 93 q 748 -6 838 17 q 528 -28 658 -28 q 384 -17 454 -28 q 251 15 314 -6 q 134 66 188 36 q 42 132 81 96 l 111 215 q 296 112 190 147 q 528 76 401 76 q 726 115 668 76 q 785 222 785 154 q 739 311 785 275 q 583 382 693 347 l 319 465 q 122 572 189 507 q 56 736 56 636 q 80 835 56 788 q 156 920 104 883 q 287 978 207 957 q 479 1000 367 1000 q 615 989 547 1000 q 744 957 682 978 q 859 906 806 936 q 951 840 913 876 l 882 757 q 704 860 803 825 q 479 896 606 896 q 323 860 375 896 q 271 771 271 824 q 281 720 271 742 q 313 680 290 699 q 374 645 336 661 q 467 611 411 629 l 729 528 q 928 422 856 488 q 1000 257 1000 357 m 443 1056 l 269 1278 l 415 1278 l 519 1153 l 625 1278 l 771 1278 l 596 1056 l 443 1056 z "},"Ž":{"ha":1000,"x_min":49,"x_max":951,"o":"m 938 854 l 292 104 l 951 104 l 951 0 l 49 0 l 49 118 l 694 868 l 63 868 l 63 972 l 938 972 l 938 854 m 422 1056 l 249 1278 l 394 1278 l 499 1153 l 604 1278 l 750 1278 l 575 1056 l 422 1056 z "},"Ś":{"ha":1042,"x_min":42,"x_max":1000,"o":"m 1000 257 q 975 145 1000 197 q 894 55 950 93 q 748 -6 838 17 q 528 -28 658 -28 q 384 -17 454 -28 q 251 15 314 -6 q 134 66 188 36 q 42 132 81 96 l 111 215 q 296 112 190 147 q 528 76 401 76 q 726 115 668 76 q 785 222 785 154 q 739 311 785 275 q 583 382 693 347 l 319 465 q 122 572 189 507 q 56 736 56 636 q 80 835 56 788 q 156 920 104 883 q 287 978 207 957 q 479 1000 367 1000 q 615 989 547 1000 q 744 957 682 978 q 859 906 806 936 q 951 840 913 876 l 882 757 q 704 860 803 825 q 479 896 606 896 q 323 860 375 896 q 271 771 271 824 q 281 720 271 742 q 313 680 290 699 q 374 645 336 661 q 467 611 411 629 l 729 528 q 928 422 856 488 q 1000 257 1000 357 m 688 1278 l 540 1069 l 408 1069 l 492 1278 l 688 1278 z "},"Ť":{"ha":979,"x_min":14,"x_max":965,"o":"m 965 868 l 590 868 l 590 0 l 389 0 l 389 868 l 14 868 l 14 972 l 965 972 l 965 868 m 413 1056 l 239 1278 l 385 1278 l 489 1153 l 594 1278 l 740 1278 l 565 1056 l 413 1056 z "},"Ź":{"ha":1000,"x_min":49,"x_max":951,"o":"m 938 854 l 292 104 l 951 104 l 951 0 l 49 0 l 49 118 l 694 868 l 63 868 l 63 972 l 938 972 l 938 854 m 694 1264 l 547 1056 l 415 1056 l 499 1264 l 694 1264 z "},"š":{"ha":854,"x_min":42,"x_max":813,"o":"m 264 569 q 292 511 264 538 q 389 465 321 485 l 604 403 q 758 324 704 374 q 813 194 813 274 q 792 103 813 144 q 724 33 771 63 q 601 -12 676 4 q 417 -28 526 -28 q 305 -19 360 -28 q 201 3 250 -11 q 111 37 151 18 q 42 76 71 56 l 97 160 q 234 97 156 124 q 417 69 313 69 q 563 97 521 69 q 604 167 604 125 q 575 224 604 199 q 472 271 546 250 l 257 333 q 112 409 168 360 q 56 542 56 458 q 76 624 56 586 q 139 690 96 663 q 249 734 182 718 q 410 750 315 750 q 619 719 525 750 q 771 646 713 688 l 715 563 q 586 626 658 599 q 410 653 514 653 q 300 629 336 653 q 264 569 264 606 m 336 806 l 163 1028 l 308 1028 l 413 903 l 518 1028 l 664 1028 l 489 806 l 336 806 z "},"ś":{"ha":854,"x_min":42,"x_max":813,"o":"m 264 569 q 292 511 264 538 q 389 465 321 485 l 604 403 q 758 324 704 374 q 813 194 813 274 q 792 103 813 144 q 724 33 771 63 q 601 -12 676 4 q 417 -28 526 -28 q 305 -19 360 -28 q 201 3 250 -11 q 111 37 151 18 q 42 76 71 56 l 97 160 q 234 97 156 124 q 417 69 313 69 q 563 97 521 69 q 604 167 604 125 q 575 224 604 199 q 472 271 546 250 l 257 333 q 112 409 168 360 q 56 542 56 458 q 76 624 56 586 q 139 690 96 663 q 249 734 182 718 q 410 750 315 750 q 619 719 525 750 q 771 646 713 688 l 715 563 q 586 626 658 599 q 410 653 514 653 q 300 629 336 653 q 264 569 264 606 m 608 1014 l 461 806 l 329 806 l 413 1014 l 608 1014 z "},"ž":{"ha":819,"x_min":49,"x_max":771,"o":"m 771 97 l 771 0 l 49 0 l 49 111 l 528 625 l 63 625 l 63 722 l 757 722 l 757 611 l 278 97 l 771 97 m 332 806 l 158 1028 l 304 1028 l 408 903 l 514 1028 l 660 1028 l 485 806 l 332 806 z "},"ź":{"ha":819,"x_min":49,"x_max":771,"o":"m 771 97 l 771 0 l 49 0 l 49 111 l 528 625 l 63 625 l 63 722 l 757 722 l 757 611 l 278 97 l 771 97 m 549 1014 l 401 806 l 269 806 l 353 1014 l 549 1014 z "},"˘":{"ha":653,"x_min":56,"x_max":597,"o":"m 326 819 q 118 882 181 819 q 56 1049 56 944 l 215 1049 q 247 958 215 986 q 326 931 279 931 q 406 958 374 931 q 438 1049 438 986 l 597 1049 q 535 882 597 944 q 326 819 472 819 z "},"Î":{"ha":396,"x_min":-51,"x_max":450,"o":"m 299 0 l 97 0 l 97 972 l 299 972 l 299 0 m 275 1278 l 450 1056 l 304 1056 l 199 1181 l 94 1056 l -51 1056 l 122 1278 l 275 1278 z "},"Í":{"ha":396,"x_min":97,"x_max":407,"o":"m 299 0 l 97 0 l 97 972 l 299 972 l 299 0 m 407 1264 l 260 1056 l 128 1056 l 211 1264 l 407 1264 z "},"Ď":{"ha":1167,"x_min":97,"x_max":1111,"o":"m 556 972 q 783 941 681 972 q 958 849 885 910 q 1071 697 1031 788 q 1111 486 1111 606 q 1071 276 1111 367 q 958 124 1031 185 q 783 31 885 63 q 556 0 681 0 l 97 0 l 97 972 l 556 972 m 299 868 l 299 104 l 556 104 q 688 126 626 104 q 796 194 750 147 q 869 313 842 240 q 896 486 896 385 q 869 660 896 588 q 796 778 842 732 q 688 847 750 825 q 556 868 626 868 l 299 868 m 422 1056 l 249 1278 l 394 1278 l 499 1153 l 604 1278 l 750 1278 l 575 1056 l 422 1056 z "},"Ě":{"ha":986,"x_min":97,"x_max":944,"o":"m 299 868 l 299 549 l 806 549 l 806 444 l 299 444 l 299 104 l 944 104 l 944 0 l 97 0 l 97 972 l 944 972 l 944 868 l 299 868 m 415 1056 l 242 1278 l 388 1278 l 492 1153 l 597 1278 l 743 1278 l 568 1056 l 415 1056 z "},"Ë":{"ha":986,"x_min":97,"x_max":944,"o":"m 299 868 l 299 549 l 806 549 l 806 444 l 299 444 l 299 104 l 944 104 l 944 0 l 97 0 l 97 972 l 944 972 l 944 868 l 299 868 m 479 1160 q 451 1087 479 1118 q 375 1056 422 1056 q 299 1087 328 1056 q 271 1160 271 1118 q 299 1233 271 1201 q 375 1264 328 1264 q 450 1233 421 1264 q 479 1160 479 1201 m 799 1160 q 770 1087 799 1118 q 694 1056 742 1056 q 619 1087 647 1056 q 590 1160 590 1118 q 619 1233 590 1201 q 694 1264 647 1264 q 769 1233 740 1264 q 799 1160 799 1201 z "},"É":{"ha":986,"x_min":97,"x_max":944,"o":"m 299 868 l 299 549 l 806 549 l 806 444 l 299 444 l 299 104 l 944 104 l 944 0 l 97 0 l 97 972 l 944 972 l 944 868 l 299 868 m 701 1264 l 554 1056 l 422 1056 l 506 1264 l 701 1264 z "},"Č":{"ha":1097,"x_min":69,"x_max":1069,"o":"m 653 76 q 834 109 747 76 q 1000 215 921 142 l 1069 132 q 878 15 990 58 q 639 -28 765 -28 q 403 6 508 -28 q 224 104 299 39 q 110 265 150 169 q 69 486 69 361 q 109 707 69 611 q 222 868 149 803 q 397 967 294 933 q 625 1000 500 1000 q 864 957 751 1000 q 1056 840 976 914 l 986 757 q 820 863 907 831 q 639 896 733 896 q 499 872 564 896 q 386 797 433 847 q 312 670 339 747 q 285 486 285 593 q 312 302 285 379 q 388 175 339 225 q 505 101 438 125 q 653 76 572 76 m 526 1056 l 353 1278 l 499 1278 l 603 1153 l 708 1278 l 854 1278 l 679 1056 l 526 1056 z "},"Ć":{"ha":1097,"x_min":69,"x_max":1069,"o":"m 653 76 q 834 109 747 76 q 1000 215 921 142 l 1069 132 q 878 15 990 58 q 639 -28 765 -28 q 403 6 508 -28 q 224 104 299 39 q 110 265 150 169 q 69 486 69 361 q 109 707 69 611 q 222 868 149 803 q 397 967 294 933 q 625 1000 500 1000 q 864 957 751 1000 q 1056 840 976 914 l 986 757 q 820 863 907 831 q 639 896 733 896 q 499 872 564 896 q 386 797 433 847 q 312 670 339 747 q 285 486 285 593 q 312 302 285 379 q 388 175 339 225 q 505 101 438 125 q 653 76 572 76 m 813 1264 l 665 1056 l 533 1056 l 617 1264 l 813 1264 z "},"Ŕ":{"ha":1111,"x_min":97,"x_max":1056,"o":"m 597 972 q 784 949 701 972 q 924 883 867 926 q 1011 776 981 839 q 1042 632 1042 713 q 986 444 1042 521 q 826 328 931 368 l 1056 0 l 826 0 l 622 292 l 597 292 l 299 292 l 299 0 l 97 0 l 97 972 l 597 972 m 299 868 l 299 396 l 597 396 q 767 453 707 396 q 826 632 826 511 q 767 810 826 753 q 597 868 707 868 l 299 868 m 708 1264 l 561 1056 l 429 1056 l 513 1264 l 708 1264 z "},"Á":{"ha":1139,"x_min":14,"x_max":1125,"o":"m 354 340 l 785 340 l 576 854 l 563 854 l 354 340 m 729 972 l 1125 0 l 925 0 l 833 236 l 306 236 l 214 0 l 14 0 l 410 972 l 729 972 m 778 1264 l 631 1056 l 499 1056 l 582 1264 l 778 1264 z "},"Â":{"ha":1139,"x_min":14,"x_max":1125,"o":"m 354 340 l 785 340 l 576 854 l 563 854 l 354 340 m 729 972 l 1125 0 l 925 0 l 833 236 l 306 236 l 214 0 l 14 0 l 410 972 l 729 972 m 644 1278 l 819 1056 l 674 1056 l 568 1181 l 464 1056 l 318 1056 l 492 1278 l 644 1278 z "},"Ă":{"ha":1139,"x_min":14,"x_max":1125,"o":"m 354 340 l 785 340 l 576 854 l 563 854 l 354 340 m 729 972 l 1125 0 l 925 0 l 833 236 l 306 236 l 214 0 l 14 0 l 410 972 l 729 972 m 569 1069 q 361 1132 424 1069 q 299 1299 299 1194 l 458 1299 q 490 1208 458 1236 q 569 1181 522 1181 q 649 1208 617 1181 q 681 1299 681 1236 l 840 1299 q 778 1132 840 1194 q 569 1069 715 1069 z "},"Ä":{"ha":1139,"x_min":14,"x_max":1125,"o":"m 354 340 l 785 340 l 576 854 l 563 854 l 354 340 m 729 972 l 1125 0 l 925 0 l 833 236 l 306 236 l 214 0 l 14 0 l 410 972 l 729 972 m 514 1160 q 485 1087 514 1118 q 410 1056 457 1056 q 334 1087 363 1056 q 306 1160 306 1118 q 334 1233 306 1201 q 410 1264 363 1264 q 485 1233 456 1264 q 514 1160 514 1201 m 833 1160 q 805 1087 833 1118 q 729 1056 776 1056 q 653 1087 682 1056 q 625 1160 625 1118 q 653 1233 625 1201 q 729 1264 682 1264 q 804 1233 775 1264 q 833 1160 833 1201 z "},"Ĺ":{"ha":924,"x_min":97,"x_max":896,"o":"m 896 104 l 896 0 l 97 0 l 97 972 l 299 972 l 299 104 l 896 104 m 407 1264 l 260 1056 l 128 1056 l 211 1264 l 407 1264 z "},"Ń":{"ha":1194,"x_min":97,"x_max":1097,"o":"m 1097 972 l 1097 0 l 833 0 l 313 792 l 299 792 l 299 0 l 97 0 l 97 972 l 361 972 l 882 181 l 896 181 l 896 972 l 1097 972 m 806 1250 l 658 1042 l 526 1042 l 610 1250 l 806 1250 z "},"Ň":{"ha":1194,"x_min":97,"x_max":1097,"o":"m 1097 972 l 1097 0 l 833 0 l 313 792 l 299 792 l 299 0 l 97 0 l 97 972 l 361 972 l 882 181 l 896 181 l 896 972 l 1097 972 m 533 1042 l 360 1264 l 506 1264 l 610 1139 l 715 1264 l 861 1264 l 686 1042 l 533 1042 z "},"Ó":{"ha":1250,"x_min":69,"x_max":1181,"o":"m 625 903 q 492 878 554 903 q 385 801 431 853 q 312 672 339 750 q 285 486 285 593 q 312 301 285 379 q 385 171 339 222 q 492 94 431 119 q 625 69 554 69 q 758 94 696 69 q 865 171 819 119 q 938 301 911 222 q 965 486 965 379 q 938 672 965 593 q 865 801 911 750 q 758 878 819 853 q 625 903 696 903 m 625 1000 q 852 967 750 1000 q 1027 868 954 933 q 1140 707 1100 803 q 1181 486 1181 611 q 1140 265 1181 361 q 1027 104 1100 169 q 852 6 954 39 q 625 -28 750 -28 q 397 6 500 -28 q 222 104 294 39 q 109 265 149 169 q 69 486 69 361 q 109 707 69 611 q 222 868 149 803 q 397 967 294 933 q 625 1000 500 1000 m 833 1264 l 686 1056 l 554 1056 l 638 1264 l 833 1264 z "},"Ô":{"ha":1250,"x_min":69,"x_max":1181,"o":"m 625 903 q 492 878 554 903 q 385 801 431 853 q 312 672 339 750 q 285 486 285 593 q 312 301 285 379 q 385 171 339 222 q 492 94 431 119 q 625 69 554 69 q 758 94 696 69 q 865 171 819 119 q 938 301 911 222 q 965 486 965 379 q 938 672 965 593 q 865 801 911 750 q 758 878 819 853 q 625 903 696 903 m 625 1000 q 852 967 750 1000 q 1027 868 954 933 q 1140 707 1100 803 q 1181 486 1181 611 q 1140 265 1181 361 q 1027 104 1100 169 q 852 6 954 39 q 625 -28 750 -28 q 397 6 500 -28 q 222 104 294 39 q 109 265 149 169 q 69 486 69 361 q 109 707 69 611 q 222 868 149 803 q 397 967 294 933 q 625 1000 500 1000 m 700 1292 l 875 1069 l 729 1069 l 624 1194 l 519 1069 l 374 1069 l 547 1292 l 700 1292 z "},"Ö":{"ha":1250,"x_min":69,"x_max":1181,"o":"m 625 903 q 492 878 554 903 q 385 801 431 853 q 312 672 339 750 q 285 486 285 593 q 312 301 285 379 q 385 171 339 222 q 492 94 431 119 q 625 69 554 69 q 758 94 696 69 q 865 171 819 119 q 938 301 911 222 q 965 486 965 379 q 938 672 965 593 q 865 801 911 750 q 758 878 819 853 q 625 903 696 903 m 625 1000 q 852 967 750 1000 q 1027 868 954 933 q 1140 707 1100 803 q 1181 486 1181 611 q 1140 265 1181 361 q 1027 104 1100 169 q 852 6 954 39 q 625 -28 750 -28 q 397 6 500 -28 q 222 104 294 39 q 109 265 149 169 q 69 486 69 361 q 109 707 69 611 q 222 868 149 803 q 397 967 294 933 q 625 1000 500 1000 m 569 1174 q 541 1101 569 1132 q 465 1069 513 1069 q 390 1101 418 1069 q 361 1174 361 1132 q 390 1247 361 1215 q 465 1278 418 1278 q 540 1247 511 1278 q 569 1174 569 1215 m 889 1174 q 860 1101 889 1132 q 785 1069 832 1069 q 709 1101 738 1069 q 681 1174 681 1132 q 709 1247 681 1215 q 785 1278 738 1278 q 860 1247 831 1278 q 889 1174 889 1215 z "},"Ř":{"ha":1111,"x_min":97,"x_max":1056,"o":"m 597 972 q 784 949 701 972 q 924 883 867 926 q 1011 776 981 839 q 1042 632 1042 713 q 986 444 1042 521 q 826 328 931 368 l 1056 0 l 826 0 l 622 292 l 597 292 l 299 292 l 299 0 l 97 0 l 97 972 l 597 972 m 299 868 l 299 396 l 597 396 q 767 453 707 396 q 826 632 826 511 q 767 810 826 753 q 597 868 707 868 l 299 868 m 450 1056 l 276 1278 l 422 1278 l 526 1153 l 632 1278 l 778 1278 l 603 1056 l 450 1056 z "},"Ů":{"ha":1194,"x_min":97,"x_max":1097,"o":"m 597 69 q 720 88 665 69 q 814 147 775 107 q 874 248 853 186 q 896 396 896 310 l 896 972 l 1097 972 l 1097 396 q 967 77 1097 182 q 597 -28 836 -28 q 227 77 357 -28 q 97 396 97 182 l 97 972 l 299 972 l 299 396 q 320 248 299 310 q 381 147 342 186 q 474 88 419 107 q 597 69 529 69 m 764 1153 q 751 1091 764 1119 q 715 1042 738 1063 q 661 1011 692 1022 q 597 1000 631 1000 q 533 1011 564 1000 q 480 1042 503 1022 q 444 1091 457 1063 q 431 1153 431 1119 q 444 1215 431 1186 q 480 1263 457 1243 q 533 1294 503 1283 q 597 1306 564 1306 q 661 1294 631 1306 q 715 1263 692 1283 q 751 1215 738 1243 q 764 1153 764 1186 m 660 1153 q 642 1203 660 1185 q 597 1222 624 1222 q 553 1203 571 1222 q 535 1153 535 1185 q 553 1102 535 1121 q 597 1083 571 1083 q 642 1102 624 1083 q 660 1153 660 1121 z "},"Ú":{"ha":1194,"x_min":97,"x_max":1097,"o":"m 597 69 q 720 88 665 69 q 814 147 775 107 q 874 248 853 186 q 896 396 896 310 l 896 972 l 1097 972 l 1097 396 q 967 77 1097 182 q 597 -28 836 -28 q 227 77 357 -28 q 97 396 97 182 l 97 972 l 299 972 l 299 396 q 320 248 299 310 q 381 147 342 186 q 474 88 419 107 q 597 69 529 69 m 792 1236 l 644 1028 l 513 1028 l 596 1236 l 792 1236 z "},"Ü":{"ha":1194,"x_min":97,"x_max":1097,"o":"m 597 69 q 720 88 665 69 q 814 147 775 107 q 874 248 853 186 q 896 396 896 310 l 896 972 l 1097 972 l 1097 396 q 967 77 1097 182 q 597 -28 836 -28 q 227 77 357 -28 q 97 396 97 182 l 97 972 l 299 972 l 299 396 q 320 248 299 310 q 381 147 342 186 q 474 88 419 107 q 597 69 529 69 m 542 1132 q 513 1059 542 1090 q 438 1028 485 1028 q 362 1059 390 1028 q 333 1132 333 1090 q 362 1205 333 1174 q 438 1236 390 1236 q 513 1205 483 1236 q 542 1132 542 1174 m 861 1132 q 833 1059 861 1090 q 757 1028 804 1028 q 681 1059 710 1028 q 653 1132 653 1090 q 681 1205 653 1174 q 757 1236 710 1236 q 832 1205 803 1236 q 861 1132 861 1174 z "},"Ý":{"ha":1104,"x_min":0,"x_max":1104,"o":"m 653 292 l 653 0 l 451 0 l 451 292 l 0 972 l 222 972 l 549 479 l 556 479 l 882 972 l 1104 972 l 653 292 m 747 1236 l 600 1028 l 468 1028 l 551 1236 l 747 1236 z "},"ŕ":{"ha":660,"x_min":90,"x_max":646,"o":"m 646 625 l 479 625 q 335 574 385 625 q 285 424 285 524 l 285 0 l 90 0 l 90 424 q 180 644 90 565 q 438 722 269 722 l 646 722 l 646 625 m 546 1014 l 399 806 l 267 806 l 350 1014 l 546 1014 z "},"á":{"ha":896,"x_min":49,"x_max":806,"o":"m 257 229 q 417 97 257 97 l 611 97 l 611 361 l 417 361 q 257 229 257 361 m 611 458 q 559 606 611 558 q 424 653 507 653 q 301 634 361 653 q 194 583 242 615 l 146 667 q 213 703 176 688 q 289 728 250 718 q 366 744 328 739 q 438 750 404 750 q 594 729 526 750 q 710 669 663 708 q 781 577 757 631 q 806 458 806 524 l 806 0 l 417 0 q 138 57 228 0 q 49 229 49 114 q 138 401 49 344 q 417 458 228 458 l 611 458 m 643 1014 l 496 806 l 364 806 l 447 1014 l 643 1014 z "},"â":{"ha":896,"x_min":49,"x_max":806,"o":"m 257 229 q 417 97 257 97 l 611 97 l 611 361 l 417 361 q 257 229 257 361 m 611 458 q 559 606 611 558 q 424 653 507 653 q 301 634 361 653 q 194 583 242 615 l 146 667 q 213 703 176 688 q 289 728 250 718 q 366 744 328 739 q 438 750 404 750 q 594 729 526 750 q 710 669 663 708 q 781 577 757 631 q 806 458 806 524 l 806 0 l 417 0 q 138 57 228 0 q 49 229 49 114 q 138 401 49 344 q 417 458 228 458 l 611 458 m 538 1042 l 713 819 l 567 819 l 461 944 l 357 819 l 211 819 l 385 1042 l 538 1042 z "},"ă":{"ha":896,"x_min":49,"x_max":806,"o":"m 472 819 q 275 880 342 819 q 208 1035 208 940 l 368 1035 q 399 949 368 982 q 472 917 431 917 q 545 949 514 917 q 576 1035 576 982 l 736 1035 q 669 880 736 940 q 472 819 603 819 m 257 229 q 417 97 257 97 l 611 97 l 611 361 l 417 361 q 257 229 257 361 m 611 458 q 559 606 611 558 q 424 653 507 653 q 301 634 361 653 q 194 583 242 615 l 146 667 q 213 703 176 688 q 289 728 250 718 q 366 744 328 739 q 438 750 404 750 q 594 729 526 750 q 710 669 663 708 q 781 577 757 631 q 806 458 806 524 l 806 0 l 417 0 q 138 57 228 0 q 49 229 49 114 q 138 401 49 344 q 417 458 228 458 l 611 458 z "},"ä":{"ha":896,"x_min":49,"x_max":806,"o":"m 257 229 q 417 97 257 97 l 611 97 l 611 361 l 417 361 q 257 229 257 361 m 611 458 q 559 606 611 558 q 424 653 507 653 q 301 634 361 653 q 194 583 242 615 l 146 667 q 213 703 176 688 q 289 728 250 718 q 366 744 328 739 q 438 750 404 750 q 594 729 526 750 q 710 669 663 708 q 781 577 757 631 q 806 458 806 524 l 806 0 l 417 0 q 138 57 228 0 q 49 229 49 114 q 138 401 49 344 q 417 458 228 458 l 611 458 m 406 924 q 377 851 406 882 q 301 819 349 819 q 226 851 254 819 q 197 924 197 882 q 226 997 197 965 q 301 1028 254 1028 q 376 997 347 1028 q 406 924 406 965 m 725 924 q 697 851 725 882 q 621 819 668 819 q 545 851 574 819 q 517 924 517 882 q 545 997 517 965 q 621 1028 574 1028 q 696 997 667 1028 q 725 924 725 965 z "},"ĺ":{"ha":390,"x_min":97,"x_max":404,"o":"m 292 0 l 97 0 l 97 972 l 292 972 l 292 0 m 404 1278 l 257 1069 l 125 1069 l 208 1278 l 404 1278 z "},"ć":{"ha":854,"x_min":63,"x_max":813,"o":"m 486 750 q 575 742 531 750 q 660 722 619 735 q 737 689 701 708 q 799 646 772 669 l 743 563 q 627 629 686 606 q 500 653 568 653 q 408 637 450 653 q 336 585 367 621 q 288 494 306 550 q 271 361 271 439 q 288 228 271 283 q 338 137 306 172 q 415 85 369 101 q 514 69 460 69 q 641 93 582 69 q 757 160 700 117 l 813 76 q 751 33 786 53 q 674 1 715 14 q 589 -20 633 -12 q 500 -28 544 -28 q 320 -2 401 -28 q 182 73 239 24 q 94 194 125 122 q 63 361 63 267 q 94 527 63 454 q 181 649 125 600 q 314 724 236 699 q 486 750 392 750 m 678 1014 l 531 806 l 399 806 l 482 1014 l 678 1014 z "},"č":{"ha":854,"x_min":63,"x_max":813,"o":"m 486 750 q 575 742 531 750 q 660 722 619 735 q 737 689 701 708 q 799 646 772 669 l 743 563 q 627 629 686 606 q 500 653 568 653 q 408 637 450 653 q 336 585 367 621 q 288 494 306 550 q 271 361 271 439 q 288 228 271 283 q 338 137 306 172 q 415 85 369 101 q 514 69 460 69 q 641 93 582 69 q 757 160 700 117 l 813 76 q 751 33 786 53 q 674 1 715 14 q 589 -20 633 -12 q 500 -28 544 -28 q 320 -2 401 -28 q 182 73 239 24 q 94 194 125 122 q 63 361 63 267 q 94 527 63 454 q 181 649 125 600 q 314 724 236 699 q 486 750 392 750 m 378 806 l 204 1028 l 350 1028 l 454 903 l 560 1028 l 706 1028 l 531 806 l 378 806 z "},"é":{"ha":931,"x_min":63,"x_max":868,"o":"m 514 69 q 641 93 582 69 q 757 160 700 117 l 813 76 q 751 33 786 53 q 674 1 715 14 q 589 -20 633 -12 q 500 -28 544 -28 q 320 -2 401 -28 q 182 73 239 24 q 94 194 125 122 q 63 361 63 267 q 92 527 63 454 q 176 649 122 600 q 303 724 229 699 q 465 750 376 750 q 622 725 549 750 q 750 652 696 700 q 836 536 804 604 q 868 382 868 468 l 868 285 l 275 285 q 355 119 292 169 q 514 69 418 69 m 465 660 q 390 644 425 660 q 330 596 356 629 q 288 510 304 563 q 271 382 272 457 l 660 382 q 643 507 660 454 q 599 594 626 560 q 537 644 572 628 q 465 660 501 660 m 660 1014 l 513 806 l 381 806 l 464 1014 l 660 1014 z "},"ë":{"ha":931,"x_min":63,"x_max":868,"o":"m 514 69 q 641 93 582 69 q 757 160 700 117 l 813 76 q 751 33 786 53 q 674 1 715 14 q 589 -20 633 -12 q 500 -28 544 -28 q 320 -2 401 -28 q 182 73 239 24 q 94 194 125 122 q 63 361 63 267 q 92 527 63 454 q 176 649 122 600 q 303 724 229 699 q 465 750 376 750 q 622 725 549 750 q 750 652 696 700 q 836 536 804 604 q 868 382 868 468 l 868 285 l 275 285 q 355 119 292 169 q 514 69 418 69 m 465 660 q 390 644 425 660 q 330 596 356 629 q 288 510 304 563 q 271 382 272 457 l 660 382 q 643 507 660 454 q 599 594 626 560 q 537 644 572 628 q 465 660 501 660 m 410 910 q 381 837 410 868 q 306 806 353 806 q 230 837 258 806 q 201 910 201 868 q 230 983 201 951 q 306 1014 258 1014 q 381 983 351 1014 q 410 910 410 951 m 729 910 q 701 837 729 868 q 625 806 672 806 q 549 837 578 806 q 521 910 521 868 q 549 983 521 951 q 625 1014 578 1014 q 700 983 671 1014 q 729 910 729 951 z "},"ě":{"ha":931,"x_min":63,"x_max":868,"o":"m 514 69 q 641 93 582 69 q 757 160 700 117 l 813 76 q 751 33 786 53 q 674 1 715 14 q 589 -20 633 -12 q 500 -28 544 -28 q 320 -2 401 -28 q 182 73 239 24 q 94 194 125 122 q 63 361 63 267 q 92 527 63 454 q 176 649 122 600 q 303 724 229 699 q 465 750 376 750 q 622 725 549 750 q 750 652 696 700 q 836 536 804 604 q 868 382 868 468 l 868 285 l 275 285 q 355 119 292 169 q 514 69 418 69 m 465 660 q 390 644 425 660 q 330 596 356 629 q 288 510 304 563 q 271 382 272 457 l 660 382 q 643 507 660 454 q 599 594 626 560 q 537 644 572 628 q 465 660 501 660 m 388 806 l 214 1028 l 360 1028 l 464 903 l 569 1028 l 715 1028 l 540 806 l 388 806 z "},"í":{"ha":390,"x_min":97,"x_max":404,"o":"m 292 0 l 97 0 l 97 708 l 292 708 l 292 0 m 404 1014 l 257 806 l 125 806 l 208 1014 l 404 1014 z "},"î":{"ha":390,"x_min":-56,"x_max":446,"o":"m 292 0 l 97 0 l 97 708 l 292 708 l 292 0 m 271 1028 l 446 806 l 300 806 l 194 931 l 90 806 l -56 806 l 118 1028 l 271 1028 z "},"ń":{"ha":951,"x_min":97,"x_max":861,"o":"m 861 0 l 667 0 l 667 438 q 617 581 667 538 q 472 625 567 625 l 292 625 l 292 0 l 97 0 l 97 722 l 472 722 q 766 651 671 722 q 861 438 861 579 l 861 0 m 615 1014 l 468 806 l 336 806 l 419 1014 l 615 1014 z "},"ň":{"ha":951,"x_min":97,"x_max":861,"o":"m 861 0 l 667 0 l 667 438 q 617 581 667 538 q 472 625 567 625 l 292 625 l 292 0 l 97 0 l 97 722 l 472 722 q 766 651 671 722 q 861 438 861 579 l 861 0 m 399 806 l 225 1028 l 371 1028 l 475 903 l 581 1028 l 726 1028 l 551 806 l 399 806 z "},"ó":{"ha":972,"x_min":63,"x_max":910,"o":"m 486 63 q 569 79 531 63 q 638 131 608 96 q 684 224 667 167 q 701 361 701 281 q 684 499 701 442 q 638 591 667 556 q 569 643 608 626 q 486 660 531 660 q 403 643 442 660 q 335 591 364 626 q 288 499 306 556 q 271 361 271 442 q 288 224 271 281 q 335 131 306 167 q 403 79 364 96 q 486 63 442 63 m 486 750 q 658 724 579 750 q 792 649 736 699 q 878 527 847 600 q 910 361 910 454 q 878 194 910 267 q 792 73 847 122 q 658 -2 736 24 q 486 -28 579 -28 q 314 -2 392 -28 q 181 73 236 24 q 94 194 125 122 q 63 361 63 267 q 94 527 63 454 q 181 649 125 600 q 314 724 236 699 q 486 750 392 750 m 681 1014 l 533 806 l 401 806 l 485 1014 l 681 1014 z "},"ô":{"ha":972,"x_min":63,"x_max":910,"o":"m 486 63 q 569 79 531 63 q 638 131 608 96 q 684 224 667 167 q 701 361 701 281 q 684 499 701 442 q 638 591 667 556 q 569 643 608 626 q 486 660 531 660 q 403 643 442 660 q 335 591 364 626 q 288 499 306 556 q 271 361 271 442 q 288 224 271 281 q 335 131 306 167 q 403 79 364 96 q 486 63 442 63 m 486 750 q 658 724 579 750 q 792 649 736 699 q 878 527 847 600 q 910 361 910 454 q 878 194 910 267 q 792 73 847 122 q 658 -2 736 24 q 486 -28 579 -28 q 314 -2 392 -28 q 181 73 236 24 q 94 194 125 122 q 63 361 63 267 q 94 527 63 454 q 181 649 125 600 q 314 724 236 699 q 486 750 392 750 m 561 1028 l 736 806 l 590 806 l 485 931 l 381 806 l 235 806 l 408 1028 l 561 1028 z "},"ö":{"ha":972,"x_min":63,"x_max":910,"o":"m 486 63 q 569 79 531 63 q 638 131 608 96 q 684 224 667 167 q 701 361 701 281 q 684 499 701 442 q 638 591 667 556 q 569 643 608 626 q 486 660 531 660 q 403 643 442 660 q 335 591 364 626 q 288 499 306 556 q 271 361 271 442 q 288 224 271 281 q 335 131 306 167 q 403 79 364 96 q 486 63 442 63 m 486 750 q 658 724 579 750 q 792 649 736 699 q 878 527 847 600 q 910 361 910 454 q 878 194 910 267 q 792 73 847 122 q 658 -2 736 24 q 486 -28 579 -28 q 314 -2 392 -28 q 181 73 236 24 q 94 194 125 122 q 63 361 63 267 q 94 527 63 454 q 181 649 125 600 q 314 724 236 699 q 486 750 392 750 m 431 910 q 402 837 431 868 q 326 806 374 806 q 251 837 279 806 q 222 910 222 868 q 251 983 222 951 q 326 1014 279 1014 q 401 983 372 1014 q 431 910 431 951 m 750 910 q 722 837 750 868 q 646 806 693 806 q 570 837 599 806 q 542 910 542 868 q 570 983 542 951 q 646 1014 599 1014 q 721 983 692 1014 q 750 910 750 951 z "},"ř":{"ha":660,"x_min":90,"x_max":646,"o":"m 646 625 l 479 625 q 335 574 385 625 q 285 424 285 524 l 285 0 l 90 0 l 90 424 q 180 644 90 565 q 438 722 269 722 l 646 722 l 646 625 m 288 806 l 114 1028 l 260 1028 l 364 903 l 469 1028 l 615 1028 l 440 806 l 288 806 z "},"ů":{"ha":958,"x_min":97,"x_max":861,"o":"m 97 722 l 292 722 l 292 285 q 342 141 292 185 q 486 97 392 97 l 667 97 l 667 722 l 861 722 l 861 0 l 486 0 q 192 72 288 0 q 97 285 97 143 l 97 722 m 646 932 q 633 870 646 899 q 597 822 619 842 q 543 790 574 801 q 479 779 513 779 q 415 790 446 779 q 362 822 385 801 q 326 870 339 842 q 313 932 313 899 q 326 994 313 965 q 362 1042 339 1022 q 415 1074 385 1063 q 479 1085 446 1085 q 543 1074 513 1085 q 597 1042 574 1063 q 633 994 619 1022 q 646 932 646 965 m 542 932 q 524 983 542 964 q 479 1001 506 1001 q 435 983 453 1001 q 417 932 417 964 q 435 881 417 900 q 479 863 453 863 q 524 881 506 863 q 542 932 542 900 z "},"ú":{"ha":958,"x_min":97,"x_max":861,"o":"m 97 722 l 292 722 l 292 285 q 342 141 292 185 q 486 97 392 97 l 667 97 l 667 722 l 861 722 l 861 0 l 486 0 q 192 72 288 0 q 97 285 97 143 l 97 722 m 660 1001 l 513 793 l 381 793 l 464 1001 l 660 1001 z "},"ü":{"ha":958,"x_min":97,"x_max":861,"o":"m 97 722 l 292 722 l 292 285 q 342 141 292 185 q 486 97 392 97 l 667 97 l 667 722 l 861 722 l 861 0 l 486 0 q 192 72 288 0 q 97 285 97 143 l 97 722 m 424 910 q 395 837 424 868 q 319 806 367 806 q 244 837 272 806 q 215 910 215 868 q 244 983 215 951 q 319 1014 272 1014 q 394 983 365 1014 q 424 910 424 951 m 743 910 q 715 837 743 868 q 639 806 686 806 q 563 837 592 806 q 535 910 535 868 q 563 983 535 951 q 639 1014 592 1014 q 714 983 685 1014 q 743 910 743 951 z "},"ý":{"ha":958,"x_min":97,"x_max":861,"o":"m 667 28 l 486 28 q 192 99 288 28 q 97 313 97 171 l 97 722 l 292 722 l 292 313 q 342 169 292 213 q 486 125 392 125 l 667 125 l 667 722 l 861 722 l 861 14 q 836 -105 861 -51 q 762 -197 811 -158 q 638 -257 713 -236 q 465 -278 564 -278 q 394 -273 432 -278 q 317 -258 356 -268 q 241 -231 278 -247 q 174 -194 204 -215 l 229 -111 q 335 -162 276 -143 q 451 -181 393 -181 q 611 -133 556 -181 q 667 14 667 -86 l 667 28 m 674 974 l 526 765 l 394 765 l 478 974 l 674 974 z "},"Ÿ":{"ha":1104,"x_min":0,"x_max":1104,"o":"m 653 292 l 653 0 l 451 0 l 451 292 l 0 972 l 222 972 l 549 479 l 556 479 l 882 972 l 1104 972 l 653 292 m 496 1132 q 467 1059 496 1090 q 392 1028 439 1028 q 316 1059 344 1028 q 288 1132 288 1090 q 316 1205 288 1174 q 392 1236 344 1236 q 467 1205 438 1236 q 496 1132 496 1174 m 815 1132 q 787 1059 815 1090 q 711 1028 758 1028 q 635 1059 664 1028 q 607 1132 607 1090 q 635 1205 607 1174 q 711 1236 664 1236 q 786 1205 757 1236 q 815 1132 815 1174 z "},"¡":{"ha":389,"x_min":83,"x_max":306,"o":"m 286 444 l 306 -250 l 83 -250 l 104 444 l 286 444 m 299 632 q 269 559 299 590 q 194 528 240 528 q 119 559 147 528 q 90 632 90 590 q 119 705 90 674 q 194 736 147 736 q 270 705 242 736 q 299 632 299 674 z "},"È":{"ha":986,"x_min":97,"x_max":944,"o":"m 299 868 l 299 549 l 806 549 l 806 444 l 299 444 l 299 104 l 944 104 l 944 0 l 97 0 l 97 972 l 944 972 l 944 868 l 299 868 m 325 1264 l 472 1056 l 604 1056 l 521 1264 l 325 1264 z "},"Ê":{"ha":986,"x_min":97,"x_max":944,"o":"m 299 868 l 299 549 l 806 549 l 806 444 l 299 444 l 299 104 l 944 104 l 944 0 l 97 0 l 97 972 l 944 972 l 944 868 l 299 868 m 596 1278 l 771 1056 l 625 1056 l 519 1181 l 415 1056 l 269 1056 l 443 1278 l 596 1278 z "},"Ì":{"ha":396,"x_min":-11,"x_max":299,"o":"m 299 0 l 97 0 l 97 972 l 299 972 l 299 0 m -11 1264 l 136 1056 l 268 1056 l 185 1264 l -11 1264 z "},"Ï":{"ha":396,"x_min":-64,"x_max":464,"o":"m 299 0 l 97 0 l 97 972 l 299 972 l 299 0 m 144 1146 q 116 1073 144 1104 q 40 1042 88 1042 q -35 1073 -7 1042 q -64 1146 -64 1104 q -35 1219 -64 1188 q 40 1250 -7 1250 q 115 1219 86 1250 q 144 1146 144 1188 m 464 1146 q 435 1073 464 1104 q 360 1042 407 1042 q 284 1073 313 1042 q 256 1146 256 1104 q 284 1219 256 1188 q 360 1250 313 1250 q 435 1219 406 1250 q 464 1146 464 1188 z "},"Ñ":{"ha":1194,"x_min":97,"x_max":1097,"o":"m 1097 972 l 1097 0 l 833 0 l 313 792 l 299 792 l 299 0 l 97 0 l 97 972 l 361 972 l 882 181 l 896 181 l 896 972 l 1097 972 m 368 1064 q 377 1134 368 1100 q 403 1194 386 1168 q 447 1235 421 1219 q 507 1251 474 1251 q 561 1238 538 1251 q 603 1210 585 1225 q 639 1181 622 1194 q 674 1168 656 1168 q 712 1193 700 1168 q 729 1244 724 1218 l 826 1231 q 817 1160 826 1194 q 791 1100 808 1126 q 747 1058 774 1074 q 688 1043 721 1043 q 633 1056 656 1043 q 591 1085 610 1069 q 556 1113 572 1100 q 521 1126 539 1126 q 483 1101 494 1126 q 465 1050 471 1076 l 368 1064 z "},"Ò":{"ha":1250,"x_min":69,"x_max":1181,"o":"m 625 903 q 492 878 554 903 q 385 801 431 853 q 312 672 339 750 q 285 486 285 593 q 312 301 285 379 q 385 171 339 222 q 492 94 431 119 q 625 69 554 69 q 758 94 696 69 q 865 171 819 119 q 938 301 911 222 q 965 486 965 379 q 938 672 965 593 q 865 801 911 750 q 758 878 819 853 q 625 903 696 903 m 625 1000 q 852 967 750 1000 q 1027 868 954 933 q 1140 707 1100 803 q 1181 486 1181 611 q 1140 265 1181 361 q 1027 104 1100 169 q 852 6 954 39 q 625 -28 750 -28 q 397 6 500 -28 q 222 104 294 39 q 109 265 149 169 q 69 486 69 361 q 109 707 69 611 q 222 868 149 803 q 397 967 294 933 q 625 1000 500 1000 m 415 1264 l 563 1056 l 694 1056 l 611 1264 l 415 1264 z "},"Õ":{"ha":1250,"x_min":69,"x_max":1181,"o":"m 625 903 q 492 878 554 903 q 385 801 431 853 q 312 672 339 750 q 285 486 285 593 q 312 301 285 379 q 385 171 339 222 q 492 94 431 119 q 625 69 554 69 q 758 94 696 69 q 865 171 819 119 q 938 301 911 222 q 965 486 965 379 q 938 672 965 593 q 865 801 911 750 q 758 878 819 853 q 625 903 696 903 m 625 1000 q 852 967 750 1000 q 1027 868 954 933 q 1140 707 1100 803 q 1181 486 1181 611 q 1140 265 1181 361 q 1027 104 1100 169 q 852 6 954 39 q 625 -28 750 -28 q 397 6 500 -28 q 222 104 294 39 q 109 265 149 169 q 69 486 69 361 q 109 707 69 611 q 222 868 149 803 q 397 967 294 933 q 625 1000 500 1000 m 382 1078 q 391 1148 382 1114 q 417 1208 400 1182 q 461 1249 435 1233 q 521 1265 488 1265 q 575 1252 551 1265 q 617 1224 599 1239 q 653 1195 636 1208 q 688 1182 669 1182 q 726 1207 714 1182 q 743 1258 738 1232 l 840 1244 q 831 1174 840 1208 q 805 1114 822 1140 q 761 1072 788 1088 q 701 1057 735 1057 q 647 1070 669 1057 q 605 1099 624 1083 q 569 1127 586 1114 q 535 1140 553 1140 q 497 1115 508 1140 q 479 1064 485 1090 l 382 1078 z "},"Ù":{"ha":1194,"x_min":97,"x_max":1097,"o":"m 597 69 q 720 88 665 69 q 814 147 775 107 q 874 248 853 186 q 896 396 896 310 l 896 972 l 1097 972 l 1097 396 q 967 77 1097 182 q 597 -28 836 -28 q 227 77 357 -28 q 97 396 97 182 l 97 972 l 299 972 l 299 396 q 320 248 299 310 q 381 147 342 186 q 474 88 419 107 q 597 69 529 69 m 401 1236 l 549 1028 l 681 1028 l 597 1236 l 401 1236 z "},"Ã":{"ha":1139,"x_min":14,"x_max":1125,"o":"m 354 340 l 785 340 l 576 854 l 563 854 l 354 340 m 729 972 l 1125 0 l 925 0 l 833 236 l 306 236 l 214 0 l 14 0 l 410 972 l 729 972 m 340 1078 q 349 1148 340 1114 q 376 1208 358 1182 q 419 1249 393 1233 q 479 1265 446 1265 q 533 1252 510 1265 q 576 1224 557 1239 q 611 1195 594 1208 q 646 1182 628 1182 q 684 1207 672 1182 q 701 1258 696 1232 l 799 1244 q 790 1174 799 1208 q 763 1114 781 1140 q 719 1072 746 1088 q 660 1057 693 1057 q 605 1070 628 1057 q 563 1099 582 1083 q 528 1127 544 1114 q 493 1140 511 1140 q 455 1115 467 1140 q 438 1064 443 1090 l 340 1078 z "},"À":{"ha":1139,"x_min":14,"x_max":1125,"o":"m 354 340 l 785 340 l 576 854 l 563 854 l 354 340 m 729 972 l 1125 0 l 925 0 l 833 236 l 306 236 l 214 0 l 14 0 l 410 972 l 729 972 m 360 1264 l 507 1056 l 639 1056 l 556 1264 l 360 1264 z "},"Û":{"ha":1194,"x_min":97,"x_max":1097,"o":"m 597 69 q 720 88 665 69 q 814 147 775 107 q 874 248 853 186 q 896 396 896 310 l 896 972 l 1097 972 l 1097 396 q 967 77 1097 182 q 597 -28 836 -28 q 227 77 357 -28 q 97 396 97 182 l 97 972 l 299 972 l 299 396 q 320 248 299 310 q 381 147 342 186 q 474 88 419 107 q 597 69 529 69 m 672 1250 l 847 1028 l 701 1028 l 596 1153 l 492 1028 l 346 1028 l 519 1250 l 672 1250 z "},"à":{"ha":896,"x_min":49,"x_max":806,"o":"m 257 229 q 417 97 257 97 l 611 97 l 611 361 l 417 361 q 257 229 257 361 m 611 458 q 559 606 611 558 q 424 653 507 653 q 301 634 361 653 q 194 583 242 615 l 146 667 q 213 703 176 688 q 289 728 250 718 q 366 744 328 739 q 438 750 404 750 q 594 729 526 750 q 710 669 663 708 q 781 577 757 631 q 806 458 806 524 l 806 0 l 417 0 q 138 57 228 0 q 49 229 49 114 q 138 401 49 344 q 417 458 228 458 l 611 458 m 253 1014 l 400 806 l 532 806 l 449 1014 l 253 1014 z "},"ã":{"ha":896,"x_min":49,"x_max":806,"o":"m 257 229 q 417 97 257 97 l 611 97 l 611 361 l 417 361 q 257 229 257 361 m 611 458 q 559 606 611 558 q 424 653 507 653 q 301 634 361 653 q 194 583 242 615 l 146 667 q 213 703 176 688 q 289 728 250 718 q 366 744 328 739 q 438 750 404 750 q 594 729 526 750 q 710 669 663 708 q 781 577 757 631 q 806 458 806 524 l 806 0 l 417 0 q 138 57 228 0 q 49 229 49 114 q 138 401 49 344 q 417 458 228 458 l 611 458 m 232 828 q 241 898 232 864 q 267 958 250 932 q 311 999 285 983 q 371 1015 338 1015 q 425 1002 401 1015 q 467 974 449 989 q 503 945 486 958 q 538 932 519 932 q 576 957 564 932 q 593 1008 588 982 l 690 994 q 681 924 690 958 q 655 864 672 890 q 611 822 638 838 q 551 807 585 807 q 497 820 519 807 q 455 849 474 833 q 419 877 436 864 q 385 890 403 890 q 347 865 358 890 q 329 814 335 840 l 232 828 z "},"å":{"ha":896,"x_min":49,"x_max":806,"o":"m 257 229 q 417 97 257 97 l 611 97 l 611 361 l 417 361 q 257 229 257 361 m 611 458 q 559 606 611 558 q 424 653 507 653 q 301 634 361 653 q 194 583 242 615 l 146 667 q 213 703 176 688 q 289 728 250 718 q 366 744 328 739 q 438 750 404 750 q 594 729 526 750 q 710 669 663 708 q 781 577 757 631 q 806 458 806 524 l 806 0 l 417 0 q 138 57 228 0 q 49 229 49 114 q 138 401 49 344 q 417 458 228 458 l 611 458 m 642 946 q 628 884 642 913 q 592 835 615 856 q 539 804 569 815 q 475 793 508 793 q 411 804 442 793 q 358 835 381 815 q 322 884 335 856 q 308 946 308 913 q 322 1008 308 979 q 358 1056 335 1036 q 411 1088 381 1076 q 475 1099 442 1099 q 539 1088 508 1099 q 592 1056 569 1076 q 628 1008 615 1036 q 642 946 642 979 m 538 946 q 519 997 538 978 q 475 1015 501 1015 q 431 997 449 1015 q 413 946 413 978 q 431 895 413 914 q 475 876 449 876 q 519 895 501 876 q 538 946 538 914 z "},"è":{"ha":931,"x_min":63,"x_max":868,"o":"m 514 69 q 641 93 582 69 q 757 160 700 117 l 813 76 q 751 33 786 53 q 674 1 715 14 q 589 -20 633 -12 q 500 -28 544 -28 q 320 -2 401 -28 q 182 73 239 24 q 94 194 125 122 q 63 361 63 267 q 92 527 63 454 q 176 649 122 600 q 303 724 229 699 q 465 750 376 750 q 622 725 549 750 q 750 652 696 700 q 836 536 804 604 q 868 382 868 468 l 868 285 l 275 285 q 355 119 292 169 q 514 69 418 69 m 465 660 q 390 644 425 660 q 330 596 356 629 q 288 510 304 563 q 271 382 272 457 l 660 382 q 643 507 660 454 q 599 594 626 560 q 537 644 572 628 q 465 660 501 660 m 269 1014 l 417 806 l 549 806 l 465 1014 l 269 1014 z "},"ê":{"ha":931,"x_min":63,"x_max":868,"o":"m 514 69 q 641 93 582 69 q 757 160 700 117 l 813 76 q 751 33 786 53 q 674 1 715 14 q 589 -20 633 -12 q 500 -28 544 -28 q 320 -2 401 -28 q 182 73 239 24 q 94 194 125 122 q 63 361 63 267 q 92 527 63 454 q 176 649 122 600 q 303 724 229 699 q 465 750 376 750 q 622 725 549 750 q 750 652 696 700 q 836 536 804 604 q 868 382 868 468 l 868 285 l 275 285 q 355 119 292 169 q 514 69 418 69 m 465 660 q 390 644 425 660 q 330 596 356 629 q 288 510 304 563 q 271 382 272 457 l 660 382 q 643 507 660 454 q 599 594 626 560 q 537 644 572 628 q 465 660 501 660 m 540 1028 l 715 806 l 569 806 l 464 931 l 360 806 l 214 806 l 388 1028 l 540 1028 z "},"ì":{"ha":389,"x_min":-14,"x_max":292,"o":"m 292 0 l 97 0 l 97 708 l 292 708 l 292 0 m 182 1014 l 265 806 l 133 806 l -14 1014 l 182 1014 z "},"ï":{"ha":389,"x_min":-69,"x_max":458,"o":"m 292 0 l 97 0 l 97 708 l 292 708 l 292 0 m 139 896 q 110 823 139 854 q 35 792 82 792 q -41 823 -12 792 q -69 896 -69 854 q -41 969 -69 938 q 35 1000 -12 1000 q 110 969 81 1000 q 139 896 139 938 m 458 896 q 430 823 458 854 q 354 792 401 792 q 278 823 307 792 q 250 896 250 854 q 278 969 250 938 q 354 1000 307 1000 q 429 969 400 1000 q 458 896 458 938 z "},"ñ":{"ha":951,"x_min":97,"x_max":861,"o":"m 861 0 l 667 0 l 667 438 q 617 581 667 538 q 472 625 567 625 l 292 625 l 292 0 l 97 0 l 97 722 l 472 722 q 766 651 671 722 q 861 438 861 579 l 861 0 m 246 828 q 255 898 246 864 q 281 958 264 932 q 325 999 299 983 q 385 1015 351 1015 q 439 1002 415 1015 q 481 974 463 989 q 517 945 500 958 q 551 932 533 932 q 590 957 578 932 q 607 1008 601 982 l 704 994 q 695 924 704 958 q 669 864 686 890 q 625 822 651 838 q 565 807 599 807 q 510 820 533 807 q 469 849 488 833 q 433 877 450 864 q 399 890 417 890 q 360 865 372 890 q 343 814 349 840 l 246 828 z "},"ò":{"ha":972,"x_min":63,"x_max":910,"o":"m 486 63 q 569 79 531 63 q 638 131 608 96 q 684 224 667 167 q 701 361 701 281 q 684 499 701 442 q 638 591 667 556 q 569 643 608 626 q 486 660 531 660 q 403 643 442 660 q 335 591 364 626 q 288 499 306 556 q 271 361 271 442 q 288 224 271 281 q 335 131 306 167 q 403 79 364 96 q 486 63 442 63 m 486 750 q 658 724 579 750 q 792 649 736 699 q 878 527 847 600 q 910 361 910 454 q 878 194 910 267 q 792 73 847 122 q 658 -2 736 24 q 486 -28 579 -28 q 314 -2 392 -28 q 181 73 236 24 q 94 194 125 122 q 63 361 63 267 q 94 527 63 454 q 181 649 125 600 q 314 724 236 699 q 486 750 392 750 m 276 1014 l 424 806 l 556 806 l 472 1014 l 276 1014 z "},"õ":{"ha":972,"x_min":63,"x_max":910,"o":"m 486 63 q 569 79 531 63 q 638 131 608 96 q 684 224 667 167 q 701 361 701 281 q 684 499 701 442 q 638 591 667 556 q 569 643 608 626 q 486 660 531 660 q 403 643 442 660 q 335 591 364 626 q 288 499 306 556 q 271 361 271 442 q 288 224 271 281 q 335 131 306 167 q 403 79 364 96 q 486 63 442 63 m 486 750 q 658 724 579 750 q 792 649 736 699 q 878 527 847 600 q 910 361 910 454 q 878 194 910 267 q 792 73 847 122 q 658 -2 736 24 q 486 -28 579 -28 q 314 -2 392 -28 q 181 73 236 24 q 94 194 125 122 q 63 361 63 267 q 94 527 63 454 q 181 649 125 600 q 314 724 236 699 q 486 750 392 750 m 257 828 q 266 898 257 864 q 292 958 275 932 q 336 999 310 983 q 396 1015 363 1015 q 450 1002 426 1015 q 492 974 474 989 q 528 945 511 958 q 563 932 544 932 q 601 957 589 932 q 618 1008 613 982 l 715 994 q 706 924 715 958 q 680 864 697 890 q 636 822 663 838 q 576 807 610 807 q 522 820 544 807 q 480 849 499 833 q 444 877 461 864 q 410 890 428 890 q 372 865 383 890 q 354 814 360 840 l 257 828 z "},"ù":{"ha":958,"x_min":97,"x_max":861,"o":"m 97 722 l 292 722 l 292 285 q 342 141 292 185 q 486 97 392 97 l 667 97 l 667 722 l 861 722 l 861 0 l 486 0 q 192 72 288 0 q 97 285 97 143 l 97 722 m 283 1001 l 431 793 l 563 793 l 479 1001 l 283 1001 z "},"û":{"ha":958,"x_min":97,"x_max":861,"o":"m 97 722 l 292 722 l 292 285 q 342 141 292 185 q 486 97 392 97 l 667 97 l 667 722 l 861 722 l 861 0 l 486 0 q 192 72 288 0 q 97 285 97 143 l 97 722 m 554 1015 l 729 793 l 583 793 l 478 918 l 374 793 l 228 793 l 401 1015 l 554 1015 z "},"ÿ":{"ha":958,"x_min":97,"x_max":861,"o":"m 667 28 l 486 28 q 192 99 288 28 q 97 313 97 171 l 97 722 l 292 722 l 292 313 q 342 169 292 213 q 486 125 392 125 l 667 125 l 667 722 l 861 722 l 861 14 q 836 -105 861 -51 q 762 -197 811 -158 q 638 -257 713 -236 q 465 -278 564 -278 q 394 -273 432 -278 q 317 -258 356 -268 q 241 -231 278 -247 q 174 -194 204 -215 l 229 -111 q 335 -162 276 -143 q 451 -181 393 -181 q 611 -133 556 -181 q 667 14 667 -86 l 667 28 m 424 897 q 395 824 424 856 q 319 793 367 793 q 244 824 272 793 q 215 897 215 856 q 244 970 215 939 q 319 1001 272 1001 q 394 970 365 1001 q 424 897 424 939 m 743 897 q 715 824 743 856 q 639 793 686 793 q 563 824 592 793 q 535 897 535 856 q 563 970 535 939 q 639 1001 592 1001 q 714 970 685 1001 q 743 897 743 939 z "},"ç":{"ha":854,"x_min":63,"x_max":813,"o":"m 486 750 q 575 742 531 750 q 660 722 619 735 q 737 689 701 708 q 799 646 772 669 l 743 563 q 627 629 686 606 q 500 653 568 653 q 408 637 450 653 q 336 585 367 621 q 288 494 306 550 q 271 361 271 439 q 288 228 271 283 q 338 137 306 172 q 415 85 369 101 q 514 69 460 69 q 641 93 582 69 q 757 160 700 117 l 813 76 q 751 33 786 53 q 674 1 715 14 q 589 -20 633 -12 q 500 -28 544 -28 q 320 -2 401 -28 q 182 73 239 24 q 94 194 125 122 q 63 361 63 267 q 94 527 63 454 q 181 649 125 600 q 314 724 236 699 q 486 750 392 750 m 493 -333 q 431 -327 458 -333 q 382 -312 403 -321 q 339 -292 357 -304 l 367 -222 q 397 -236 382 -231 q 428 -246 411 -242 q 465 -250 446 -250 q 531 -236 513 -250 q 549 -201 549 -222 q 531 -167 549 -181 q 465 -153 513 -153 l 403 -153 l 403 0 l 514 0 l 514 -69 q 621 -107 582 -75 q 660 -201 660 -139 q 616 -299 660 -264 q 493 -333 572 -333 z "},"Ç":{"ha":1097,"x_min":69,"x_max":1069,"o":"m 653 76 q 834 109 747 76 q 1000 215 921 142 l 1069 132 q 878 15 990 58 q 639 -28 765 -28 q 403 6 508 -28 q 224 104 299 39 q 110 265 150 169 q 69 486 69 361 q 109 707 69 611 q 222 868 149 803 q 397 967 294 933 q 625 1000 500 1000 q 864 957 751 1000 q 1056 840 976 914 l 986 757 q 820 863 907 831 q 639 896 733 896 q 499 872 564 896 q 386 797 433 847 q 312 670 339 747 q 285 486 285 593 q 312 302 285 379 q 388 175 339 225 q 505 101 438 125 q 653 76 572 76 m 628 -333 q 565 -327 593 -333 q 517 -312 538 -321 q 474 -292 492 -304 l 501 -222 q 532 -236 517 -231 q 563 -246 546 -242 q 600 -250 581 -250 q 665 -236 647 -250 q 683 -201 683 -222 q 665 -167 683 -181 q 600 -153 647 -153 l 538 -153 l 538 0 l 649 0 l 649 -69 q 756 -107 717 -75 q 794 -201 794 -139 q 751 -299 794 -264 q 628 -333 707 -333 z "},"Ş":{"ha":1042,"x_min":42,"x_max":1000,"o":"m 1000 257 q 975 145 1000 197 q 894 55 950 93 q 748 -6 838 17 q 528 -28 658 -28 q 384 -17 454 -28 q 251 15 314 -6 q 134 66 188 36 q 42 132 81 96 l 111 215 q 296 112 190 147 q 528 76 401 76 q 726 115 668 76 q 785 222 785 154 q 739 311 785 275 q 583 382 693 347 l 319 465 q 122 572 189 507 q 56 736 56 636 q 80 835 56 788 q 156 920 104 883 q 287 978 207 957 q 479 1000 367 1000 q 615 989 547 1000 q 744 957 682 978 q 859 906 806 936 q 951 840 913 876 l 882 757 q 704 860 803 825 q 479 896 606 896 q 323 860 375 896 q 271 771 271 824 q 281 720 271 742 q 313 680 290 699 q 374 645 336 661 q 467 611 411 629 l 729 528 q 928 422 856 488 q 1000 257 1000 357 m 544 -333 q 482 -327 510 -333 q 433 -312 454 -321 q 390 -292 408 -304 l 418 -222 q 449 -236 433 -231 q 480 -246 463 -242 q 517 -250 497 -250 q 582 -236 564 -250 q 600 -201 600 -222 q 582 -167 600 -181 q 517 -153 564 -153 l 454 -153 l 454 0 l 565 0 l 565 -69 q 672 -107 633 -75 q 711 -201 711 -139 q 667 -299 711 -264 q 544 -333 624 -333 z "},"ş":{"ha":854,"x_min":42,"x_max":813,"o":"m 264 569 q 292 511 264 538 q 389 465 321 485 l 604 403 q 758 324 704 374 q 813 194 813 274 q 792 103 813 144 q 724 33 771 63 q 601 -12 676 4 q 417 -28 526 -28 q 305 -19 360 -28 q 201 3 250 -11 q 111 37 151 18 q 42 76 71 56 l 97 160 q 234 97 156 124 q 417 69 313 69 q 563 97 521 69 q 604 167 604 125 q 575 224 604 199 q 472 271 546 250 l 257 333 q 112 409 168 360 q 56 542 56 458 q 76 624 56 586 q 139 690 96 663 q 249 734 182 718 q 410 750 315 750 q 619 719 525 750 q 771 646 713 688 l 715 563 q 586 626 658 599 q 410 653 514 653 q 300 629 336 653 q 264 569 264 606 m 465 -333 q 403 -327 431 -333 q 354 -312 375 -321 q 311 -292 329 -304 l 339 -222 q 369 -236 354 -231 q 401 -246 383 -242 q 438 -250 418 -250 q 503 -236 485 -250 q 521 -201 521 -222 q 503 -167 521 -181 q 438 -153 485 -153 l 375 -153 l 375 0 l 486 0 l 486 -69 q 593 -107 554 -75 q 632 -201 632 -139 q 588 -299 632 -264 q 465 -333 544 -333 z "},"ı":{"ha":389,"x_min":97,"x_max":292,"o":"m 292 0 l 97 0 l 97 708 l 292 708 l 292 0 z "},"Ğ":{"ha":1139,"x_min":69,"x_max":1069,"o":"m 597 1000 q 836 957 724 1000 q 1028 840 949 914 l 958 757 q 792 863 879 831 q 611 896 706 896 q 481 872 540 896 q 377 797 421 847 q 309 670 333 747 q 285 486 285 593 q 310 298 285 376 q 379 169 335 219 q 487 94 424 118 q 625 69 550 69 q 733 81 688 69 q 808 107 778 92 q 868 146 844 124 l 868 410 l 688 410 l 688 500 l 1069 500 l 1069 118 q 950 44 1018 76 q 806 -6 892 17 q 611 -28 721 -28 q 386 6 486 -28 q 215 104 286 39 q 107 265 144 169 q 69 486 69 361 q 107 707 69 611 q 213 868 144 803 q 380 967 282 933 q 597 1000 478 1000 m 569 1069 q 361 1132 424 1069 q 299 1299 299 1194 l 458 1299 q 490 1208 458 1236 q 569 1181 522 1181 q 649 1208 617 1181 q 681 1299 681 1236 l 840 1299 q 778 1132 840 1194 q 569 1069 715 1069 z "},"ğ":{"ha":951,"x_min":63,"x_max":854,"o":"m 500 806 q 303 866 369 806 q 236 1021 236 926 l 396 1021 q 427 935 396 968 q 500 903 458 903 q 573 935 542 903 q 604 1021 604 968 l 764 1021 q 697 866 764 926 q 500 806 631 806 m 486 625 q 328 563 386 625 q 271 375 271 501 q 328 187 271 249 q 486 125 386 125 l 660 125 l 660 625 l 486 625 m 854 14 q 829 -105 854 -51 q 755 -197 804 -158 q 631 -257 706 -236 q 458 -278 557 -278 q 387 -273 425 -278 q 310 -258 349 -268 q 234 -231 271 -247 q 167 -194 197 -215 l 215 -111 q 322 -162 263 -143 q 444 -181 382 -181 q 604 -133 549 -181 q 660 14 660 -86 l 660 28 l 486 28 q 312 53 390 28 q 178 124 233 78 q 92 233 122 169 q 63 375 63 297 q 92 517 63 453 q 178 626 122 581 q 312 697 233 672 q 486 722 390 722 l 854 722 l 854 14 z "},"İ":{"ha":396,"x_min":94,"x_max":303,"o":"m 303 1146 q 274 1073 303 1104 q 199 1042 246 1042 q 123 1073 151 1042 q 94 1146 94 1104 q 123 1219 94 1188 q 199 1250 151 1250 q 274 1219 244 1250 q 303 1146 303 1188 m 299 0 l 97 0 l 97 972 l 299 972 l 299 0 z "},"˝":{"ha":599,"x_min":56,"x_max":571,"o":"m 321 1014 l 174 806 l 56 806 l 153 1014 l 321 1014 m 571 1014 l 424 806 l 306 806 l 403 1014 l 571 1014 z "},"ű":{"ha":958,"x_min":97,"x_max":861,"o":"m 97 722 l 292 722 l 292 285 q 342 141 292 185 q 486 97 392 97 l 667 97 l 667 722 l 861 722 l 861 0 l 486 0 q 192 72 288 0 q 97 285 97 143 l 97 722 m 535 1014 l 388 806 l 269 806 l 367 1014 l 535 1014 m 785 1014 l 638 806 l 519 806 l 617 1014 l 785 1014 z "},"ő":{"ha":972,"x_min":63,"x_max":910,"o":"m 486 63 q 569 79 531 63 q 638 131 608 96 q 684 224 667 167 q 701 361 701 281 q 684 499 701 442 q 638 591 667 556 q 569 643 608 626 q 486 660 531 660 q 403 643 442 660 q 335 591 364 626 q 288 499 306 556 q 271 361 271 442 q 288 224 271 281 q 335 131 306 167 q 403 79 364 96 q 486 63 442 63 m 486 750 q 658 724 579 750 q 792 649 736 699 q 878 527 847 600 q 910 361 910 454 q 878 194 910 267 q 792 73 847 122 q 658 -2 736 24 q 486 -28 579 -28 q 314 -2 392 -28 q 181 73 236 24 q 94 194 125 122 q 63 361 63 267 q 94 527 63 454 q 181 649 125 600 q 314 724 236 699 q 486 750 392 750 m 549 1014 l 401 806 l 283 806 l 381 1014 l 549 1014 m 799 1014 l 651 806 l 533 806 l 631 1014 l 799 1014 z "},"Ű":{"ha":1194,"x_min":97,"x_max":1097,"o":"m 597 69 q 720 88 665 69 q 814 147 775 107 q 874 248 853 186 q 896 396 896 310 l 896 972 l 1097 972 l 1097 396 q 967 77 1097 182 q 597 -28 836 -28 q 227 77 357 -28 q 97 396 97 182 l 97 972 l 299 972 l 299 396 q 320 248 299 310 q 381 147 342 186 q 474 88 419 107 q 597 69 529 69 m 646 1236 l 499 1028 l 381 1028 l 478 1236 l 646 1236 m 896 1236 l 749 1028 l 631 1028 l 728 1236 l 896 1236 z "},"Ő":{"ha":1250,"x_min":69,"x_max":1181,"o":"m 625 903 q 492 878 554 903 q 385 801 431 853 q 312 672 339 750 q 285 486 285 593 q 312 301 285 379 q 385 171 339 222 q 492 94 431 119 q 625 69 554 69 q 758 94 696 69 q 865 171 819 119 q 938 301 911 222 q 965 486 965 379 q 938 672 965 593 q 865 801 911 750 q 758 878 819 853 q 625 903 696 903 m 625 1000 q 852 967 750 1000 q 1027 868 954 933 q 1140 707 1100 803 q 1181 486 1181 611 q 1140 265 1181 361 q 1027 104 1100 169 q 852 6 954 39 q 625 -28 750 -28 q 397 6 500 -28 q 222 104 294 39 q 109 265 149 169 q 69 486 69 361 q 109 707 69 611 q 222 868 149 803 q 397 967 294 933 q 625 1000 500 1000 m 688 1264 l 540 1056 l 422 1056 l 519 1264 l 688 1264 m 938 1264 l 790 1056 l 672 1056 l 769 1264 l 938 1264 z "},"˛":{"ha":403,"x_min":56,"x_max":375,"o":"m 222 -312 q 99 -274 143 -312 q 56 -174 56 -236 q 97 -72 56 -111 q 201 0 139 -32 l 340 0 q 219 -80 267 -42 q 172 -160 172 -118 q 193 -207 172 -192 q 250 -222 214 -222 q 285 -218 268 -222 q 317 -208 303 -214 q 347 -194 332 -203 l 375 -271 q 332 -292 356 -283 q 284 -306 313 -300 q 222 -312 256 -312 z "},"Ą":{"ha":1139,"x_min":14,"x_max":1153,"o":"m 354 340 l 785 340 l 576 854 l 563 854 l 354 340 m 729 972 l 1125 0 l 925 0 l 833 236 l 306 236 l 214 0 l 14 0 l 410 972 l 729 972 m 1000 -312 q 877 -274 921 -312 q 833 -174 833 -236 q 875 -72 833 -111 q 979 0 917 -32 l 1118 0 q 997 -80 1044 -42 q 950 -160 950 -118 q 971 -207 950 -192 q 1028 -222 992 -222 q 1063 -218 1046 -222 q 1094 -208 1081 -214 q 1125 -194 1110 -203 l 1153 -271 q 1110 -292 1133 -283 q 1062 -306 1090 -300 q 1000 -312 1033 -312 z "},"Į":{"ha":396,"x_min":15,"x_max":335,"o":"m 299 0 l 97 0 l 97 972 l 299 972 l 299 0 m 182 -312 q 59 -274 103 -312 q 15 -174 15 -236 q 57 -72 15 -111 q 161 0 99 -32 l 300 0 q 179 -80 226 -42 q 132 -160 132 -118 q 153 -207 132 -192 q 210 -222 174 -222 q 245 -218 228 -222 q 276 -208 263 -214 q 307 -194 292 -203 l 335 -271 q 292 -292 315 -283 q 244 -306 272 -300 q 182 -312 215 -312 z "},"Ę":{"ha":986,"x_min":97,"x_max":944,"o":"m 299 868 l 299 549 l 806 549 l 806 444 l 299 444 l 299 104 l 944 104 l 944 0 l 97 0 l 97 972 l 944 972 l 944 868 l 299 868 m 542 -312 q 419 -274 463 -312 q 375 -174 375 -236 q 417 -72 375 -111 q 521 0 458 -32 l 660 0 q 539 -80 586 -42 q 492 -160 492 -118 q 513 -207 492 -192 q 569 -222 533 -222 q 605 -218 588 -222 q 636 -208 622 -214 q 667 -194 651 -203 l 694 -271 q 651 -292 675 -283 q 603 -306 632 -300 q 542 -312 575 -312 z "},"Ų":{"ha":1194,"x_min":97,"x_max":1097,"o":"m 597 69 q 720 88 665 69 q 814 147 775 107 q 874 248 853 186 q 896 396 896 310 l 896 972 l 1097 972 l 1097 396 q 967 77 1097 182 q 597 -28 836 -28 q 227 77 357 -28 q 97 396 97 182 l 97 972 l 299 972 l 299 396 q 320 248 299 310 q 381 147 342 186 q 474 88 419 107 q 597 69 529 69 m 625 -312 q 502 -274 546 -312 q 458 -174 458 -236 q 500 -72 458 -111 q 604 0 542 -32 l 743 0 q 622 -80 669 -42 q 575 -160 575 -118 q 596 -207 575 -192 q 653 -222 617 -222 q 688 -218 671 -222 q 719 -208 706 -214 q 750 -194 735 -203 l 778 -271 q 735 -292 758 -283 q 687 -306 715 -300 q 625 -312 658 -312 z "},"ą":{"ha":904,"x_min":49,"x_max":842,"o":"m 257 229 q 417 97 257 97 l 611 97 l 611 361 l 417 361 q 257 229 257 361 m 611 458 q 559 606 611 558 q 424 653 507 653 q 301 634 361 653 q 194 583 242 615 l 146 667 q 213 703 176 688 q 289 728 250 718 q 366 744 328 739 q 438 750 404 750 q 594 729 526 750 q 710 669 663 708 q 781 577 757 631 q 806 458 806 524 l 806 0 l 417 0 q 138 57 228 0 q 49 229 49 114 q 138 401 49 344 q 417 458 228 458 l 611 458 m 689 -312 q 566 -274 610 -312 q 522 -174 522 -236 q 564 -72 522 -111 q 668 0 606 -32 l 807 0 q 686 -80 733 -42 q 639 -160 639 -118 q 660 -207 639 -192 q 717 -222 681 -222 q 752 -218 735 -222 q 783 -208 769 -214 q 814 -194 799 -203 l 842 -271 q 799 -292 822 -283 q 751 -306 779 -300 q 689 -312 722 -312 z "},"į":{"ha":389,"x_min":8,"x_max":328,"o":"m 293 0 l 99 0 l 99 708 l 293 708 l 293 0 m 300 896 q 272 823 300 854 q 196 792 243 792 q 120 823 149 792 q 92 896 92 854 q 120 969 92 938 q 196 1000 149 1000 q 271 969 242 1000 q 300 896 300 938 m 175 -312 q 52 -274 96 -312 q 8 -174 8 -236 q 50 -72 8 -111 q 154 0 92 -32 l 293 0 q 172 -80 219 -42 q 125 -160 125 -118 q 146 -207 125 -192 q 203 -222 167 -222 q 238 -218 221 -222 q 269 -208 256 -214 q 300 -194 285 -203 l 328 -271 q 285 -292 308 -283 q 237 -306 265 -300 q 175 -312 208 -312 z "},"ę":{"ha":931,"x_min":63,"x_max":868,"o":"m 514 69 q 641 93 582 69 q 757 160 700 117 l 813 76 q 751 33 786 53 q 674 1 715 14 q 589 -20 633 -12 q 500 -28 544 -28 q 320 -2 401 -28 q 182 73 239 24 q 94 194 125 122 q 63 361 63 267 q 92 527 63 454 q 176 649 122 600 q 303 724 229 699 q 465 750 376 750 q 622 725 549 750 q 750 652 696 700 q 836 536 804 604 q 868 382 868 468 l 868 285 l 275 285 q 355 119 292 169 q 514 69 418 69 m 465 660 q 390 644 425 660 q 330 596 356 629 q 288 510 304 563 q 271 382 272 457 l 660 382 q 643 507 660 454 q 599 594 626 560 q 537 644 572 628 q 465 660 501 660 m 479 -312 q 356 -274 400 -312 q 313 -174 313 -236 q 354 -72 313 -111 q 458 0 396 -32 l 597 0 q 476 -80 524 -42 q 429 -160 429 -118 q 450 -207 429 -192 q 507 -222 471 -222 q 542 -218 525 -222 q 574 -208 560 -214 q 604 -194 589 -203 l 632 -271 q 589 -292 613 -283 q 541 -306 569 -300 q 479 -312 513 -312 z "},"ų":{"ha":958,"x_min":97,"x_max":896,"o":"m 97 722 l 292 722 l 292 285 q 342 141 292 185 q 486 97 392 97 l 667 97 l 667 722 l 861 722 l 861 0 l 486 0 q 192 72 288 0 q 97 285 97 143 l 97 722 m 743 -312 q 620 -274 664 -312 q 576 -174 576 -236 q 618 -72 576 -111 q 722 0 660 -32 l 861 0 q 740 -80 788 -42 q 693 -160 693 -118 q 714 -207 693 -192 q 771 -222 735 -222 q 806 -218 789 -222 q 838 -208 824 -214 q 868 -194 853 -203 l 896 -271 q 853 -292 876 -283 q 805 -306 833 -300 q 743 -312 776 -312 z "},"Å":{"ha":1139,"x_min":14,"x_max":1125,"o":"m 354 340 l 785 340 l 576 854 l 563 854 l 354 340 m 729 972 l 1125 0 l 925 0 l 833 236 l 306 236 l 214 0 l 14 0 l 410 972 l 729 972 m 736 1153 q 723 1091 736 1119 q 687 1042 710 1063 q 633 1011 664 1022 q 569 1000 603 1000 q 506 1011 536 1000 q 452 1042 475 1022 q 416 1091 429 1063 q 403 1153 403 1119 q 416 1215 403 1186 q 452 1263 429 1243 q 506 1294 475 1283 q 569 1306 536 1306 q 633 1294 603 1306 q 687 1263 664 1283 q 723 1215 710 1243 q 736 1153 736 1186 m 632 1153 q 614 1203 632 1185 q 569 1222 596 1222 q 525 1203 543 1222 q 507 1153 507 1185 q 525 1102 507 1121 q 569 1083 543 1083 q 614 1102 596 1083 q 632 1153 632 1121 z "},"˙":{"ha":319,"x_min":56,"x_max":264,"o":"m 264 910 q 235 837 264 868 q 160 806 207 806 q 84 837 113 806 q 56 910 56 868 q 84 983 56 951 q 160 1014 113 1014 q 235 983 206 1014 q 264 910 264 951 z "},"¯":{"ha":556,"x_min":56,"x_max":500,"o":"m 500 833 l 56 833 l 56 944 l 500 944 l 500 833 z "},"ŗ":{"ha":660,"x_min":83,"x_max":646,"o":"m 646 625 l 479 625 q 335 574 385 625 q 285 424 285 524 l 285 0 l 90 0 l 90 424 q 180 644 90 565 q 438 722 269 722 l 646 722 l 646 625 m 299 -201 q 282 -295 299 -256 q 239 -360 265 -335 q 178 -398 213 -386 q 111 -410 144 -410 l 111 -361 q 178 -337 147 -361 q 215 -271 210 -312 q 206 -275 211 -274 q 181 -278 194 -278 q 111 -247 139 -278 q 83 -174 83 -215 q 112 -101 83 -132 q 188 -69 140 -69 q 269 -109 240 -69 q 299 -201 299 -149 z "},"Ŗ":{"ha":1111,"x_min":97,"x_max":1056,"o":"m 597 972 q 784 949 701 972 q 924 883 867 926 q 1011 776 981 839 q 1042 632 1042 713 q 986 444 1042 521 q 826 328 931 368 l 1056 0 l 826 0 l 622 292 l 597 292 l 299 292 l 299 0 l 97 0 l 97 972 l 597 972 m 299 868 l 299 396 l 597 396 q 767 453 707 396 q 826 632 826 511 q 767 810 826 753 q 597 868 707 868 l 299 868 m 663 -160 q 646 -253 663 -214 q 603 -319 629 -293 q 542 -356 576 -344 q 475 -368 508 -368 l 475 -319 q 542 -295 511 -319 q 579 -229 574 -271 q 569 -233 575 -232 q 544 -236 558 -236 q 475 -205 503 -236 q 447 -132 447 -174 q 476 -59 447 -90 q 551 -28 504 -28 q 633 -67 604 -28 q 663 -160 663 -107 z "},"Ā":{"ha":1139,"x_min":14,"x_max":1125,"o":"m 354 340 l 785 340 l 576 854 l 563 854 l 354 340 m 729 972 l 1125 0 l 925 0 l 833 236 l 306 236 l 214 0 l 14 0 l 410 972 l 729 972 m 793 1083 l 349 1083 l 349 1194 l 793 1194 l 793 1083 z "},"Ē":{"ha":986,"x_min":97,"x_max":944,"o":"m 299 868 l 299 549 l 806 549 l 806 444 l 299 444 l 299 104 l 944 104 l 944 0 l 97 0 l 97 972 l 944 972 l 944 868 l 299 868 m 772 1083 l 328 1083 l 328 1194 l 772 1194 l 772 1083 z "},"Ė":{"ha":986,"x_min":97,"x_max":944,"o":"m 299 868 l 299 549 l 806 549 l 806 444 l 299 444 l 299 104 l 944 104 l 944 0 l 97 0 l 97 972 l 944 972 l 944 868 l 299 868 m 653 1160 q 624 1087 653 1118 q 549 1056 596 1056 q 473 1087 501 1056 q 444 1160 444 1118 q 473 1233 444 1201 q 549 1264 501 1264 q 624 1233 594 1264 q 653 1160 653 1201 z "},"Ģ":{"ha":1139,"x_min":69,"x_max":1069,"o":"m 597 1000 q 836 957 724 1000 q 1028 840 949 914 l 958 757 q 792 863 879 831 q 611 896 706 896 q 481 872 540 896 q 377 797 421 847 q 309 670 333 747 q 285 486 285 593 q 310 298 285 376 q 379 169 335 219 q 487 94 424 118 q 625 69 550 69 q 733 81 688 69 q 808 107 778 92 q 868 146 844 124 l 868 410 l 688 410 l 688 500 l 1069 500 l 1069 118 q 950 44 1018 76 q 806 -6 892 17 q 611 -28 721 -28 q 386 6 486 -28 q 215 104 286 39 q 107 265 144 169 q 69 486 69 361 q 107 707 69 611 q 213 868 144 803 q 380 967 282 933 q 597 1000 478 1000 m 704 -201 q 688 -295 704 -256 q 644 -360 671 -335 q 584 -398 618 -386 q 517 -410 550 -410 l 517 -361 q 584 -337 553 -361 q 621 -271 615 -312 q 611 -275 617 -274 q 586 -278 600 -278 q 517 -247 544 -278 q 489 -174 489 -215 q 517 -101 489 -132 q 593 -69 546 -69 q 675 -109 646 -69 q 704 -201 704 -149 z "},"Ķ":{"ha":1104,"x_min":97,"x_max":1090,"o":"m 722 493 l 1090 0 l 861 0 l 542 431 l 299 431 l 299 0 l 97 0 l 97 972 l 299 972 l 299 535 l 528 535 l 847 972 l 1069 972 l 722 493 m 660 -160 q 643 -253 660 -214 q 600 -319 626 -293 q 540 -356 574 -344 q 472 -368 506 -368 l 472 -319 q 540 -295 508 -319 q 576 -229 571 -271 q 567 -233 572 -232 q 542 -236 556 -236 q 472 -205 500 -236 q 444 -132 444 -174 q 473 -59 444 -90 q 549 -28 501 -28 q 631 -67 601 -28 q 660 -160 660 -107 z "},"Ī":{"ha":396,"x_min":-22,"x_max":422,"o":"m 299 0 l 97 0 l 97 972 l 299 972 l 299 0 m 422 1083 l -22 1083 l -22 1194 l 422 1194 l 422 1083 z "},"Ļ":{"ha":924,"x_min":97,"x_max":896,"o":"m 896 104 l 896 0 l 97 0 l 97 972 l 299 972 l 299 104 l 896 104 m 625 -201 q 608 -295 625 -256 q 565 -360 592 -335 q 505 -398 539 -386 q 438 -410 471 -410 l 438 -361 q 505 -337 474 -361 q 542 -271 536 -312 q 532 -275 538 -274 q 507 -278 521 -278 q 438 -247 465 -278 q 410 -174 410 -215 q 438 -101 410 -132 q 514 -69 467 -69 q 596 -109 567 -69 q 625 -201 625 -149 z "},"Ņ":{"ha":1194,"x_min":97,"x_max":1097,"o":"m 1097 972 l 1097 0 l 833 0 l 313 792 l 299 792 l 299 0 l 97 0 l 97 972 l 361 972 l 882 181 l 896 181 l 896 972 l 1097 972 m 690 -174 q 674 -267 690 -228 q 631 -333 657 -307 q 570 -370 604 -358 q 503 -382 536 -382 l 503 -333 q 570 -309 539 -333 q 607 -243 601 -285 q 597 -247 603 -246 q 572 -250 586 -250 q 503 -219 531 -250 q 475 -146 475 -187 q 503 -73 475 -104 q 579 -42 532 -42 q 661 -81 632 -42 q 690 -174 690 -121 z "},"Ō":{"ha":1250,"x_min":69,"x_max":1181,"o":"m 625 903 q 492 878 554 903 q 385 801 431 853 q 312 672 339 750 q 285 486 285 593 q 312 301 285 379 q 385 171 339 222 q 492 94 431 119 q 625 69 554 69 q 758 94 696 69 q 865 171 819 119 q 938 301 911 222 q 965 486 965 379 q 938 672 965 593 q 865 801 911 750 q 758 878 819 853 q 625 903 696 903 m 625 1000 q 852 967 750 1000 q 1027 868 954 933 q 1140 707 1100 803 q 1181 486 1181 611 q 1140 265 1181 361 q 1027 104 1100 169 q 852 6 954 39 q 625 -28 750 -28 q 397 6 500 -28 q 222 104 294 39 q 109 265 149 169 q 69 486 69 361 q 109 707 69 611 q 222 868 149 803 q 397 967 294 933 q 625 1000 500 1000 m 847 1083 l 403 1083 l 403 1194 l 847 1194 l 847 1083 z "},"Ū":{"ha":1194,"x_min":97,"x_max":1097,"o":"m 597 69 q 720 88 665 69 q 814 147 775 107 q 874 248 853 186 q 896 396 896 310 l 896 972 l 1097 972 l 1097 396 q 967 77 1097 182 q 597 -28 836 -28 q 227 77 357 -28 q 97 396 97 182 l 97 972 l 299 972 l 299 396 q 320 248 299 310 q 381 147 342 186 q 474 88 419 107 q 597 69 529 69 m 819 1056 l 375 1056 l 375 1167 l 819 1167 l 819 1056 z "},"Ż":{"ha":1000,"x_min":49,"x_max":951,"o":"m 938 854 l 292 104 l 951 104 l 951 0 l 49 0 l 49 118 l 694 868 l 63 868 l 63 972 l 938 972 l 938 854 m 604 1160 q 576 1087 604 1118 q 500 1056 547 1056 q 424 1087 453 1056 q 396 1160 396 1118 q 424 1233 396 1201 q 500 1264 453 1264 q 575 1233 546 1264 q 604 1160 604 1201 z "},"ā":{"ha":896,"x_min":49,"x_max":806,"o":"m 257 229 q 417 97 257 97 l 611 97 l 611 361 l 417 361 q 257 229 257 361 m 611 458 q 559 606 611 558 q 424 653 507 653 q 301 634 361 653 q 194 583 242 615 l 146 667 q 213 703 176 688 q 289 728 250 718 q 366 744 328 739 q 438 750 404 750 q 594 729 526 750 q 710 669 663 708 q 781 577 757 631 q 806 458 806 524 l 806 0 l 417 0 q 138 57 228 0 q 49 229 49 114 q 138 401 49 344 q 417 458 228 458 l 611 458 m 697 833 l 253 833 l 253 944 l 697 944 l 697 833 z "},"ē":{"ha":931,"x_min":63,"x_max":868,"o":"m 514 69 q 641 93 582 69 q 757 160 700 117 l 813 76 q 751 33 786 53 q 674 1 715 14 q 589 -20 633 -12 q 500 -28 544 -28 q 320 -2 401 -28 q 182 73 239 24 q 94 194 125 122 q 63 361 63 267 q 92 527 63 454 q 176 649 122 600 q 303 724 229 699 q 465 750 376 750 q 622 725 549 750 q 750 652 696 700 q 836 536 804 604 q 868 382 868 468 l 868 285 l 275 285 q 355 119 292 169 q 514 69 418 69 m 465 660 q 390 644 425 660 q 330 596 356 629 q 288 510 304 563 q 271 382 272 457 l 660 382 q 643 507 660 454 q 599 594 626 560 q 537 644 572 628 q 465 660 501 660 m 688 833 l 243 833 l 243 944 l 688 944 l 688 833 z "},"ė":{"ha":931,"x_min":63,"x_max":868,"o":"m 514 69 q 641 93 582 69 q 757 160 700 117 l 813 76 q 751 33 786 53 q 674 1 715 14 q 589 -20 633 -12 q 500 -28 544 -28 q 320 -2 401 -28 q 182 73 239 24 q 94 194 125 122 q 63 361 63 267 q 92 527 63 454 q 176 649 122 600 q 303 724 229 699 q 465 750 376 750 q 622 725 549 750 q 750 652 696 700 q 836 536 804 604 q 868 382 868 468 l 868 285 l 275 285 q 355 119 292 169 q 514 69 418 69 m 465 660 q 390 644 425 660 q 330 596 356 629 q 288 510 304 563 q 271 382 272 457 l 660 382 q 643 507 660 454 q 599 594 626 560 q 537 644 572 628 q 465 660 501 660 m 569 910 q 541 837 569 868 q 465 806 513 806 q 390 837 418 806 q 361 910 361 868 q 390 983 361 951 q 465 1014 418 1014 q 540 983 511 1014 q 569 910 569 951 z "},"ģ":{"ha":951,"x_min":63,"x_max":854,"o":"m 486 625 q 328 563 386 625 q 271 375 271 501 q 328 187 271 249 q 486 125 386 125 l 660 125 l 660 625 l 486 625 m 854 14 q 829 -105 854 -51 q 755 -197 804 -158 q 631 -257 706 -236 q 458 -278 557 -278 q 387 -273 425 -278 q 310 -258 349 -268 q 234 -231 271 -247 q 167 -194 197 -215 l 215 -111 q 322 -162 263 -143 q 444 -181 382 -181 q 604 -133 549 -181 q 660 14 660 -86 l 660 28 l 486 28 q 312 53 390 28 q 178 124 233 78 q 92 233 122 169 q 63 375 63 297 q 92 517 63 453 q 178 626 122 581 q 312 697 233 672 q 486 722 390 722 l 854 722 l 854 14 m 396 917 q 413 1010 396 971 q 456 1076 429 1050 q 516 1113 482 1101 q 583 1125 550 1125 l 583 1076 q 516 1052 547 1076 q 479 986 485 1028 q 489 989 483 988 q 499 992 493 990 q 514 993 506 993 q 583 962 556 993 q 611 889 611 931 q 583 816 611 847 q 507 785 554 785 q 425 824 454 785 q 396 917 396 864 z "},"ķ":{"ha":889,"x_min":97,"x_max":875,"o":"m 438 319 l 292 319 l 292 0 l 97 0 l 97 972 l 292 972 l 292 417 l 438 417 l 653 722 l 861 722 l 618 375 l 875 0 l 653 0 l 438 319 m 565 -160 q 549 -253 565 -214 q 506 -319 532 -293 q 445 -356 479 -344 q 378 -368 411 -368 l 378 -319 q 445 -295 414 -319 q 482 -229 476 -271 q 472 -233 478 -232 q 447 -236 461 -236 q 378 -205 406 -236 q 350 -132 350 -174 q 378 -59 350 -90 q 454 -28 407 -28 q 536 -67 507 -28 q 565 -160 565 -107 z "},"ī":{"ha":389,"x_min":-26,"x_max":418,"o":"m 292 0 l 97 0 l 97 708 l 292 708 l 292 0 m 418 833 l -26 833 l -26 944 l 418 944 l 418 833 z "},"ļ":{"ha":389,"x_min":86,"x_max":301,"o":"m 292 0 l 97 0 l 97 972 l 292 972 l 292 0 m 301 -201 q 285 -295 301 -256 q 242 -360 268 -335 q 181 -398 215 -386 q 114 -410 147 -410 l 114 -361 q 181 -337 150 -361 q 218 -271 213 -312 q 208 -275 214 -274 q 183 -278 197 -278 q 114 -247 142 -278 q 86 -174 86 -215 q 115 -101 86 -132 q 190 -69 143 -69 q 272 -109 243 -69 q 301 -201 301 -149 z "},"ņ":{"ha":951,"x_min":97,"x_max":861,"o":"m 861 0 l 667 0 l 667 438 q 617 581 667 538 q 472 625 567 625 l 292 625 l 292 0 l 97 0 l 97 722 l 472 722 q 766 651 671 722 q 861 438 861 579 l 861 0 m 597 -160 q 581 -253 597 -214 q 538 -319 564 -293 q 477 -356 511 -344 q 410 -368 443 -368 l 410 -319 q 477 -295 446 -319 q 514 -229 508 -271 q 504 -233 510 -232 q 479 -236 493 -236 q 410 -205 438 -236 q 382 -132 382 -174 q 410 -59 382 -90 q 486 -28 439 -28 q 568 -67 539 -28 q 597 -160 597 -107 z "},"ō":{"ha":972,"x_min":63,"x_max":910,"o":"m 486 63 q 569 79 531 63 q 638 131 608 96 q 684 224 667 167 q 701 361 701 281 q 684 499 701 442 q 638 591 667 556 q 569 643 608 626 q 486 660 531 660 q 403 643 442 660 q 335 591 364 626 q 288 499 306 556 q 271 361 271 442 q 288 224 271 281 q 335 131 306 167 q 403 79 364 96 q 486 63 442 63 m 486 750 q 658 724 579 750 q 792 649 736 699 q 878 527 847 600 q 910 361 910 454 q 878 194 910 267 q 792 73 847 122 q 658 -2 736 24 q 486 -28 579 -28 q 314 -2 392 -28 q 181 73 236 24 q 94 194 125 122 q 63 361 63 267 q 94 527 63 454 q 181 649 125 600 q 314 724 236 699 q 486 750 392 750 m 708 833 l 264 833 l 264 944 l 708 944 l 708 833 z "},"ū":{"ha":958,"x_min":97,"x_max":861,"o":"m 97 722 l 292 722 l 292 285 q 342 141 292 185 q 486 97 392 97 l 667 97 l 667 722 l 861 722 l 861 0 l 486 0 q 192 72 288 0 q 97 285 97 143 l 97 722 m 701 833 l 257 833 l 257 944 l 701 944 l 701 833 z "},"ż":{"ha":819,"x_min":49,"x_max":771,"o":"m 771 97 l 771 0 l 49 0 l 49 111 l 528 625 l 63 625 l 63 722 l 757 722 l 757 611 l 278 97 l 771 97 m 514 910 q 485 837 514 868 q 410 806 457 806 q 334 837 363 806 q 306 910 306 868 q 334 983 306 951 q 410 1014 363 1014 q 485 983 456 1014 q 514 910 514 951 z "},"ţ":{"ha":701,"x_min":28,"x_max":688,"o":"m 160 625 l 28 625 l 28 722 l 160 722 l 160 944 l 354 944 l 354 722 l 569 722 l 569 625 l 354 625 l 354 264 q 366 174 354 211 q 398 115 378 138 q 444 81 418 92 q 500 69 471 69 q 581 83 542 69 q 646 111 619 96 l 688 21 q 592 -14 646 0 q 486 -28 539 -28 q 244 50 329 -28 q 160 264 160 128 l 160 625 m 544 -201 q 528 -295 544 -256 q 485 -360 511 -335 q 424 -398 458 -386 q 357 -410 390 -410 l 357 -361 q 424 -337 393 -361 q 461 -271 456 -312 q 451 -275 457 -274 q 426 -278 440 -278 q 357 -247 385 -278 q 329 -174 329 -215 q 358 -101 329 -132 q 433 -69 386 -69 q 515 -109 486 -69 q 544 -201 544 -149 z "},"Ţ":{"ha":979,"x_min":14,"x_max":965,"o":"m 965 868 l 590 868 l 590 0 l 389 0 l 389 868 l 14 868 l 14 972 l 965 972 l 965 868 m 597 -201 q 581 -295 597 -256 q 538 -360 564 -335 q 477 -398 511 -386 q 410 -410 443 -410 l 410 -361 q 477 -337 446 -361 q 514 -271 508 -312 q 504 -275 510 -274 q 479 -278 493 -278 q 410 -247 438 -278 q 382 -174 382 -215 q 410 -101 382 -132 q 486 -69 439 -69 q 568 -109 539 -69 q 597 -201 597 -149 z "},"ť":{"ha":792,"x_min":28,"x_max":813,"o":"m 160 625 l 28 625 l 28 722 l 160 722 l 160 944 l 354 944 l 354 722 l 569 722 l 569 625 l 354 625 l 354 264 q 366 174 354 211 q 398 115 378 138 q 444 81 418 92 q 500 69 471 69 q 581 83 542 69 q 646 111 619 96 l 688 21 q 592 -14 646 0 q 486 -28 539 -28 q 244 50 329 -28 q 160 264 160 128 l 160 625 m 813 828 q 796 734 813 774 q 753 669 779 694 q 692 631 726 643 q 625 619 658 619 l 625 668 q 692 692 661 668 q 729 758 724 717 q 719 754 725 756 q 694 751 708 751 q 625 783 653 751 q 597 856 597 814 q 626 928 597 897 q 701 960 654 960 q 783 920 754 960 q 813 828 813 881 z "},"ș":{"ha":854,"x_min":42,"x_max":813,"o":"m 264 569 q 292 511 264 538 q 389 465 321 485 l 604 403 q 758 324 704 374 q 813 194 813 274 q 792 103 813 144 q 724 33 771 63 q 601 -12 676 4 q 417 -28 526 -28 q 305 -19 360 -28 q 201 3 250 -11 q 111 37 151 18 q 42 76 71 56 l 97 160 q 234 97 156 124 q 417 69 313 69 q 563 97 521 69 q 604 167 604 125 q 575 224 604 199 q 472 271 546 250 l 257 333 q 112 409 168 360 q 56 542 56 458 q 76 624 56 586 q 139 690 96 663 q 249 734 182 718 q 410 750 315 750 q 619 719 525 750 q 771 646 713 688 l 715 563 q 586 626 658 599 q 410 653 514 653 q 300 629 336 653 q 264 569 264 606 m 535 -201 q 518 -295 535 -256 q 475 -360 501 -335 q 415 -398 449 -386 q 347 -410 381 -410 l 347 -361 q 415 -337 383 -361 q 451 -271 446 -312 q 442 -275 447 -274 q 417 -278 431 -278 q 347 -247 375 -278 q 319 -174 319 -215 q 348 -101 319 -132 q 424 -69 376 -69 q 506 -109 476 -69 q 535 -201 535 -149 z "},"Ș":{"ha":1042,"x_min":42,"x_max":1000,"o":"m 1000 257 q 975 145 1000 197 q 894 55 950 93 q 748 -6 838 17 q 528 -28 658 -28 q 384 -17 454 -28 q 251 15 314 -6 q 134 66 188 36 q 42 132 81 96 l 111 215 q 296 112 190 147 q 528 76 401 76 q 726 115 668 76 q 785 222 785 154 q 739 311 785 275 q 583 382 693 347 l 319 465 q 122 572 189 507 q 56 736 56 636 q 80 835 56 788 q 156 920 104 883 q 287 978 207 957 q 479 1000 367 1000 q 615 989 547 1000 q 744 957 682 978 q 859 906 806 936 q 951 840 913 876 l 882 757 q 704 860 803 825 q 479 896 606 896 q 323 860 375 896 q 271 771 271 824 q 281 720 271 742 q 313 680 290 699 q 374 645 336 661 q 467 611 411 629 l 729 528 q 928 422 856 488 q 1000 257 1000 357 m 646 -201 q 629 -295 646 -256 q 586 -360 613 -335 q 526 -398 560 -386 q 458 -410 492 -410 l 458 -361 q 526 -337 494 -361 q 563 -271 557 -312 q 553 -275 558 -274 q 528 -278 542 -278 q 458 -247 486 -278 q 431 -174 431 -215 q 459 -101 431 -132 q 535 -69 488 -69 q 617 -109 588 -69 q 646 -201 646 -149 z "},"Ľ":{"ha":924,"x_min":97,"x_max":896,"o":"m 896 104 l 896 0 l 97 0 l 97 972 l 299 972 l 299 104 l 896 104 m 611 854 q 594 760 611 800 q 551 695 578 721 q 491 658 525 669 q 424 646 457 646 l 424 694 q 491 719 460 694 q 528 785 522 743 q 518 781 524 782 q 493 778 507 778 q 424 809 451 778 q 396 882 396 840 q 424 955 396 924 q 500 986 453 986 q 582 947 553 986 q 611 854 611 907 z "},"ľ":{"ha":583,"x_min":97,"x_max":604,"o":"m 292 0 l 97 0 l 97 972 l 292 972 l 292 0 m 604 854 q 588 760 604 800 q 544 695 571 721 q 484 658 518 669 q 417 646 450 646 l 417 694 q 484 719 453 694 q 521 785 515 743 q 511 781 517 782 q 486 778 500 778 q 417 809 444 778 q 389 882 389 840 q 417 955 389 924 q 493 986 446 986 q 575 947 546 986 q 604 854 604 907 z "},"ď":{"ha":1146,"x_min":63,"x_max":1167,"o":"m 660 97 l 660 625 l 486 625 q 399 610 439 625 q 331 564 360 596 q 287 482 303 532 q 271 361 271 432 q 287 240 271 290 q 331 158 303 190 q 399 112 360 126 q 486 97 439 97 l 660 97 m 486 0 q 312 25 390 0 q 178 97 233 50 q 92 211 122 144 q 63 361 63 278 q 92 511 63 444 q 178 625 122 578 q 312 697 233 672 q 486 722 390 722 l 660 722 l 660 972 l 854 972 l 854 0 l 486 0 m 1167 854 q 1150 760 1167 800 q 1107 695 1133 721 q 1047 658 1081 669 q 979 646 1013 646 l 979 694 q 1047 719 1015 694 q 1083 785 1078 743 q 1074 781 1079 782 q 1049 778 1063 778 q 979 809 1007 778 q 951 882 951 840 q 980 955 951 924 q 1056 986 1008 986 q 1138 947 1108 986 q 1167 854 1167 907 z "},"Đ":{"ha":1208,"x_min":28,"x_max":1153,"o":"m 597 972 q 824 941 722 972 q 999 849 926 910 q 1113 697 1072 788 q 1153 486 1153 606 q 1113 276 1153 367 q 999 124 1072 185 q 824 31 926 63 q 597 0 722 0 l 139 0 l 139 431 l 28 431 l 28 556 l 139 556 l 139 972 l 597 972 m 569 431 l 340 431 l 340 104 l 597 104 q 730 126 668 104 q 838 194 792 147 q 910 313 883 240 q 938 486 938 385 q 910 660 938 588 q 838 778 883 732 q 730 847 792 825 q 597 868 668 868 l 340 868 l 340 556 l 569 556 l 569 431 z "},"đ":{"ha":951,"x_min":63,"x_max":979,"o":"m 660 861 l 660 972 l 854 972 l 854 861 l 979 861 l 979 764 l 854 764 l 854 0 l 486 0 q 306 24 385 0 q 172 92 226 49 q 90 196 118 136 q 63 326 63 256 q 90 457 63 397 q 172 560 118 517 q 306 628 226 604 q 486 653 385 653 l 660 653 l 660 764 l 479 764 l 479 861 l 660 861 m 660 97 l 660 556 l 486 556 q 399 541 439 556 q 331 498 360 526 q 287 426 303 469 q 271 326 271 383 q 287 226 271 269 q 331 155 303 183 q 399 112 360 126 q 486 97 439 97 l 660 97 z "},"B":{"ha":1111,"x_min":97,"x_max":1042,"o":"m 97 972 l 569 972 q 755 953 676 972 q 885 901 833 935 q 961 819 936 867 q 986 715 986 772 q 944 588 986 642 q 819 507 903 533 q 983 426 924 486 q 1042 271 1042 365 q 938 73 1042 146 q 611 0 835 0 l 97 0 l 97 972 m 299 444 l 299 104 l 611 104 q 771 146 715 104 q 826 271 826 188 q 771 402 826 360 q 611 444 715 444 l 299 444 m 569 549 q 771 715 771 549 q 720 828 771 789 q 569 868 669 868 l 299 868 l 299 549 l 569 549 z "},"C":{"ha":1097,"x_min":69,"x_max":1069,"o":"m 653 76 q 834 109 747 76 q 1000 215 921 142 l 1069 132 q 878 15 990 58 q 639 -28 765 -28 q 403 6 508 -28 q 224 104 299 39 q 110 265 150 169 q 69 486 69 361 q 109 707 69 611 q 222 868 149 803 q 397 967 294 933 q 625 1000 500 1000 q 864 957 751 1000 q 1056 840 976 914 l 986 757 q 820 863 907 831 q 639 896 733 896 q 499 872 564 896 q 386 797 433 847 q 312 670 339 747 q 285 486 285 593 q 312 302 285 379 q 388 175 339 225 q 505 101 438 125 q 653 76 572 76 z "}}}
